<svg xmlns="http://www.w3.org/2000/svg" viewBox="0 0 200 200" width="200" height="200">
<rect width="200" height="200" fill="#FAFAFA" rx="12"/>
<line x1="100" y1="10" x2="100" y2="190" stroke="#E0E0E0" stroke-width="1" stroke-dasharray="4,4"/>
<line x1="10" y1="100" x2="190" y2="100" stroke="#E0E0E0" stroke-width="1" stroke-dasharray="4,4"/>
<text x="100" y="152" text-anchor="middle" font-size="140" font-family="serif" fill="#EEEEEE" dominant-baseline="middle">は</text>
<polyline points="70,45 70,165" stroke="#1565C0" stroke-width="6" fill="none" stroke-linecap="round" stroke-linejoin="round"/><polygon points="70.0,165.0 65.9,159.3 74.1,159.3" fill="#E53935"/>
<circle cx="70" cy="45" r="9" fill="#E53935"/><text x="70" y="49" text-anchor="middle" font-size="11" font-family="sans-serif" font-weight="bold" fill="white">1</text>
<polyline points="70,95 145,95" stroke="#1565C0" stroke-width="6" fill="none" stroke-linecap="round" stroke-linejoin="round"/><polygon points="145.0,95.0 139.3,99.1 139.3,90.9" fill="#E53935"/>
<circle cx="70" cy="95" r="9" fill="#E53935"/><text x="70" y="99" text-anchor="middle" font-size="11" font-family="sans-serif" font-weight="bold" fill="white">2</text>
<polyline points="115,95 125,130 110,160 85,165 70,150" stroke="#1565C0" stroke-width="6" fill="none" stroke-linecap="round" stroke-linejoin="round"/><polygon points="70.0,150.0 76.9,151.1 71.1,156.9" fill="#E53935"/>
<circle cx="115" cy="95" r="9" fill="#E53935"/><text x="115" y="99" text-anchor="middle" font-size="11" font-family="sans-serif" font-weight="bold" fill="white">3</text>
<polyline points="135,95 150,130 140,160 115,168 90,160" stroke="#1565C0" stroke-width="6" fill="none" stroke-linecap="round" stroke-linejoin="round"/><polygon points="90.0,160.0 96.6,157.8 94.1,165.6" fill="#E53935"/>
<circle cx="135" cy="95" r="9" fill="#E53935"/><text x="135" y="99" text-anchor="middle" font-size="11" font-family="sans-serif" font-weight="bold" fill="white">4</text>
</svg>