<svg xmlns="http://www.w3.org/2000/svg" viewBox="0 0 200 200" width="200" height="200">
<rect width="200" height="200" fill="#FAFAFA" rx="12"/>
<line x1="100" y1="10" x2="100" y2="190" stroke="#E0E0E0" stroke-width="1" stroke-dasharray="4,4"/>
<line x1="10" y1="100" x2="190" y2="100" stroke="#E0E0E0" stroke-width="1" stroke-dasharray="4,4"/>
<text x="100" y="152" text-anchor="middle" font-size="140" font-family="serif" fill="#EEEEEE" dominant-baseline="middle">ホ</text>
<polyline points="100,40 100,168" stroke="#1565C0" stroke-width="6" fill="none" stroke-linecap="round" stroke-linejoin="round"/><polygon points="100.0,168.0 95.9,162.3 104.1,162.3" fill="#E53935"/>
<circle cx="100" cy="40" r="9" fill="#E53935"/><text x="100" y="44" text-anchor="middle" font-size="11" font-family="sans-serif" font-weight="bold" fill="white">1</text>
<polyline points="55,95 145,95" stroke="#1565C0" stroke-width="6" fill="none" stroke-linecap="round" stroke-linejoin="round"/><polygon points="145.0,95.0 139.3,99.1 139.3,90.9" fill="#E53935"/>
<circle cx="55" cy="95" r="9" fill="#E53935"/><text x="55" y="99" text-anchor="middle" font-size="11" font-family="sans-serif" font-weight="bold" fill="white">2</text>
<polyline points="68,95 55,168" stroke="#1565C0" stroke-width="6" fill="none" stroke-linecap="round" stroke-linejoin="round"/><polygon points="55.0,168.0 51.9,161.7 60.0,163.1" fill="#E53935"/>
<circle cx="68" cy="95" r="9" fill="#E53935"/><text x="68" y="99" text-anchor="middle" font-size="11" font-family="sans-serif" font-weight="bold" fill="white">3</text>
<polyline points="135,95 148,168" stroke="#1565C0" stroke-width="6" fill="none" stroke-linecap="round" stroke-linejoin="round"/><polygon points="148.0,168.0 143.0,163.1 151.1,161.7" fill="#E53935"/>
<circle cx="135" cy="95" r="9" fill="#E53935"/><text x="135" y="99" text-anchor="middle" font-size="11" font-family="sans-serif" font-weight="bold" fill="white">4</text>
</svg>