<svg xmlns="http://www.w3.org/2000/svg" viewBox="0 0 200 200" width="200" height="200">
<rect width="200" height="200" fill="#FAFAFA" rx="12"/>
<line x1="100" y1="10" x2="100" y2="190" stroke="#E0E0E0" stroke-width="1" stroke-dasharray="4,4"/>
<line x1="10" y1="100" x2="190" y2="100" stroke="#E0E0E0" stroke-width="1" stroke-dasharray="4,4"/>
<text x="100" y="152" text-anchor="middle" font-size="140" font-family="serif" fill="#EEEEEE" dominant-baseline="middle">ふ</text>
<polyline points="100,35 115,50 110,65 90,65 80,52" stroke="#1565C0" stroke-width="6" fill="none" stroke-linecap="round" stroke-linejoin="round"/><polygon points="80.0,52.0 86.7,54.0 80.2,59.0" fill="#E53935"/>
<circle cx="100" cy="35" r="9" fill="#E53935"/><text x="100" y="39" text-anchor="middle" font-size="11" font-family="sans-serif" font-weight="bold" fill="white">1</text>
<polyline points="55,85 145,85" stroke="#1565C0" stroke-width="6" fill="none" stroke-linecap="round" stroke-linejoin="round"/><polygon points="145.0,85.0 139.3,89.1 139.3,80.9" fill="#E53935"/>
<circle cx="55" cy="85" r="9" fill="#E53935"/><text x="55" y="89" text-anchor="middle" font-size="11" font-family="sans-serif" font-weight="bold" fill="white">2</text>
<polyline points="75,85 60,120 80,155 100,162" stroke="#1565C0" stroke-width="6" fill="none" stroke-linecap="round" stroke-linejoin="round"/><polygon points="100.0,162.0 93.3,164.0 96.0,156.2" fill="#E53935"/>
<circle cx="75" cy="85" r="9" fill="#E53935"/><text x="75" y="89" text-anchor="middle" font-size="11" font-family="sans-serif" font-weight="bold" fill="white">3</text>
<polyline points="125,85 140,120 125,155 100,162 80,155" stroke="#1565C0" stroke-width="6" fill="none" stroke-linecap="round" stroke-linejoin="round"/><polygon points="80.0,155.0 86.7,153.0 84.0,160.8" fill="#E53935"/>
<circle cx="125" cy="85" r="9" fill="#E53935"/><text x="125" y="89" text-anchor="middle" font-size="11" font-family="sans-serif" font-weight="bold" fill="white">4</text>
</svg>