<svg xmlns="http://www.w3.org/2000/svg" viewBox="0 0 200 200" width="200" height="200">
<rect width="200" height="200" fill="#FAFAFA" rx="12"/>
<line x1="100" y1="10" x2="100" y2="190" stroke="#E0E0E0" stroke-width="1" stroke-dasharray="4,4"/>
<line x1="10" y1="100" x2="190" y2="100" stroke="#E0E0E0" stroke-width="1" stroke-dasharray="4,4"/>
<text x="100" y="152" text-anchor="middle" font-size="140" font-family="serif" fill="#EEEEEE" dominant-baseline="middle">け</text>
<polyline points="70,40 70,165" stroke="#1565C0" stroke-width="6" fill="none" stroke-linecap="round" stroke-linejoin="round"/><polygon points="70.0,165.0 65.9,159.3 74.1,159.3" fill="#E53935"/>
<circle cx="70" cy="40" r="9" fill="#E53935"/><text x="70" y="44" text-anchor="middle" font-size="11" font-family="sans-serif" font-weight="bold" fill="white">1</text>
<polyline points="70,80 150,80" stroke="#1565C0" stroke-width="6" fill="none" stroke-linecap="round" stroke-linejoin="round"/><polygon points="150.0,80.0 144.3,84.1 144.3,75.9" fill="#E53935"/>
<circle cx="70" cy="80" r="9" fill="#E53935"/><text x="70" y="84" text-anchor="middle" font-size="11" font-family="sans-serif" font-weight="bold" fill="white">2</text>
<polyline points="150,80 145,140 130,165" stroke="#1565C0" stroke-width="6" fill="none" stroke-linecap="round" stroke-linejoin="round"/><polygon points="130.0,165.0 129.4,158.0 136.4,162.3" fill="#E53935"/>
<circle cx="150" cy="80" r="9" fill="#E53935"/><text x="150" y="84" text-anchor="middle" font-size="11" font-family="sans-serif" font-weight="bold" fill="white">3</text>
</svg>