<svg xmlns="http://www.w3.org/2000/svg" viewBox="0 0 200 200" width="200" height="200">
<rect width="200" height="200" fill="#FAFAFA" rx="12"/>
<line x1="100" y1="10" x2="100" y2="190" stroke="#E0E0E0" stroke-width="1" stroke-dasharray="4,4"/>
<line x1="10" y1="100" x2="190" y2="100" stroke="#E0E0E0" stroke-width="1" stroke-dasharray="4,4"/>
<text x="100" y="152" text-anchor="middle" font-size="140" font-family="serif" fill="#EEEEEE" dominant-baseline="middle">め</text>
<polyline points="75,55 65,125 80,158 105,165 130,155 140,125 120,100 80,90 65,105" stroke="#1565C0" stroke-width="6" fill="none" stroke-linecap="round" stroke-linejoin="round"/><polygon points="65.0,105.0 66.1,98.1 71.9,103.9" fill="#E53935"/>
<circle cx="75" cy="55" r="9" fill="#E53935"/><text x="75" y="59" text-anchor="middle" font-size="11" font-family="sans-serif" font-weight="bold" fill="white">1</text>
<polyline points="115,105 148,140 140,165 115,170 90,162" stroke="#1565C0" stroke-width="6" fill="none" stroke-linecap="round" stroke-linejoin="round"/><polygon points="90.0,162.0 96.6,159.8 94.1,167.6" fill="#E53935"/>
<circle cx="115" cy="105" r="9" fill="#E53935"/><text x="115" y="109" text-anchor="middle" font-size="11" font-family="sans-serif" font-weight="bold" fill="white">2</text>
</svg>