<svg xmlns="http://www.w3.org/2000/svg" viewBox="0 0 200 200" width="200" height="200">
<rect width="200" height="200" fill="#FAFAFA" rx="12"/>
<line x1="100" y1="10" x2="100" y2="190" stroke="#E0E0E0" stroke-width="1" stroke-dasharray="4,4"/>
<line x1="10" y1="100" x2="190" y2="100" stroke="#E0E0E0" stroke-width="1" stroke-dasharray="4,4"/>
<text x="100" y="152" text-anchor="middle" font-size="140" font-family="serif" fill="#EEEEEE" dominant-baseline="middle">み</text>
<polyline points="65,55 80,90 70,120 80,155 100,165" stroke="#1565C0" stroke-width="6" fill="none" stroke-linecap="round" stroke-linejoin="round"/><polygon points="100.0,165.0 93.1,166.1 96.8,158.8" fill="#E53935"/>
<circle cx="65" cy="55" r="9" fill="#E53935"/><text x="65" y="59" text-anchor="middle" font-size="11" font-family="sans-serif" font-weight="bold" fill="white">1</text>
<polyline points="95,55 110,80 100,100 120,130 140,158 125,170 100,165" stroke="#1565C0" stroke-width="6" fill="none" stroke-linecap="round" stroke-linejoin="round"/><polygon points="100.0,165.0 106.4,162.1 104.7,170.1" fill="#E53935"/>
<circle cx="95" cy="55" r="9" fill="#E53935"/><text x="95" y="59" text-anchor="middle" font-size="11" font-family="sans-serif" font-weight="bold" fill="white">2</text>
<polyline points="130,150 148,168" stroke="#1565C0" stroke-width="6" fill="none" stroke-linecap="round" stroke-linejoin="round"/><polygon points="148.0,168.0 141.1,166.9 146.9,161.1" fill="#E53935"/>
<circle cx="130" cy="150" r="9" fill="#E53935"/><text x="130" y="154" text-anchor="middle" font-size="11" font-family="sans-serif" font-weight="bold" fill="white">3</text>
</svg>