<svg xmlns="http://www.w3.org/2000/svg" viewBox="0 0 200 200" width="200" height="200">
<rect width="200" height="200" fill="#FAFAFA" rx="12"/>
<line x1="100" y1="10" x2="100" y2="190" stroke="#E0E0E0" stroke-width="1" stroke-dasharray="4,4"/>
<line x1="10" y1="100" x2="190" y2="100" stroke="#E0E0E0" stroke-width="1" stroke-dasharray="4,4"/>
<text x="100" y="152" text-anchor="middle" font-size="140" font-family="serif" fill="#EEEEEE" dominant-baseline="middle">に</text>
<polyline points="70,50 70,165" stroke="#1565C0" stroke-width="6" fill="none" stroke-linecap="round" stroke-linejoin="round"/><polygon points="70.0,165.0 65.9,159.3 74.1,159.3" fill="#E53935"/>
<circle cx="70" cy="50" r="9" fill="#E53935"/><text x="70" y="54" text-anchor="middle" font-size="11" font-family="sans-serif" font-weight="bold" fill="white">1</text>
<polyline points="70,100 145,100" stroke="#1565C0" stroke-width="6" fill="none" stroke-linecap="round" stroke-linejoin="round"/><polygon points="145.0,100.0 139.3,104.1 139.3,95.9" fill="#E53935"/>
<circle cx="70" cy="100" r="9" fill="#E53935"/><text x="70" y="104" text-anchor="middle" font-size="11" font-family="sans-serif" font-weight="bold" fill="white">2</text>
<polyline points="145,100 145,155 65,155" stroke="#1565C0" stroke-width="6" fill="none" stroke-linecap="round" stroke-linejoin="round"/><polygon points="65.0,155.0 70.7,150.9 70.7,159.1" fill="#E53935"/>
<circle cx="145" cy="100" r="9" fill="#E53935"/><text x="145" y="104" text-anchor="middle" font-size="11" font-family="sans-serif" font-weight="bold" fill="white">3</text>
</svg>