<svg xmlns="http://www.w3.org/2000/svg" viewBox="0 0 200 200" width="200" height="200">
<rect width="200" height="200" fill="#FAFAFA" rx="12"/>
<line x1="100" y1="10" x2="100" y2="190" stroke="#E0E0E0" stroke-width="1" stroke-dasharray="4,4"/>
<line x1="10" y1="100" x2="190" y2="100" stroke="#E0E0E0" stroke-width="1" stroke-dasharray="4,4"/>
<text x="100" y="152" text-anchor="middle" font-size="140" font-family="serif" fill="#EEEEEE" dominant-baseline="middle">ぬ</text>
<polyline points="70,50 65,120 80,158 105,165 130,155 140,125 110,100 75,95" stroke="#1565C0" stroke-width="6" fill="none" stroke-linecap="round" stroke-linejoin="round"/><polygon points="75.0,95.0 81.2,91.7 80.0,99.9" fill="#E53935"/>
<circle cx="70" cy="50" r="9" fill="#E53935"/><text x="70" y="54" text-anchor="middle" font-size="11" font-family="sans-serif" font-weight="bold" fill="white">1</text>
<polyline points="110,100 150,130 145,158 120,170 95,162" stroke="#1565C0" stroke-width="6" fill="none" stroke-linecap="round" stroke-linejoin="round"/><polygon points="95.0,162.0 101.6,159.8 99.1,167.6" fill="#E53935"/>
<circle cx="110" cy="100" r="9" fill="#E53935"/><text x="110" y="104" text-anchor="middle" font-size="11" font-family="sans-serif" font-weight="bold" fill="white">2</text>
<polyline points="140,155 150,168" stroke="#1565C0" stroke-width="6" fill="none" stroke-linecap="round" stroke-linejoin="round"/><polygon points="150.0,168.0 143.3,166.0 149.8,161.0" fill="#E53935"/>
<circle cx="140" cy="155" r="9" fill="#E53935"/><text x="140" y="159" text-anchor="middle" font-size="11" font-family="sans-serif" font-weight="bold" fill="white">3</text>
</svg>