<svg xmlns="http://www.w3.org/2000/svg" viewBox="0 0 200 200" width="200" height="200">
<rect width="200" height="200" fill="#FAFAFA" rx="12"/>
<line x1="100" y1="10" x2="100" y2="190" stroke="#E0E0E0" stroke-width="1" stroke-dasharray="4,4"/>
<line x1="10" y1="100" x2="190" y2="100" stroke="#E0E0E0" stroke-width="1" stroke-dasharray="4,4"/>
<text x="100" y="152" text-anchor="middle" font-size="140" font-family="serif" fill="#EEEEEE" dominant-baseline="middle">お</text>
<polyline points="60,50 140,50" stroke="#1565C0" stroke-width="6" fill="none" stroke-linecap="round" stroke-linejoin="round"/><polygon points="140.0,50.0 134.3,54.1 134.3,45.9" fill="#E53935"/>
<circle cx="60" cy="50" r="9" fill="#E53935"/><text x="60" y="54" text-anchor="middle" font-size="11" font-family="sans-serif" font-weight="bold" fill="white">1</text>
<polyline points="100,50 100,100 75,140 60,160" stroke="#1565C0" stroke-width="6" fill="none" stroke-linecap="round" stroke-linejoin="round"/><polygon points="60.0,160.0 60.1,153.0 66.7,157.9" fill="#E53935"/>
<circle cx="100" cy="50" r="9" fill="#E53935"/><text x="100" y="54" text-anchor="middle" font-size="11" font-family="sans-serif" font-weight="bold" fill="white">2</text>
<polyline points="80,95 140,105 155,130 140,155 110,165 80,158 70,140" stroke="#1565C0" stroke-width="6" fill="none" stroke-linecap="round" stroke-linejoin="round"/><polygon points="70.0,140.0 76.3,143.0 69.2,146.9" fill="#E53935"/>
<circle cx="80" cy="95" r="9" fill="#E53935"/><text x="80" y="99" text-anchor="middle" font-size="11" font-family="sans-serif" font-weight="bold" fill="white">3</text>
</svg>