<svg xmlns="http://www.w3.org/2000/svg" viewBox="0 0 200 200" width="200" height="200">
<rect width="200" height="200" fill="#FAFAFA" rx="12"/>
<line x1="100" y1="10" x2="100" y2="190" stroke="#E0E0E0" stroke-width="1" stroke-dasharray="4,4"/>
<line x1="10" y1="100" x2="190" y2="100" stroke="#E0E0E0" stroke-width="1" stroke-dasharray="4,4"/>
<text x="100" y="152" text-anchor="middle" font-size="140" font-family="serif" fill="#EEEEEE" dominant-baseline="middle">シ</text>
<polyline points="70,75 90,65 95,80" stroke="#1565C0" stroke-width="6" fill="none" stroke-linecap="round" stroke-linejoin="round"/><polygon points="95.0,80.0 89.3,75.9 97.1,73.3" fill="#E53935"/>
<circle cx="70" cy="75" r="9" fill="#E53935"/><text x="70" y="79" text-anchor="middle" font-size="11" font-family="sans-serif" font-weight="bold" fill="white">1</text>
<polyline points="100,95 120,85 125,100" stroke="#1565C0" stroke-width="6" fill="none" stroke-linecap="round" stroke-linejoin="round"/><polygon points="125.0,100.0 119.3,95.9 127.1,93.3" fill="#E53935"/>
<circle cx="100" cy="95" r="9" fill="#E53935"/><text x="100" y="99" text-anchor="middle" font-size="11" font-family="sans-serif" font-weight="bold" fill="white">2</text>
<polyline points="55,125 100,105 150,140 130,168" stroke="#1565C0" stroke-width="6" fill="none" stroke-linecap="round" stroke-linejoin="round"/><polygon points="130.0,168.0 129.9,161.0 136.6,165.8" fill="#E53935"/>
<circle cx="55" cy="125" r="9" fill="#E53935"/><text x="55" y="129" text-anchor="middle" font-size="11" font-family="sans-serif" font-weight="bold" fill="white">3</text>
</svg>