<svg xmlns="http://www.w3.org/2000/svg" viewBox="0 0 200 200" width="200" height="200">
<rect width="200" height="200" fill="#FAFAFA" rx="12"/>
<line x1="100" y1="10" x2="100" y2="190" stroke="#E0E0E0" stroke-width="1" stroke-dasharray="4,4"/>
<line x1="10" y1="100" x2="190" y2="100" stroke="#E0E0E0" stroke-width="1" stroke-dasharray="4,4"/>
<text x="100" y="152" text-anchor="middle" font-size="140" font-family="serif" fill="#EEEEEE" dominant-baseline="middle">ツ</text>
<polyline points="65,60 85,50 90,65" stroke="#1565C0" stroke-width="6" fill="none" stroke-linecap="round" stroke-linejoin="round"/><polygon points="90.0,65.0 84.3,60.9 92.1,58.3" fill="#E53935"/>
<circle cx="65" cy="60" r="9" fill="#E53935"/><text x="65" y="64" text-anchor="middle" font-size="11" font-family="sans-serif" font-weight="bold" fill="white">1</text>
<polyline points="100,75 120,65 125,80" stroke="#1565C0" stroke-width="6" fill="none" stroke-linecap="round" stroke-linejoin="round"/><polygon points="125.0,80.0 119.3,75.9 127.1,73.3" fill="#E53935"/>
<circle cx="100" cy="75" r="9" fill="#E53935"/><text x="100" y="79" text-anchor="middle" font-size="11" font-family="sans-serif" font-weight="bold" fill="white">2</text>
<polyline points="55,115 100,95 150,130 130,168" stroke="#1565C0" stroke-width="6" fill="none" stroke-linecap="round" stroke-linejoin="round"/><polygon points="130.0,168.0 129.0,161.1 136.3,164.9" fill="#E53935"/>
<circle cx="55" cy="115" r="9" fill="#E53935"/><text x="55" y="119" text-anchor="middle" font-size="11" font-family="sans-serif" font-weight="bold" fill="white">3</text>
</svg>