<svg xmlns="http://www.w3.org/2000/svg" viewBox="0 0 200 200" width="200" height="200">
<rect width="200" height="200" fill="#FAFAFA" rx="12"/>
<line x1="100" y1="10" x2="100" y2="190" stroke="#E0E0E0" stroke-width="1" stroke-dasharray="4,4"/>
<line x1="10" y1="100" x2="190" y2="100" stroke="#E0E0E0" stroke-width="1" stroke-dasharray="4,4"/>
<text x="100" y="152" text-anchor="middle" font-size="140" font-family="serif" fill="#EEEEEE" dominant-baseline="middle">ヲ</text>
<polyline points="55,55 145,55" stroke="#1565C0" stroke-width="6" fill="none" stroke-linecap="round" stroke-linejoin="round"/><polygon points="145.0,55.0 139.3,59.1 139.3,50.9" fill="#E53935"/>
<circle cx="55" cy="55" r="9" fill="#E53935"/><text x="55" y="59" text-anchor="middle" font-size="11" font-family="sans-serif" font-weight="bold" fill="white">1</text>
<polyline points="55,90 145,90" stroke="#1565C0" stroke-width="6" fill="none" stroke-linecap="round" stroke-linejoin="round"/><polygon points="145.0,90.0 139.3,94.1 139.3,85.9" fill="#E53935"/>
<circle cx="55" cy="90" r="9" fill="#E53935"/><text x="55" y="94" text-anchor="middle" font-size="11" font-family="sans-serif" font-weight="bold" fill="white">2</text>
<polyline points="110,55 100,168" stroke="#1565C0" stroke-width="6" fill="none" stroke-linecap="round" stroke-linejoin="round"/><polygon points="100.0,168.0 96.4,162.0 104.6,162.7" fill="#E53935"/>
<circle cx="110" cy="55" r="9" fill="#E53935"/><text x="110" y="59" text-anchor="middle" font-size="11" font-family="sans-serif" font-weight="bold" fill="white">3</text>
</svg>