<svg xmlns="http://www.w3.org/2000/svg" viewBox="0 0 200 200" width="200" height="200">
<rect width="200" height="200" fill="#FAFAFA" rx="12"/>
<line x1="100" y1="10" x2="100" y2="190" stroke="#E0E0E0" stroke-width="1" stroke-dasharray="4,4"/>
<line x1="10" y1="100" x2="190" y2="100" stroke="#E0E0E0" stroke-width="1" stroke-dasharray="4,4"/>
<text x="100" y="152" text-anchor="middle" font-size="140" font-family="serif" fill="#EEEEEE" dominant-baseline="middle">よ</text>
<polyline points="60,65 145,65" stroke="#1565C0" stroke-width="6" fill="none" stroke-linecap="round" stroke-linejoin="round"/><polygon points="145.0,65.0 139.3,69.1 139.3,60.9" fill="#E53935"/>
<circle cx="60" cy="65" r="9" fill="#E53935"/><text x="60" y="69" text-anchor="middle" font-size="11" font-family="sans-serif" font-weight="bold" fill="white">1</text>
<polyline points="100,65 100,168" stroke="#1565C0" stroke-width="6" fill="none" stroke-linecap="round" stroke-linejoin="round"/><polygon points="100.0,168.0 95.9,162.3 104.1,162.3" fill="#E53935"/>
<circle cx="100" cy="65" r="9" fill="#E53935"/><text x="100" y="69" text-anchor="middle" font-size="11" font-family="sans-serif" font-weight="bold" fill="white">2</text>
<polyline points="60,120 145,120" stroke="#1565C0" stroke-width="6" fill="none" stroke-linecap="round" stroke-linejoin="round"/><polygon points="145.0,120.0 139.3,124.1 139.3,115.9" fill="#E53935"/>
<circle cx="60" cy="120" r="9" fill="#E53935"/><text x="60" y="124" text-anchor="middle" font-size="11" font-family="sans-serif" font-weight="bold" fill="white">3</text>
</svg>