<svg xmlns="http://www.w3.org/2000/svg" viewBox="0 0 200 200" width="200" height="200">
<rect width="200" height="200" fill="#FAFAFA" rx="12"/>
<line x1="100" y1="10" x2="100" y2="190" stroke="#E0E0E0" stroke-width="1" stroke-dasharray="4,4"/>
<line x1="10" y1="100" x2="190" y2="100" stroke="#E0E0E0" stroke-width="1" stroke-dasharray="4,4"/>
<text x="100" y="152" text-anchor="middle" font-size="140" font-family="serif" fill="#EEEEEE" dominant-baseline="middle">ゆ</text>
<polyline points="65,75 65,140 100,158" stroke="#1565C0" stroke-width="6" fill="none" stroke-linecap="round" stroke-linejoin="round"/><polygon points="100.0,158.0 93.1,159.1 96.8,151.8" fill="#E53935"/>
<circle cx="65" cy="75" r="9" fill="#E53935"/><text x="65" y="79" text-anchor="middle" font-size="11" font-family="sans-serif" font-weight="bold" fill="white">1</text>
<polyline points="65,105 145,105" stroke="#1565C0" stroke-width="6" fill="none" stroke-linecap="round" stroke-linejoin="round"/><polygon points="145.0,105.0 139.3,109.1 139.3,100.9" fill="#E53935"/>
<circle cx="65" cy="105" r="9" fill="#E53935"/><text x="65" y="109" text-anchor="middle" font-size="11" font-family="sans-serif" font-weight="bold" fill="white">2</text>
<polyline points="145,75 145,140 110,158" stroke="#1565C0" stroke-width="6" fill="none" stroke-linecap="round" stroke-linejoin="round"/><polygon points="110.0,158.0 113.2,151.8 116.9,159.1" fill="#E53935"/>
<circle cx="145" cy="75" r="9" fill="#E53935"/><text x="145" y="79" text-anchor="middle" font-size="11" font-family="sans-serif" font-weight="bold" fill="white">3</text>
</svg>