<svg xmlns="http://www.w3.org/2000/svg" viewBox="653.0 33.4 75.4 75.4" width="200" height="200">
  <defs>
    <marker id="arrowhead" markerWidth="4" markerHeight="4" refX="1.5" refY="1.5"
            orient="auto-start-reverse" markerUnits="strokeWidth">
      <path d="M 0,0 L 3,1.5 L 0,3 z" fill="#2563eb"/>
    </marker>
  </defs>
  <rect x="653.0" y="33.4" width="75.4" height="75.4" fill="#FAFAFA"/>
  <g transform="">
    <path d="M 672.69322,62.030274 L 705.64635,61.608394 L 706.02135,61.139644 C 706.14631,60.983424 706.28694,60.983424 706.44322,61.139644 C 707.53693,62.014674 708.91193,63.092804 710.56822,64.374014 C 711.19318,64.936544 711.13068,65.405294 710.38072,65.780274 L 708.9276,66.436514 C 706.89631,69.311544 705.00569,71.655294 703.25572,73.467774 C 701.50569,75.249034 698.95882,77.327164 695.6151,79.702144 C 694.83382,78.139664 693.99007,76.983414 693.08385,76.233394 C 692.70882,80.170904 691.7557,83.936534 690.22447,87.530274 C 688.6932,91.124024 685.81821,94.577144 681.59947,97.889644 C 680.75571,96.420894 679.72446,95.139644 678.50572,94.045894 L 678.50572,93.764644 C 681.91196,91.827144 684.49008,89.264654 686.2401,86.077144 C 687.99008,82.858404 688.89633,78.405284 688.95885,72.717774 C 688.95883,72.061544 688.86508,71.499044 688.6776,71.030274 C 688.49008,70.624044 688.61508,70.374044 689.0526,70.280274 L 693.78697,70.561514 C 694.2557,70.655294 694.3182,70.889664 693.97447,71.264644 L 693.31822,72.155274 C 693.28695,73.249044 693.24007,74.295914 693.1776,75.295894 C 695.58382,74.202164 697.69319,72.874044 699.50572,71.311514 C 701.31819,69.749044 702.80256,67.749044 703.95885,65.311514 C 693.30257,65.405294 683.19321,65.842794 673.63072,66.624014 C 673.44322,65.092794 673.13072,63.780304 672.69322,62.686514 L 672.69322,62.030274" fill="#1a1a1a" fill-opacity="0.55"/><path d="M 670.09138,59.177664 C 672.15229,59.177664 684.37056,58.588832 684.37056,58.588832" class="stroke-order" fill="none" stroke="#2563eb" stroke-width="1.6" marker-end="url(#arrowhead)"/><text x="668.14557" y="56.29829" font-size="9" font-family="sans-serif" font-weight="700" fill="#dc2626">1</text><path d="M 702.18274,58.883248 C 702.18274,58.883248 708.19174,56.920062 712.21815,59.367988 C 719.26578,63.652716 713.21334,71.286112 710.90808,74.87715" class="stroke-order" fill="none" stroke="#2563eb" stroke-width="1.6" marker-end="url(#arrowhead)"/><path d="M 686.38173,72.198233 C 687.89106,78.651928 681.1251,85.313807 677.42984,89.269298" class="stroke-order" fill="none" stroke="#2563eb" stroke-width="1.6" marker-end="url(#arrowhead)"/><text x="677.32422" y="79.154854" font-size="9" font-family="sans-serif" font-weight="700" fill="#dc2626">2</text>
  </g>
</svg>