<svg xmlns="http://www.w3.org/2000/svg" viewBox="332.7 40.9 68.9 68.9" width="200" height="200">
  <defs>
    <marker id="arrowhead" markerWidth="4" markerHeight="4" refX="1.5" refY="1.5"
            orient="auto-start-reverse" markerUnits="strokeWidth">
      <path d="M 0,0 L 3,1.5 L 0,3 z" fill="#2563eb"/>
    </marker>
  </defs>
  <rect x="332.7" y="40.9" width="68.9" height="68.9" fill="#FAFAFA"/>
  <g transform="">
    <path d="M 377.23479,66.548904 L 373.70354,69.267654 C 375.98476,71.642674 378.266,74.830164 380.54729,78.830154 C 382.8285,82.798914 384.76599,87.423904 386.35979,92.705154 C 388.67225,91.455154 390.45349,90.611404 391.67229,90.205154 L 391.67229,89.986404 C 389.48475,85.173914 387.10974,80.767664 384.54729,76.798904 C 382.01601,72.798934 379.5785,69.392674 377.23479,66.548904 z M 360.60979,68.392654 C 360.3051,68.386804 360.13321,68.587984 360.10979,68.986404 C 360.35978,69.392684 360.14102,70.642674 359.42229,72.736404 C 358.73478,74.830174 357.29727,77.642664 355.14104,81.205154 C 352.98478,84.767664 350.67228,87.642654 348.17229,89.830154 L 348.17229,90.455154 C 349.60979,91.423904 350.76603,92.548904 351.64104,93.861404 C 354.92229,89.705164 357.54727,85.892654 359.54729,82.423904 C 361.57852,78.955174 363.35976,75.173914 364.89104,71.048904 L 365.54729,70.423904 C 366.01602,70.080184 365.98476,69.798924 365.45354,69.580154 L 360.95354,68.455154 C 360.82073,68.408284 360.71135,68.394604 360.60979,68.392654 z " fill="#1a1a1a" fill-opacity="0.55"/><path d="M 355.5778,67.410008 C 356.07224,71.911981 351.23197,79.250457 348.81183,82.919696" class="stroke-order" fill="none" stroke="#2563eb" stroke-width="1.6" marker-end="url(#arrowhead)"/><path d="M 383.47441,66.577273 L 393.25905,82.399236" class="stroke-order" fill="none" stroke="#2563eb" stroke-width="1.6" marker-end="url(#arrowhead)"/><text x="347.06491" y="69.599327" font-size="9" font-family="sans-serif" font-weight="700" fill="#dc2626">1</text><text x="387.18729" y="68.852814" font-size="9" font-family="sans-serif" font-weight="700" fill="#dc2626">2</text>
  </g>
</svg>