<svg xmlns="http://www.w3.org/2000/svg" viewBox="339.7 280.2 57.2 57.2" width="200" height="200">
  <defs>
    <marker id="arrowhead" markerWidth="4" markerHeight="4" refX="1.5" refY="1.5"
            orient="auto-start-reverse" markerUnits="strokeWidth">
      <path d="M 0,0 L 3,1.5 L 0,3 z" fill="#2563eb"/>
    </marker>
  </defs>
  <rect x="339.7" y="280.2" width="57.2" height="57.2" fill="#FAFAFA"/>
  <g transform="">
    <path d="M 363.39961,306.64144 C 364.21208,306.64147 366.32146,308.14147 369.72773,311.14144 C 373.1652,314.14146 379.93082,318.96958 390.02461,325.62582 L 389.97773,326.18832 C 388.91518,327.09457 387.75894,328.4852 386.50898,330.36019 C 376.25895,321.95395 369.94645,316.79771 367.57148,314.89144 C 365.22771,312.98521 363.86833,312.03209 363.49335,312.03206 C 363.02459,312.03209 362.41521,312.45396 361.66523,313.29769 C 360.91521,314.14146 357.05584,317.68833 350.08711,323.93832 C 349.05585,322.50083 347.93085,321.39146 346.71211,320.61019 L 346.66523,320.04769 C 353.88397,314.86021 358.30584,311.32897 359.93085,309.45394 C 361.58709,307.57897 362.74334,306.64147 363.39961,306.64144" fill="#1a1a1a" fill-opacity="0.55"/><path d="M 351.20594,310.36041 C 354.2246,308.01834 357.55555,302.7617 363.2806,302.24124 C 369.00565,301.72078 372.84659,307.20347 374.83479,309.42359" class="stroke-order" fill="none" stroke="#2563eb" stroke-width="1.6" marker-end="url(#arrowhead)"/><text x="360.36093" y="299.32379" font-size="9" font-family="sans-serif" font-weight="700" fill="#dc2626">1</text>
  </g>
</svg>