<svg xmlns="http://www.w3.org/2000/svg" viewBox="327.7 120.2 66.9 66.9" width="200" height="200">
  <defs>
    <marker id="arrowhead" markerWidth="4" markerHeight="4" refX="1.5" refY="1.5"
            orient="auto-start-reverse" markerUnits="strokeWidth">
      <path d="M 0,0 L 3,1.5 L 0,3 z" fill="#2563eb"/>
    </marker>
  </defs>
  <rect x="327.7" y="120.2" width="66.9" height="66.9" fill="#FAFAFA"/>
  <g transform="">
    <path d="M 381.586,151.23149 C 382.02346,151.73152 381.89846,151.98152 381.211,151.98149 L 380.086,151.93462 C 374.67972,154.15339 367.3516,156.09089 358.10162,157.74712 L 358.10162,166.32525 C 358.10161,168.6065 359.05474,169.74713 360.961,169.74712 L 384.72662,169.74712 L 384.07037,174.10649 L 361.05475,174.10649 C 356.11724,174.1065 353.64849,171.55962 353.6485,166.46587 L 353.6485,142.88775 C 353.64849,142.23153 353.55474,141.66903 353.36725,141.20025 C 353.17974,140.79403 353.30474,140.54403 353.74225,140.45025 L 358.5235,140.73149 C 358.92974,140.85653 358.99224,141.12215 358.711,141.52837 L 358.10162,142.41899 L 358.10162,153.95025 C 365.1016,152.73152 369.99222,151.49714 372.7735,150.24712 C 375.58597,148.99715 377.05472,148.1534 377.17975,147.71587 C 377.39847,147.2784 377.69534,147.13777 378.07037,147.29399 L 381.586,151.23149" fill="#1a1a1a" fill-opacity="0.55"/><path d="M 360.5706,150.7947 C 366.26874,149.52372 369.9622,147.50222 374.20305,145.29442" class="stroke-order" fill="none" stroke="#2563eb" stroke-width="1.6" marker-end="url(#arrowhead)"/><text x="360.83575" y="146.82085" font-size="9" font-family="sans-serif" font-weight="700" fill="#dc2626">1</text><path d="M 349.74866,138.40065 L 349.64456,149.43439" class="stroke-order" fill="none" stroke="#2563eb" stroke-width="1.6" marker-end="url(#arrowhead)"/><text x="343.47144" y="140.28036" font-size="9" font-family="sans-serif" font-weight="700" fill="#dc2626">2</text><path d="M 348.73083,166.02072 C 348.73083,169.52338 347.83167,173.42784 351.1502,176.18511 C 354.46873,178.94238 361.35977,178.35548 366.33318,178.09755" class="stroke-order" fill="none" stroke="#2563eb" stroke-width="1.6" marker-end="url(#arrowhead)"/>
  </g>
</svg>