<svg xmlns="http://www.w3.org/2000/svg" viewBox="327.1 355.6 77.3 77.3" width="200" height="200">
  <defs>
    <marker id="arrowhead" markerWidth="4" markerHeight="4" refX="1.5" refY="1.5"
            orient="auto-start-reverse" markerUnits="strokeWidth">
      <path d="M 0,0 L 3,1.5 L 0,3 z" fill="#2563eb"/>
    </marker>
  </defs>
  <rect x="327.1" y="355.6" width="77.3" height="77.3" fill="#FAFAFA"/>
  <g transform="">
    <path d="M 365.67868,379.61588 C 365.42668,379.68621 365.35058,379.94403 365.39738,380.36588 C 365.58498,380.74092 365.67858,381.45966 365.67868,382.52213 L 365.67868,388.89713 L 348.55368,388.89713 L 348.55368,392.86588 L 365.67868,392.86588 L 365.67868,412.27213 C 365.67858,412.80338 365.58488,413.20962 365.42868,413.45963 C 365.27238,413.70963 364.92858,413.70963 364.36618,413.49088 C 363.83488,413.27214 363.02238,412.89713 361.92868,412.36588 L 361.64738,412.45963 C 361.49118,413.95963 361.20998,415.45962 360.83498,416.92838 C 362.67868,417.45963 364.27248,417.83462 365.58498,418.05338 C 366.92868,418.30338 367.99118,418.05337 368.77238,417.30338 C 369.58498,416.58463 370.02248,415.83463 370.08498,415.08463 C 370.14738,414.33463 370.14738,413.33462 370.11618,412.05338 L 370.11618,392.86588 L 387.83498,392.86588 L 387.83498,388.89713 L 370.11618,388.89713 L 370.11618,381.52213 L 370.58498,380.45963 C 370.77238,380.14717 370.70998,379.89716 370.39738,379.74088 L 365.99118,379.61588 C 365.87398,379.60026 365.76268,379.59244 365.67868,379.61588 z M 378.55368,397.36588 L 375.52238,400.17838 C 378.55368,403.6784 382.05358,407.70963 386.02238,412.24088 C 387.58498,410.61589 388.89738,409.42838 389.99118,408.67838 L 389.99118,408.42838 C 385.61618,404.83465 381.80368,401.14714 378.55368,397.36588 z M 356.55368,398.77213 C 356.39748,398.819 356.28808,398.97526 356.20998,399.20963 C 356.17868,399.52215 355.58488,400.83464 354.42868,403.17838 C 353.30368,405.4909 351.08488,408.02213 347.80368,410.77213 L 347.80368,411.30338 C 349.20993,412.20963 350.39738,413.27213 351.36618,414.52213 C 355.08488,410.24088 358.05368,406.02213 360.24118,401.83463 L 361.11618,401.30338 C 361.61618,400.95965 361.58488,400.67839 360.99118,400.45963 L 357.14738,398.92838 C 356.91308,398.78776 356.70988,398.72526 356.55368,398.77213 z " fill="#1a1a1a" fill-opacity="0.55"/><path d="M 348.96949,385.87561 L 360.62724,386.02282" class="stroke-order" fill="none" stroke="#2563eb" stroke-width="1.6" marker-end="url(#arrowhead)"/><text x="347.6875" y="383.09702" font-size="9" font-family="sans-serif" font-weight="700" fill="#dc2626">1</text><path d="M 374.17145,376.61029 L 374.06736,386.08265" class="stroke-order" fill="none" stroke="#2563eb" stroke-width="1.6" marker-end="url(#arrowhead)"/><text x="377.14551" y="382.16019" font-size="9" font-family="sans-serif" font-weight="700" fill="#dc2626">2</text><path d="M 354.03553,397.38833 L 346.45432,406.80965" class="stroke-order" fill="none" stroke="#2563eb" stroke-width="1.6" marker-end="url(#arrowhead)"/><path d="M 383.55077,397.60914 L 391.5,405.41117" class="stroke-order" fill="none" stroke="#2563eb" stroke-width="1.6" marker-end="url(#arrowhead)"/><text x="342.46161" y="400.17316" font-size="9" font-family="sans-serif" font-weight="700" fill="#dc2626">3</text><text x="389.05298" y="399.95236" font-size="9" font-family="sans-serif" font-weight="700" fill="#dc2626">4</text>
  </g>
</svg>