<svg xmlns="http://www.w3.org/2000/svg" viewBox="334.0 198.6 65.5 65.5" width="200" height="200">
  <defs>
    <marker id="arrowhead" markerWidth="4" markerHeight="4" refX="1.5" refY="1.5"
            orient="auto-start-reverse" markerUnits="strokeWidth">
      <path d="M 0,0 L 3,1.5 L 0,3 z" fill="#2563eb"/>
    </marker>
  </defs>
  <rect x="334.0" y="198.6" width="65.5" height="65.5" fill="#FAFAFA"/>
  <g transform="">
    <path d="M 352.70745,224.00217 L 382.61371,224.00217 L 382.66058,223.9553 C 382.78554,223.79908 382.92617,223.79908 383.08245,223.9553 C 383.92617,224.67408 384.94179,225.51782 386.12933,226.48654 C 386.53554,226.95532 386.51991,227.42407 386.08245,227.8928 L 385.47308,228.40842 C 385.22304,231.43969 384.61367,234.23657 383.64495,236.79904 C 382.70742,239.36156 381.09804,241.95531 378.81683,244.5803 C 376.5668,247.2053 373.8793,249.37718 370.75433,251.09592 C 367.66056,252.78342 363.26994,254.29905 357.58245,255.6428 C 357.39494,254.0178 357.03557,252.50217 356.50433,251.09592 L 356.50433,250.5803 C 360.91056,250.0803 364.55119,249.2053 367.42621,247.9553 C 370.30118,246.67405 372.72305,244.97093 374.69183,242.84592 C 376.66055,240.68968 378.11367,238.43969 379.05121,236.09592 C 379.98867,233.72094 380.51992,231.08032 380.64495,228.17404 L 352.70745,228.17404 L 352.70745,224.00217" fill="#1a1a1a" fill-opacity="0.55"/><path d="M 352.41625,220.66498 L 364.78173,220.95939" class="stroke-order" fill="none" stroke="#2563eb" stroke-width="1.6" marker-end="url(#arrowhead)"/><path d="M 381.78802,245.85701 C 380.32135,249.22726 372.04951,254.42241 369.32406,256.11502" class="stroke-order" fill="none" stroke="#2563eb" stroke-width="1.6" marker-end="url(#arrowhead)"/><text x="352.82666" y="218.52452" font-size="9" font-family="sans-serif" font-weight="700" fill="#dc2626">1</text>
  </g>
</svg>