<svg xmlns="http://www.w3.org/2000/svg" viewBox="657.6 123.3 60.7 60.7" width="200" height="200">
  <defs>
    <marker id="arrowhead" markerWidth="4" markerHeight="4" refX="1.5" refY="1.5"
            orient="auto-start-reverse" markerUnits="strokeWidth">
      <path d="M 0,0 L 3,1.5 L 0,3 z" fill="#2563eb"/>
    </marker>
  </defs>
  <rect x="657.6" y="123.3" width="60.7" height="60.7" fill="#FAFAFA"/>
  <g transform="">
    <path d="M 696.93893,137.57394 C 697.0639,137.01148 697.39202,136.79273 697.9233,136.91769 L 702.84518,139.44894 C 703.34514,139.76147 703.37639,140.04272 702.93893,140.29269 L 701.6733,140.76144 C 699.61077,143.41772 697.67327,145.65209 695.8608,147.46457 C 694.04827,149.27709 692.53265,150.71459 691.31393,151.77707 L 692.8608,151.87081 C 693.36078,151.90209 693.45453,152.13646 693.14205,152.57394 L 692.6733,153.27707 L 692.6733,169.40207 C 692.67328,172.68332 692.73578,175.12081 692.8608,176.71457 L 687.93893,176.71457 C 688.12641,173.40207 688.22016,169.08957 688.22018,163.77707 L 688.22018,154.30831 C 687.37641,154.96458 685.84516,156.08958 683.62643,157.68331 C 681.43891,159.24583 677.14204,161.69895 670.7358,165.04269 C 670.1733,163.4802 669.37642,161.99583 668.34518,160.58957 L 668.34518,160.21457 C 672.97017,158.62083 677.28267,156.51146 681.28268,153.88644 C 685.28266,151.26146 688.47016,148.74584 690.84518,146.33957 C 693.22015,143.93334 694.89202,141.9646 695.8608,140.43331 C 696.82952,138.9021 697.1889,137.94898 696.93893,137.57394" fill="#1a1a1a" fill-opacity="0.55"/><path d="M 691.58376,137.49238 C 689.78046,144.37436 677.34137,149.93147 670.82741,153.24365" class="stroke-order" fill="none" stroke="#2563eb" stroke-width="1.6" marker-end="url(#arrowhead)"/><text x="679.03894" y="142.70946" font-size="9" font-family="sans-serif" font-weight="700" fill="#dc2626">1</text><path d="M 698.94416,150.59391 L 698.94416,170.17259" class="stroke-order" fill="none" stroke="#2563eb" stroke-width="1.6" marker-end="url(#arrowhead)"/><text x="701.61353" y="158.94165" font-size="9" font-family="sans-serif" font-weight="700" fill="#dc2626">2</text>
  </g>
</svg>