<svg xmlns="http://www.w3.org/2000/svg" viewBox="586.6 35.9 68.4 68.4" width="200" height="200">
  <defs>
    <marker id="arrowhead" markerWidth="4" markerHeight="4" refX="1.5" refY="1.5"
            orient="auto-start-reverse" markerUnits="strokeWidth">
      <path d="M 0,0 L 3,1.5 L 0,3 z" fill="#2563eb"/>
    </marker>
  </defs>
  <rect x="586.6" y="35.9" width="68.4" height="68.4" fill="#FAFAFA"/>
  <g transform="">
    <path d="M 605.10775,91.962143 C 608.29524,89.305893 610.96711,86.415273 613.12337,83.290263 C 615.31086,80.134023 616.68586,77.399653 617.24837,75.087143 C 617.84211,72.774653 618.23273,71.040283 618.42025,69.884013 C 613.95149,70.102783 609.46711,70.399663 604.96712,70.774643 C 604.90462,69.180913 604.71712,67.759033 604.40462,66.509013 L 604.40462,66.227763 L 618.93587,65.805883 C 619.06086,64.243413 619.13898,62.618413 619.17025,60.930883 L 619.17025,57.930883 C 619.17023,57.274673 619.07648,56.712173 618.889,56.243383 C 618.70148,55.837173 618.82648,55.587173 619.264,55.493383 L 623.9515,55.774643 C 624.38897,55.899673 624.42022,56.180923 624.04525,56.618383 L 623.5765,57.368383 L 623.5765,61.024643 C 623.54522,62.618413 623.45147,64.165293 623.29525,65.665263 L 635.2015,65.337143 L 635.34212,65.196513 C 635.46709,65.040293 635.60771,65.040293 635.764,65.196513 C 636.76396,65.884043 637.77959,66.618413 638.81087,67.399643 C 639.43583,67.774663 639.43583,68.180913 638.81087,68.618383 L 638.2015,69.087143 C 638.17021,75.180903 638.01396,79.665273 637.73275,82.540263 C 637.48271,85.415273 637.24834,87.368393 637.02962,88.399643 C 636.84209,89.399643 636.60771,90.274643 636.3265,91.024643 C 636.04521,91.774643 635.46709,92.587133 634.59212,93.462143 C 633.74834,94.368383 632.52959,94.602763 630.93587,94.165263 C 629.37334,93.727763 627.4046,93.134013 625.02962,92.384013 C 625.5296,90.915263 625.88897,89.384013 626.10775,87.790263 L 626.43587,87.696513 C 627.99835,88.509013 629.23272,89.009013 630.139,89.196513 C 631.04522,89.352763 631.60772,89.337143 631.8265,89.149643 C 632.07647,88.930893 632.32647,88.524643 632.5765,87.930883 C 632.82647,87.305893 633.10772,85.634023 633.42025,82.915263 C 633.73271,80.165273 633.85771,75.696533 633.79525,69.509013 C 630.13897,69.509033 626.4671,69.587163 622.77962,69.743383 C 622.56085,70.930913 622.12335,72.790283 621.46712,75.321513 C 620.81085,77.821523 619.51398,80.790273 617.5765,84.227763 C 615.67023,87.665263 612.63899,91.587143 608.48275,95.993383 C 607.51399,94.680883 606.38899,93.446513 605.10775,92.290263 L 605.10775,91.962143" fill="#1a1a1a" fill-opacity="0.55"/><path d="M 602.08122,62.710659 L 614.4467,62.121826" class="stroke-order" fill="none" stroke="#2563eb" stroke-width="1.6" marker-end="url(#arrowhead)"/><text x="601.01862" y="60.125702" font-size="9" font-family="sans-serif" font-weight="700" fill="#dc2626">1</text><path d="M 631.67005,61.532994 C 631.67005,61.532994 638.8973,60.124143 642.74944,62.261637 C 646.55128,64.371215 645.42904,71.374829 645.42011,74.447257" class="stroke-order" fill="none" stroke="#2563eb" stroke-width="1.6" marker-end="url(#arrowhead)"/><path d="M 627.9862,52.524871 L 627.36165,63.038149" class="stroke-order" fill="none" stroke="#2563eb" stroke-width="1.6" marker-end="url(#arrowhead)"/><text x="630.08746" y="56.204132" font-size="9" font-family="sans-serif" font-weight="700" fill="#dc2626">2</text>
  </g>
</svg>