<svg xmlns="http://www.w3.org/2000/svg" viewBox="588.3 282.6 62.4 62.4" width="200" height="200">
  <defs>
    <marker id="arrowhead" markerWidth="4" markerHeight="4" refX="1.5" refY="1.5"
            orient="auto-start-reverse" markerUnits="strokeWidth">
      <path d="M 0,0 L 3,1.5 L 0,3 z" fill="#2563eb"/>
    </marker>
  </defs>
  <rect x="588.3" y="282.6" width="62.4" height="62.4" fill="#FAFAFA"/>
  <g transform="">
    <path d="M 611.0336,333.06924 C 615.25233,332.038 618.53358,330.6005 620.87735,328.75674 C 623.22108,326.913 624.89295,324.50676 625.89297,321.538 C 626.89295,318.56926 627.4242,315.38176 627.48673,311.9755 L 616.04923,311.9755 C 613.23671,316.78801 610.22109,320.89738 607.00235,324.30362 C 606.18984,323.14738 605.06484,322.03801 603.62735,320.9755 L 603.62735,320.55362 C 606.25234,318.58489 608.70547,315.78801 610.98673,312.163 C 613.26796,308.50677 614.67421,305.47552 615.20547,303.06924 C 615.73671,300.66303 615.87733,299.25678 615.62735,298.8505 C 615.65858,298.31928 615.93983,298.14741 616.4711,298.33487 L 620.7836,299.08487 C 621.28358,299.20991 621.34608,299.44428 620.9711,299.788 L 620.26797,300.538 C 619.70545,303.10053 618.95546,305.5224 618.01797,307.80362 L 642.3461,307.80362 L 642.3461,311.9755 L 631.89297,311.9755 C 631.83044,315.53801 631.31482,318.89739 630.3461,322.05362 C 629.37732,325.20988 627.72107,328.038 625.37735,330.538 C 623.03358,333.038 619.09608,335.35049 613.56485,337.4755 C 613.00234,336.03799 612.15859,334.67862 611.0336,333.39737 L 611.0336,333.06924" fill="#1a1a1a" fill-opacity="0.55"/><path d="M 612.09137,298.24365 C 611.09771,303.54314 606.01903,310.0203 603.40609,313.5533" class="stroke-order" fill="none" stroke="#2563eb" stroke-width="1.6" marker-end="url(#arrowhead)"/><text x="602.61993" y="304.3942" font-size="9" font-family="sans-serif" font-weight="700" fill="#dc2626">1</text><path d="M 623.4264,304.72081 L 638.73604,304.86802" class="stroke-order" fill="none" stroke="#2563eb" stroke-width="1.6" marker-end="url(#arrowhead)"/><text x="625.63147" y="302.19785" font-size="9" font-family="sans-serif" font-weight="700" fill="#dc2626">2</text><path d="M 634.33581,315.98137 C 634.54399,323.39792 632.56625,326.26045 628.29848,332.01152" class="stroke-order" fill="none" stroke="#2563eb" stroke-width="1.6" marker-end="url(#arrowhead)"/><text x="635.57294" y="325.29675" font-size="9" font-family="sans-serif" font-weight="700" fill="#dc2626">3</text>
  </g>
</svg>