<svg xmlns="http://www.w3.org/2000/svg" viewBox="583.5 118.1 68.0 68.0" width="200" height="200">
  <defs>
    <marker id="arrowhead" markerWidth="4" markerHeight="4" refX="1.5" refY="1.5"
            orient="auto-start-reverse" markerUnits="strokeWidth">
      <path d="M 0,0 L 3,1.5 L 0,3 z" fill="#2563eb"/>
    </marker>
  </defs>
  <rect x="583.5" y="118.1" width="68.0" height="68.0" fill="#FAFAFA"/>
  <g transform="">
    <path d="M 635.82936,142.63266 L 636.86061,146.61703 C 632.76683,147.24206 628.54808,147.91393 624.20436,148.63266 C 624.82933,151.57018 625.50121,154.53892 626.21998,157.5389 C 631.3762,156.75767 636.36057,155.94517 641.17311,155.1014 L 642.53248,159.4139 C 637.59495,160.00767 632.46995,160.69517 627.15748,161.4764 C 628.31371,166.19516 629.54808,170.97641 630.86061,175.82016 L 630.81373,176.2889 C 629.53245,176.44515 627.93871,176.96078 626.03248,177.83578 C 624.75121,171.92953 623.61059,166.71079 622.61061,162.17953 C 617.20434,163.05454 611.6106,164.03891 605.82936,165.13266 C 605.64185,163.69517 605.21998,162.28892 604.56373,160.9139 L 604.70436,160.49203 C 610.57935,159.77329 616.26684,159.00767 621.76686,158.19516 C 621.01684,154.75767 620.36059,151.82018 619.79811,149.38266 C 615.73559,150.03893 611.56372,150.74205 607.28248,151.49203 C 607.06373,150.05455 606.71998,148.72643 606.25123,147.50766 L 606.39186,147.08578 C 610.7356,146.58581 614.92309,146.05456 618.95436,145.49203 C 617.95434,141.17956 617.34497,138.89832 617.12623,138.64828 C 616.75122,138.14832 616.84497,137.88269 617.40748,137.8514 L 622.14186,137.24203 C 622.51684,137.30457 622.62621,137.52332 622.46998,137.89828 L 622.18873,138.83578 C 622.56371,140.80456 622.96996,142.80456 623.40748,144.83578 C 627.75121,144.14831 631.89183,143.41394 635.82936,142.63266" fill="#1a1a1a" fill-opacity="0.55"/><path d="M 603.70051,144.11675 L 614.4467,142.93909" class="stroke-order" fill="none" stroke="#2563eb" stroke-width="1.6" marker-end="url(#arrowhead)"/><path d="M 604.43655,157.21827 L 616.80203,155.15736" class="stroke-order" fill="none" stroke="#2563eb" stroke-width="1.6" marker-end="url(#arrowhead)"/><path d="M 623.86802,131.16243 L 626.51777,140.58375" class="stroke-order" fill="none" stroke="#2563eb" stroke-width="1.6" marker-end="url(#arrowhead)"/><text x="598.51611" y="146.9785" font-size="9" font-family="sans-serif" font-weight="700" fill="#dc2626">1</text><text x="598.56781" y="159.67769" font-size="9" font-family="sans-serif" font-weight="700" fill="#dc2626">2</text><text x="628.15662" y="138.3325" font-size="9" font-family="sans-serif" font-weight="700" fill="#dc2626">3</text>
  </g>
</svg>