<svg xmlns="http://www.w3.org/2000/svg" viewBox="592.4 199.0 66.6 66.6" width="200" height="200">
  <defs>
    <marker id="arrowhead" markerWidth="4" markerHeight="4" refX="1.5" refY="1.5"
            orient="auto-start-reverse" markerUnits="strokeWidth">
      <path d="M 0,0 L 3,1.5 L 0,3 z" fill="#2563eb"/>
    </marker>
  </defs>
  <rect x="592.4" y="199.0" width="66.6" height="66.6" fill="#FAFAFA"/>
  <g transform="">
    <path d="M 621.58376,219.03175 C 621.64624,218.56304 621.92749,218.39117 622.42751,218.51613 L 626.69314,219.35988 C 627.19311,219.51616 627.23999,219.78179 626.83376,220.15675 L 626.17751,220.81301 C 625.77124,222.00054 625.34936,223.14116 624.91188,224.23488 L 637.94314,224.23488 L 638.08376,224.04738 C 638.20873,223.89116 638.34935,223.89116 638.50564,224.04738 C 639.34935,224.73491 640.3806,225.54741 641.59938,226.48488 C 642.09935,226.85991 642.08372,227.28178 641.55251,227.75051 L 640.80251,228.26613 C 640.61497,230.0474 640.0056,232.2974 638.97438,235.01613 C 637.97435,237.70365 636.3806,240.51614 634.19314,243.45363 C 632.00561,246.35989 629.34936,248.96926 626.22438,251.28175 C 623.13062,253.56301 619.05249,255.64113 613.99001,257.51613 C 613.49,255.92238 612.81813,254.5005 611.97438,253.25051 L 611.97438,252.82863 C 616.13062,251.98488 619.72437,250.54738 622.75564,248.51613 C 625.78686,246.45364 628.27124,244.17239 630.20876,241.67238 C 632.17748,239.1724 633.59936,236.70365 634.47438,234.26613 C 635.3806,231.82865 635.91185,229.81303 636.06814,228.21925 L 623.08376,228.21925 C 622.30249,229.75053 621.17749,231.57865 619.70876,233.70363 C 618.24,235.7974 615.99,238.26615 612.95876,241.10988 C 611.99,239.89114 610.865,238.70365 609.58376,237.54738 L 609.58376,237.31301 C 612.365,235.46927 614.72437,233.18803 616.66188,230.46925 C 618.59937,227.71928 619.95874,225.23491 620.74001,223.01613 C 621.55249,220.76616 621.83374,219.43804 621.58376,219.03175" fill="#1a1a1a" fill-opacity="0.55"/><path d="M 618.12691,219.78173 C 616.43925,224.88133 612.10107,229.77185 609.39851,233.10189" class="stroke-order" fill="none" stroke="#2563eb" stroke-width="1.6" marker-end="url(#arrowhead)"/><text x="608.56055" y="223.11197" font-size="9" font-family="sans-serif" font-weight="700" fill="#dc2626">1</text><path d="M 634.43989,221.0496 C 634.43989,221.0496 644.51078,219.98266 646.72273,222.81916 C 648.93468,225.65566 644.8751,232.08333 643.2877,235.31018" class="stroke-order" fill="none" stroke="#2563eb" stroke-width="1.6" marker-end="url(#arrowhead)"/><text x="638.43494" y="219.0524" font-size="9" font-family="sans-serif" font-weight="700" fill="#dc2626">2</text>
  </g>
</svg>