<svg xmlns="http://www.w3.org/2000/svg" viewBox="273.2 39.6 67.6 67.6" width="200" height="200">
  <defs>
    <marker id="arrowhead" markerWidth="4" markerHeight="4" refX="1.5" refY="1.5"
            orient="auto-start-reverse" markerUnits="strokeWidth">
      <path d="M 0,0 L 3,1.5 L 0,3 z" fill="#2563eb"/>
    </marker>
  </defs>
  <rect x="273.2" y="39.6" width="67.6" height="67.6" fill="#FAFAFA"/>
  <g transform="">
    <path d="M 284.94052,65.097655 L 320.00302,63.738285 L 320.23739,63.503905 C 320.36235,63.347685 320.50298,63.347685 320.65927,63.503905 C 321.62798,64.566435 322.62798,65.675805 323.65927,66.832025 C 324.03423,67.394555 323.97173,67.832055 323.47177,68.144525 L 322.20614,68.613285 C 320.1436,72.207055 317.92486,75.191425 315.54989,77.566405 C 313.17486,79.941425 310.59674,82.269545 307.81552,84.550785 C 310.03424,86.425785 312.12799,88.300785 314.09677,90.175785 L 314.09677,90.644525 C 313.00299,91.582035 311.72174,92.910155 310.25302,94.628905 C 307.75299,91.441405 305.17487,88.644535 302.51864,86.238285 C 299.86238,83.832045 296.98738,81.769545 293.89364,80.050785 L 296.47177,76.394525 C 299.3155,78.082045 301.95612,79.863295 304.39364,81.738285 C 306.51862,80.300795 308.67487,78.503925 310.86239,76.347655 C 313.08111,74.191425 315.12798,71.285175 317.00302,67.628905 C 306.97174,67.941435 296.67488,68.675805 286.11239,69.832025 C 285.83114,68.082055 285.36239,66.613305 284.70614,65.425785 L 284.94052,65.097655" fill="#1a1a1a" fill-opacity="0.55"/><path d="M 298.11909,61.997231 C 298.11909,61.997231 318.78133,57.677419 325.39116,60.956312 C 332.00099,64.235205 326.09148,72.309722 324.55842,75.112805" class="stroke-order" fill="none" stroke="#2563eb" stroke-width="1.6" marker-end="url(#arrowhead)"/><text x="292.93713" y="59.81469" font-size="9" font-family="sans-serif" font-weight="700" fill="#dc2626">1</text><path d="M 291.45721,83.648338 L 304.57279,95.722994" class="stroke-order" fill="none" stroke="#2563eb" stroke-width="1.6" marker-end="url(#arrowhead)"/><text x="287.88364" y="93.002129" font-size="9" font-family="sans-serif" font-weight="700" fill="#dc2626">2</text>
  </g>
</svg>