<svg xmlns="http://www.w3.org/2000/svg" viewBox="277.8 282.9 61.8 61.8" width="200" height="200">
  <defs>
    <marker id="arrowhead" markerWidth="4" markerHeight="4" refX="1.5" refY="1.5"
            orient="auto-start-reverse" markerUnits="strokeWidth">
      <path d="M 0,0 L 3,1.5 L 0,3 z" fill="#2563eb"/>
    </marker>
  </defs>
  <rect x="277.8" y="282.9" width="61.8" height="61.8" fill="#FAFAFA"/>
  <g transform="">
    <path d="M 313.44106,300.54757 C 313.53478,300.01635 313.87853,299.82885 314.47231,299.98507 L 319.30043,300.92257 C 319.64415,301.07885 319.6754,301.32885 319.39419,301.67257 L 318.69106,302.46945 C 318.12852,305.75072 317.14415,308.87572 315.73793,311.84445 C 314.3629,314.81321 313.37853,316.79759 312.78481,317.79757 C 315.84728,320.17258 318.7379,322.50071 321.45669,324.78195 L 321.45669,325.20382 C 320.51915,325.92258 319.25352,327.26633 317.65981,329.23507 C 315.31603,326.70383 312.8004,324.29758 310.11293,322.01632 C 308.67541,323.98508 306.58166,326.34445 303.83169,329.09445 C 301.08166,331.8132 296.40979,334.53194 289.81606,337.25069 C 289.2848,335.84444 288.4723,334.36007 287.37856,332.79757 L 287.37856,332.42257 C 292.5973,331.07882 296.67542,329.1257 299.61293,326.56319 C 302.58166,323.96946 304.89416,321.50071 306.55043,319.15695 C 303.20666,316.68821 299.22229,314.37571 294.59731,312.21945 L 297.17543,308.18819 C 301.83166,310.50072 305.80041,312.79759 309.08169,315.07882 C 311.76915,309.51634 313.22228,305.7976 313.44106,303.92257 C 313.69103,302.0476 313.69103,300.9226 313.44106,300.54757" fill="#1a1a1a" fill-opacity="0.55"/><path d="M 295.81643,303.78693 C 303.77343,305.89457 305.46342,308.50895 307.6241,310.45097" class="stroke-order" fill="none" stroke="#2563eb" stroke-width="1.6" marker-end="url(#arrowhead)"/><path d="M 323.0297,302.53999 C 322.69433,306.88668 318.34339,313.42715 316.68315,316.09935" class="stroke-order" fill="none" stroke="#2563eb" stroke-width="1.6" marker-end="url(#arrowhead)"/><text x="296.47263" y="302.41513" font-size="9" font-family="sans-serif" font-weight="700" fill="#dc2626">2</text><text x="324.0209" y="312.63705" font-size="9" font-family="sans-serif" font-weight="700" fill="#dc2626">1</text>
  </g>
</svg>