<svg xmlns="http://www.w3.org/2000/svg" viewBox="262.5 200.8 77.5 77.5" width="200" height="200">
  <defs>
    <marker id="arrowhead" markerWidth="4" markerHeight="4" refX="1.5" refY="1.5"
            orient="auto-start-reverse" markerUnits="strokeWidth">
      <path d="M 0,0 L 3,1.5 L 0,3 z" fill="#2563eb"/>
    </marker>
  </defs>
  <rect x="262.5" y="200.8" width="77.5" height="77.5" fill="#FAFAFA"/>
  <g transform="">
    <path d="M 302.20765,219.4925 C 302.23888,218.96128 302.52013,218.78941 303.0514,218.97687 L 307.97328,220.14874 C 308.5045,220.36753 308.5045,220.6644 307.97328,221.03937 L 307.1764,221.78937 C 305.95763,226.5394 304.64513,230.64877 303.2389,234.1175 C 301.86388,237.55501 299.92638,241.85188 297.4264,247.00812 C 298.80138,246.91438 300.69201,246.77375 303.09828,246.58624 C 305.53575,246.39875 310.5045,245.75813 318.00452,244.66437 C 316.66074,242.07063 314.83262,239.33626 312.52015,236.46124 L 316.22328,233.78937 C 318.81699,237.19564 320.98886,240.44563 322.7389,243.53937 C 324.48886,246.60188 325.98886,249.33625 327.2389,251.7425 L 327.14515,252.1175 C 325.64511,252.71125 323.92636,253.555 321.9889,254.64874 C 321.27011,252.3675 320.45761,250.18 319.5514,248.08624 C 312.77012,249.14875 307.77012,249.88312 304.5514,250.28937 C 301.36388,250.69562 296.44201,251.47687 289.78577,252.63312 L 289.1764,253.52374 C 288.83264,254.055 288.52014,254.08625 288.2389,253.6175 L 286.1764,248.27374 C 286.1139,247.7425 286.3014,247.57063 286.7389,247.75812 C 287.14514,247.88313 289.03577,247.78938 292.41078,247.47687 C 295.28576,242.00813 297.42638,237.33626 298.83265,233.46124 C 300.23888,229.58627 301.20763,226.39877 301.7389,223.89874 C 302.30138,221.36753 302.45763,219.89878 302.20765,219.4925" fill="#1a1a1a" fill-opacity="0.55"/><path d="M 288.87711,233.34723 C 288.87711,233.34723 277.63519,248.3885 279.92521,254.37378 C 282.21523,260.35906 294.61326,257.18535 300.68694,255.96349" class="stroke-order" fill="none" stroke="#2563eb" stroke-width="1.6" marker-end="url(#arrowhead)"/><path d="M 319.75083,233.15241 C 325.06723,235.18315 327.78905,243.6165 329.56633,247.93726" class="stroke-order" fill="none" stroke="#2563eb" stroke-width="1.6" marker-end="url(#arrowhead)"/><text x="277.89774" y="238.83925" font-size="9" font-family="sans-serif" font-weight="700" fill="#dc2626">1</text><text x="324.62683" y="234.5759" font-size="9" font-family="sans-serif" font-weight="700" fill="#dc2626">2</text>
  </g>
</svg>