<svg xmlns="http://www.w3.org/2000/svg" viewBox="0.2 34.4 87.5 87.5" width="200" height="200">
  <defs>
    <marker id="arrowhead" markerWidth="4" markerHeight="4" refX="1.5" refY="1.5"
            orient="auto-start-reverse" markerUnits="strokeWidth">
      <path d="M 0,0 L 3,1.5 L 0,3 z" fill="#2563eb"/>
    </marker>
  </defs>
  <rect x="0.2" y="34.4" width="87.5" height="87.5" fill="#FAFAFA"/>
  <g transform="">
    <path d="M 32.400538,62.324714 L 30.056788,66.387214 C 33.369278,67.855994 36.619268,70.168514 39.838038,73.293464 C 41.056768,71.699744 42.119258,70.387264 43.025538,69.355964 C 39.744268,66.887244 36.213018,64.543514 32.400538,62.324714 z M 61.494288,68.980964 C 60.119248,73.293484 57.931748,77.106004 54.900538,80.449714 C 51.869258,83.762234 48.213008,86.449754 43.931788,88.512214 C 39.650528,90.574724 36.525518,91.699744 34.588038,91.887214 C 32.681778,92.043474 31.525518,92.074744 31.119288,91.980964 C 30.588028,92.043464 30.369268,92.355984 30.463038,92.887214 L 32.619288,98.137218 C 32.869278,98.480968 33.150518,98.418488 33.463038,97.980968 L 34.088038,97.199718 C 38.244278,96.074714 42.650508,94.262244 47.306788,91.793464 C 51.963008,89.293464 55.869238,86.168494 59.056788,82.387214 C 62.244248,78.605984 64.744238,74.793504 66.525538,70.949714 C 65.056748,70.543494 63.369238,69.887264 61.494288,68.980964 z " fill="#1a1a1a" fill-opacity="0.55"/><path d="M 34.446701,57.999999 L 47.106599,65.949238" class="stroke-order" fill="none" stroke="#2563eb" stroke-width="1.6" marker-end="url(#arrowhead)"/><text x="36.601616" y="57.005466" font-size="9" font-family="sans-serif" font-weight="700" fill="#dc2626">1</text><path d="M 34.741117,102.45685 C 41.160363,101.35062 54.727498,92.892657 59.481273,90.12096" class="stroke-order" fill="none" stroke="#2563eb" stroke-width="1.6" marker-end="url(#arrowhead)"/><text x="27.337442" y="105.30408" font-size="9" font-family="sans-serif" font-weight="700" fill="#dc2626">2</text>
  </g>
</svg>