<svg xmlns="http://www.w3.org/2000/svg" viewBox="397.1 39.5 65.9 65.9" width="200" height="200">
  <defs>
    <marker id="arrowhead" markerWidth="4" markerHeight="4" refX="1.5" refY="1.5"
            orient="auto-start-reverse" markerUnits="strokeWidth">
      <path d="M 0,0 L 3,1.5 L 0,3 z" fill="#2563eb"/>
    </marker>
  </defs>
  <rect x="397.1" y="39.5" width="65.9" height="65.9" fill="#FAFAFA"/>
  <g transform="">
    <path d="M 421.99624,92.810502 C 424.99623,91.716762 427.37123,90.326142 429.12124,88.638632 C 430.87123,86.951142 432.07435,84.888642 432.73062,82.451132 C 433.38685,79.982402 433.76185,77.435522 433.85562,74.810502 L 415.29312,74.810502 L 415.29312,70.638632 L 433.85562,70.638632 C 433.82435,68.232412 433.69935,65.373042 433.48062,62.060502 C 433.4806,61.404292 433.38685,60.841792 433.19937,60.373002 C 433.01185,59.966792 433.13685,59.716792 433.57437,59.623002 L 438.35562,59.810502 C 438.82434,59.935542 438.91809,60.201172 438.63687,60.607382 L 438.12124,61.498002 C 438.27747,65.091792 438.37122,68.138662 438.40249,70.638632 L 454.48062,70.638632 L 454.48062,74.810502 L 438.35562,74.810502 C 438.26184,77.498022 437.85559,80.263652 437.13687,83.107382 C 436.44934,85.919892 435.1681,88.466762 433.29312,90.748002 C 431.44935,93.029262 428.58998,95.248012 424.71499,97.404262 C 423.99623,95.779262 423.08998,94.451132 421.99624,93.419882 L 421.99624,92.810502" fill="#1a1a1a" fill-opacity="0.55"/><path d="M 413.03651,66.99364 L 428.65029,67.201824" class="stroke-order" fill="none" stroke="#2563eb" stroke-width="1.6" marker-end="url(#arrowhead)"/><text x="411.60187" y="64.394737" font-size="9" font-family="sans-serif" font-weight="700" fill="#dc2626">1</text><path d="M 442.95399,56.03134 L 442.53762,67.481445" class="stroke-order" fill="none" stroke="#2563eb" stroke-width="1.6" marker-end="url(#arrowhead)"/><text x="445.89807" y="59.464146" font-size="9" font-family="sans-serif" font-weight="700" fill="#dc2626">2</text>
  </g>
</svg>