<svg xmlns="http://www.w3.org/2000/svg" viewBox="395.6 278.1 72.6 72.6" width="200" height="200">
  <defs>
    <marker id="arrowhead" markerWidth="4" markerHeight="4" refX="1.5" refY="1.5"
            orient="auto-start-reverse" markerUnits="strokeWidth">
      <path d="M 0,0 L 3,1.5 L 0,3 z" fill="#2563eb"/>
    </marker>
  </defs>
  <rect x="395.6" y="278.1" width="72.6" height="72.6" fill="#FAFAFA"/>
  <g transform="">
    <path d="M 431.08406,296.27186 C 430.64654,296.36565 430.52153,296.61566 430.70906,297.02186 C 430.89654,297.49065 430.99028,298.05314 430.99031,298.70936 L 430.99031,304.80311 L 419.27156,304.89686 L 419.24031,305.30311 C 419.58404,306.55313 419.80279,307.86563 419.92781,309.24061 C 426.61529,308.77188 433.08403,308.52188 439.30281,308.45936 C 437.80278,311.74063 435.89653,314.36562 433.58406,316.36561 C 431.30279,318.36562 428.64653,320.14686 425.64656,321.67811 C 422.6778,323.17812 418.9278,324.42811 414.36531,325.45936 L 414.36531,325.99061 C 415.3028,327.33437 415.99029,328.74061 416.45906,330.24061 C 421.20905,328.45936 424.64653,326.95936 426.77156,325.74061 C 428.92779,324.52186 430.33403,323.70937 430.99031,323.30311 L 430.99031,337.17811 L 435.45906,337.17811 L 435.45906,322.08436 L 435.92781,321.24061 C 436.20903,320.89687 436.14652,320.64687 435.77156,320.49061 L 435.08406,320.45936 C 436.08404,319.70937 437.33402,318.61562 438.86531,317.17811 C 440.39653,315.70938 442.27152,312.92812 444.49031,308.83436 L 445.70906,308.17811 C 446.27152,307.83439 446.30276,307.42813 445.80281,306.99061 C 444.27153,305.95938 442.99027,305.08438 441.95906,304.36561 C 441.80278,304.20939 441.67777,304.20939 441.55281,304.36561 L 441.30281,304.70936 L 435.45906,304.74061 L 435.45906,298.27186 L 436.02156,297.33436 C 436.33404,296.9594 436.27153,296.7094 435.83406,296.58436 L 431.08406,296.27186 z M 441.64656,316.92811 L 439.30281,320.39686 C 443.08402,322.14688 446.61526,324.77186 449.92781,328.24061 C 450.89652,326.77187 451.92776,325.45936 452.99031,324.30311 L 452.99031,323.86561 C 449.20902,321.24062 445.42777,318.92812 441.64656,316.92811 z " fill="#1a1a1a" fill-opacity="0.55"/><path d="M 439.47584,292.45661 L 439.47584,301.69246" class="stroke-order" fill="none" stroke="#2563eb" stroke-width="1.6" marker-end="url(#arrowhead)"/><text x="442.20865" y="299.91263" font-size="9" font-family="sans-serif" font-weight="700" fill="#dc2626">1</text><path d="M 416.74619,301.18782 L 426.90355,301.04061" class="stroke-order" fill="none" stroke="#2563eb" stroke-width="1.6" marker-end="url(#arrowhead)"/><text x="414.70111" y="298.94672" font-size="9" font-family="sans-serif" font-weight="700" fill="#dc2626">2</text><path d="M 444.81676,314.43655 L 455.16751,320.61929" class="stroke-order" fill="none" stroke="#2563eb" stroke-width="1.6" marker-end="url(#arrowhead)"/><path d="M 427.26634,326.98189 L 427.34518,336.37056" class="stroke-order" fill="none" stroke="#2563eb" stroke-width="1.6" marker-end="url(#arrowhead)"/><text x="447.72552" y="314.38138" font-size="9" font-family="sans-serif" font-weight="700" fill="#dc2626">4</text><text x="419.20438" y="335.92838" font-size="9" font-family="sans-serif" font-weight="700" fill="#dc2626">3</text>
  </g>
</svg>