<svg xmlns="http://www.w3.org/2000/svg" viewBox="406.5 368.5 54.1 54.1" width="200" height="200">
  <defs>
    <marker id="arrowhead" markerWidth="4" markerHeight="4" refX="1.5" refY="1.5"
            orient="auto-start-reverse" markerUnits="strokeWidth">
      <path d="M 0,0 L 3,1.5 L 0,3 z" fill="#2563eb"/>
    </marker>
  </defs>
  <rect x="406.5" y="368.5" width="54.1" height="54.1" fill="#FAFAFA"/>
  <g transform="">
    <path d="M 442.99503,380.06382 C 442.96383,379.5326 443.24503,379.3451 443.83883,379.50132 L 448.94823,380.57944 C 449.41693,380.79823 449.44813,381.11073 449.04193,381.51694 L 448.24503,382.31382 C 447.74503,385.2826 446.51063,389.03259 444.54193,393.56382 C 442.60443,398.06384 439.93253,402.11071 436.52633,405.70444 C 433.12003,409.2982 427.66693,412.7357 420.16693,416.01694 C 419.60443,414.32944 418.74503,412.78257 417.58883,411.37632 L 417.58883,411.00132 C 423.49503,409.65757 428.27633,407.28258 431.93253,403.87632 C 435.58883,400.47008 438.30753,396.59509 440.08883,392.25132 C 441.90133,387.87635 442.90133,384.8451 443.08883,383.15757 C 443.27633,381.4701 443.24503,380.43885 442.99503,380.06382" fill="#1a1a1a" fill-opacity="0.55"/><path d="M 438.89134,380.34586 C 437.40095,388.7912 432.98489,393.09558 429.6912,396.75666" class="stroke-order" fill="none" stroke="#2563eb" stroke-width="1.6" marker-end="url(#arrowhead)"/><text x="429.71188" y="387.05252" font-size="9" font-family="sans-serif" font-weight="700" fill="#dc2626">1</text>
  </g>
</svg>