<svg xmlns="http://www.w3.org/2000/svg" viewBox="395.2 198.0 67.8 67.8" width="200" height="200">
  <defs>
    <marker id="arrowhead" markerWidth="4" markerHeight="4" refX="1.5" refY="1.5"
            orient="auto-start-reverse" markerUnits="strokeWidth">
      <path d="M 0,0 L 3,1.5 L 0,3 z" fill="#2563eb"/>
    </marker>
  </defs>
  <rect x="395.2" y="198.0" width="67.8" height="67.8" fill="#FAFAFA"/>
  <g transform="">
    <path d="M 420.72968,223.80328 C 428.63591,223.64706 436.54215,223.31894 444.44843,222.8189 L 444.6828,222.4439 C 444.80777,222.28769 444.94839,222.28769 445.10468,222.4439 C 446.16714,223.25644 447.32339,224.28768 448.57343,225.53766 C 449.13589,225.91268 449.07339,226.31893 448.38593,226.7564 L 447.54218,227.27203 C 446.29214,231.1158 444.0734,235.41267 440.88593,240.16266 C 444.0109,242.53767 447.02652,245.06891 449.9328,247.7564 L 449.9328,248.17828 C 448.55777,249.24078 447.40152,250.50641 446.46406,251.97516 C 443.83902,248.69391 441.10465,245.85016 438.26093,243.4439 C 436.47965,245.38141 434.08903,247.42829 431.08906,249.58453 C 428.12029,251.74078 424.21404,253.81891 419.3703,255.8189 C 418.71405,254.2564 417.90155,252.83453 416.9328,251.55328 L 416.9328,251.03766 C 421.12029,250.19391 424.65154,248.83454 427.52656,246.95953 C 430.43278,245.08454 432.88591,243.02204 434.88593,240.77203 C 432.32341,238.95955 429.58903,237.35017 426.6828,235.9439 L 428.79218,232.24078 C 431.94841,234.0533 434.80778,235.85017 437.3703,237.6314 C 439.99527,233.94393 441.68277,230.39705 442.4328,226.99078 C 435.96403,227.24081 428.99529,227.67831 421.52656,228.30328 C 421.30779,226.58456 420.99529,225.19393 420.58906,224.1314 L 420.72968,223.80328" fill="#1a1a1a" fill-opacity="0.55"/><path d="M 417.04061,220.81218 L 428.81726,220.22335" class="stroke-order" fill="none" stroke="#2563eb" stroke-width="1.6" marker-end="url(#arrowhead)"/><text x="415.83173" y="218.2301" font-size="9" font-family="sans-serif" font-weight="700" fill="#dc2626">1</text><path d="M 435.80965,250.54823 C 432.36866,255.00127 427.84201,256.25254 424.54823,257.61421" class="stroke-order" fill="none" stroke="#2563eb" stroke-width="1.6" marker-end="url(#arrowhead)"/><path d="M 420.32294,236.3511 L 429.89938,241.86796" class="stroke-order" fill="none" stroke="#2563eb" stroke-width="1.6" marker-end="url(#arrowhead)"/><text x="414.27036" y="239.15257" font-size="9" font-family="sans-serif" font-weight="700" fill="#dc2626">2</text>
  </g>
</svg>