<svg xmlns="http://www.w3.org/2000/svg" viewBox="653.2 356.6 68.1 68.1" width="200" height="200">
  <defs>
    <marker id="arrowhead" markerWidth="4" markerHeight="4" refX="1.5" refY="1.5"
            orient="auto-start-reverse" markerUnits="strokeWidth">
      <path d="M 0,0 L 3,1.5 L 0,3 z" fill="#2563eb"/>
    </marker>
  </defs>
  <rect x="653.2" y="356.6" width="68.1" height="68.1" fill="#FAFAFA"/>
  <g transform="">
    <path d="M 692.62949,376.48477 L 697.03579,376.67227 C 697.41069,376.79731 697.47319,377.04731 697.22329,377.42227 L 696.70759,378.26602 L 696.70759,386.04727 L 710.95759,386.04727 L 710.95759,390.21914 L 696.70759,390.21914 L 696.70759,410.04727 C 696.73889,411.32852 696.72319,412.40665 696.66079,413.28164 C 696.59819,414.15664 696.19199,414.92227 695.44199,415.57852 C 694.72319,416.26602 693.52009,416.50039 691.83259,416.28164 C 690.17639,416.09414 688.14509,415.67227 685.73889,415.01602 C 686.23889,413.60977 686.62949,412.15665 686.91079,410.65664 L 687.19199,410.46914 C 688.66069,411.15665 689.78569,411.54727 690.56699,411.64102 C 691.34819,411.73477 691.81699,411.67227 691.97329,411.45352 C 692.16069,411.20352 692.25449,410.78165 692.25449,410.1879 L 692.25449,393.07852 C 690.25449,396.23479 687.67639,399.42228 684.52009,402.64102 C 681.39509,405.85978 677.39509,409.3754 672.52009,413.1879 C 671.61389,411.53165 670.61389,410.23477 669.52014,409.29727 L 669.52014,408.92227 C 673.83259,406.48478 677.75449,403.43791 681.28579,399.78164 C 684.81699,396.12541 687.23889,392.93792 688.55139,390.21914 L 670.27014,390.21914 L 670.27014,386.04727 L 692.25449,386.04727 L 692.25449,379.39102 C 692.25449,378.32856 692.16069,377.60981 691.97329,377.23477 C 691.84819,376.67231 692.06699,376.42231 692.62949,376.48477" fill="#1a1a1a" fill-opacity="0.55"/><path d="M 670.533,383.03553 L 685.98985,382.88832" class="stroke-order" fill="none" stroke="#2563eb" stroke-width="1.6" marker-end="url(#arrowhead)"/><path d="M 700.82522,373.63947 L 700.67801,383.79683" class="stroke-order" fill="none" stroke="#2563eb" stroke-width="1.6" marker-end="url(#arrowhead)"/><path d="M 683.3401,392.45685 C 680.9532,395.63969 674.09756,401.27671 670.87793,403.73091" class="stroke-order" fill="none" stroke="#2563eb" stroke-width="1.6" marker-end="url(#arrowhead)"/><text x="669.53705" y="381.05704" font-size="9" font-family="sans-serif" font-weight="700" fill="#dc2626">1</text><text x="703.05463" y="376.89337" font-size="9" font-family="sans-serif" font-weight="700" fill="#dc2626">2</text><text x="669.95337" y="397.71176" font-size="9" font-family="sans-serif" font-weight="700" fill="#dc2626">3</text>
  </g>
</svg>