<svg xmlns="http://www.w3.org/2000/svg" viewBox="134.9 33.8 73.3 73.3" width="200" height="200">
  <defs>
    <marker id="arrowhead" markerWidth="4" markerHeight="4" refX="1.5" refY="1.5"
            orient="auto-start-reverse" markerUnits="strokeWidth">
      <path d="M 0,0 L 3,1.5 L 0,3 z" fill="#2563eb"/>
    </marker>
  </defs>
  <rect x="134.9" y="33.8" width="73.3" height="73.3" fill="#FAFAFA"/>
  <g transform="">
    <path d="M 165.30348,58.526321 L 165.30348,62.620071 L 187.70973,62.620071 L 187.70973,58.526321 L 165.30348,58.526321 z M 190.77223,68.370071 C 190.70192,68.370071 190.64721,68.385701 190.58473,68.463821 L 190.42848,68.620071 L 160.02223,68.620071 L 160.02223,72.588821 L 188.42848,72.588821 C 188.3347,74.557591 187.80344,76.620111 186.83473,78.745071 C 185.86595,80.838831 184.49094,82.745111 182.74098,84.495071 C 181.0222,86.213821 178.74095,87.745101 175.86598,89.057571 C 172.99097,90.338821 168.99095,91.151351 163.89723,91.526321 L 163.89723,91.870071 C 164.58472,93.557571 165.02221,95.182591 165.20973,96.745071 C 171.45971,95.370071 176.0847,93.901341 179.08473,92.338821 C 182.0847,90.745071 184.64719,88.776351 186.74098,86.432571 C 188.8347,84.088831 190.36593,81.807601 191.36598,79.588821 C 192.36594,77.338841 192.99093,75.182581 193.24098,73.120071 L 194.05348,72.401321 C 194.55344,71.995101 194.55343,71.526341 194.08473,70.995071 C 192.83469,69.932591 191.80343,69.088841 190.99098,68.463821 C 190.91284,68.385711 190.84254,68.370071 190.77223,68.370071 z " fill="#1a1a1a" fill-opacity="0.55"/><path d="M 165.50606,54.918984 L 181.95257,54.918984" class="stroke-order" fill="none" stroke="#2563eb" stroke-width="1.6" marker-end="url(#arrowhead)"/><text x="159.5204" y="56.239838" font-size="9" font-family="sans-serif" font-weight="700" fill="#dc2626">1</text><path d="M 155.01014,65.507613 L 170.02537,65.507613" class="stroke-order" fill="none" stroke="#2563eb" stroke-width="1.6" marker-end="url(#arrowhead)"/><text x="149.81461" y="67.589211" font-size="9" font-family="sans-serif" font-weight="700" fill="#dc2626">2</text><path d="M 187.98477,65.507613 C 187.98477,65.507613 194.86676,64.18274 197.11168,66.832486 C 199.35661,69.482232 196.84513,75.531609 195.92355,78.292527" class="stroke-order" fill="none" stroke="#2563eb" stroke-width="1.6" marker-end="url(#arrowhead)"/>
  </g>
</svg>