<svg xmlns="http://www.w3.org/2000/svg" viewBox="137.8 289.3 64.7 64.7" width="200" height="200">
  <defs>
    <marker id="arrowhead" markerWidth="4" markerHeight="4" refX="1.5" refY="1.5"
            orient="auto-start-reverse" markerUnits="strokeWidth">
      <path d="M 0,0 L 3,1.5 L 0,3 z" fill="#2563eb"/>
    </marker>
  </defs>
  <rect x="137.8" y="289.3" width="64.7" height="64.7" fill="#FAFAFA"/>
  <g transform="">
    <path d="M 164.12762,331.445 L 164.12762,330.97624 L 165.44012,330.74187 L 165.44012,303.41374 C 165.44011,302.75753 165.34636,302.19503 165.15887,301.72624 C 164.97136,301.32003 165.09636,301.07003 165.53387,300.97624 L 170.12762,301.16374 C 170.53385,301.28878 170.61198,301.57003 170.36199,302.0075 L 169.89325,302.89812 L 169.89325,329.66374 C 171.95573,329.10125 174.09635,328.2575 176.31512,327.1325 C 178.56509,326.0075 180.98697,324.19501 183.58075,321.695 C 186.20571,319.16376 188.22133,316.08564 189.62762,312.46062 L 190.14325,312.36687 C 191.67446,313.33564 193.17445,314.11689 194.64325,314.71062 C 192.58071,318.08564 190.22133,321.17938 187.56512,323.99187 C 184.94009,326.77313 181.94009,329.05438 178.56512,330.83562 C 175.1901,332.58562 171.1901,334.1325 166.56512,335.47624 C 165.94011,333.97625 165.12761,332.6325 164.12762,331.445" fill="#1a1a1a" fill-opacity="0.55"/><path d="M 160.09328,319.10413 C 160.14533,324.51691 158.18978,337.56998 162.28878,339.65118 C 167.67077,342.3838 174.65045,337.66089 178.25578,335.45178" class="stroke-order" fill="none" stroke="#2563eb" stroke-width="1.6" marker-end="url(#arrowhead)"/><text x="151.61984" y="328.61816" font-size="9" font-family="sans-serif" font-weight="700" fill="#dc2626">1</text>
  </g>
</svg>