<svg xmlns="http://www.w3.org/2000/svg" viewBox="136.5 117.8 73.7 73.7" width="200" height="200">
  <defs>
    <marker id="arrowhead" markerWidth="4" markerHeight="4" refX="1.5" refY="1.5"
            orient="auto-start-reverse" markerUnits="strokeWidth">
      <path d="M 0,0 L 3,1.5 L 0,3 z" fill="#2563eb"/>
    </marker>
  </defs>
  <rect x="136.5" y="117.8" width="73.7" height="73.7" fill="#FAFAFA"/>
  <g transform="">
    <text x="151.40292" y="145.9881" font-size="9" font-family="sans-serif" font-weight="700" fill="#dc2626">1</text><path d="M 181.25809,137.36485 C 180.82056,137.45863 180.69555,137.70863 180.88309,138.11485 C 181.07056,138.58363 181.1643,139.14613 181.16434,139.80235 L 181.16434,151.5836 C 181.16431,156.67737 180.8518,160.39614 180.19559,162.7711 C 179.57056,165.14611 178.07056,167.33363 175.69559,169.30235 C 173.35182,171.2711 170.44557,172.67738 166.97684,173.55235 L 166.97684,174.0836 C 168.13308,175.17735 169.03931,176.48987 169.72684,178.05235 C 174.57056,175.73984 178.1018,173.39613 180.32059,171.0211 C 182.53931,168.61486 184.00805,166.05238 184.69559,163.30235 C 185.38306,160.52111 185.7268,156.61486 185.72684,151.5836 L 185.72684,139.23985 L 186.19559,138.17735 C 186.41431,137.92739 186.32055,137.70863 185.91434,137.5211 L 181.25809,137.36485 z M 163.16434,139.23985 C 162.72683,139.33363 162.60182,139.58363 162.78934,139.98985 C 162.97683,140.45863 163.07057,141.02113 163.07059,141.67735 L 163.07059,162.30235 L 167.63309,162.30235 L 167.63309,141.0836 L 168.19559,140.1461 C 168.47683,139.80238 168.41432,139.55238 168.00809,139.42735 L 163.16434,139.23985 z " fill="#1a1a1a" fill-opacity="0.55"/><path d="M 158.21963,140.06613 L 158.21963,155.47172" class="stroke-order" fill="none" stroke="#2563eb" stroke-width="1.6" marker-end="url(#arrowhead)"/><path d="M 191.52902,137.56792 L 191.52902,154.63899" class="stroke-order" fill="none" stroke="#2563eb" stroke-width="1.6" marker-end="url(#arrowhead)"/><text x="195.24463" y="143.19493" font-size="9" font-family="sans-serif" font-weight="700" fill="#dc2626">2</text>
  </g>
</svg>