<svg xmlns="http://www.w3.org/2000/svg" viewBox="140.9 200.7 66.3 66.3" width="200" height="200">
  <defs>
    <marker id="arrowhead" markerWidth="4" markerHeight="4" refX="1.5" refY="1.5"
            orient="auto-start-reverse" markerUnits="strokeWidth">
      <path d="M 0,0 L 3,1.5 L 0,3 z" fill="#2563eb"/>
    </marker>
  </defs>
  <rect x="140.9" y="200.7" width="66.3" height="66.3" fill="#FAFAFA"/>
  <g transform="">
    <path d="M 178.13182,220.91481 C 177.6943,221.0086 177.56929,221.25859 177.75682,221.66481 C 177.9443,222.1336 178.03804,222.69609 178.03807,223.35231 L 178.03807,249.78981 L 176.35057,250.44606 L 176.35057,250.91481 C 177.22555,251.60232 178.06929,252.72734 178.88182,254.28981 C 183.81929,251.97732 187.75678,249.47734 190.69432,246.78981 C 193.63178,244.07108 196.44427,240.57109 199.13182,236.25856 C 197.81928,235.35233 196.50677,234.38357 195.16307,233.35231 L 194.63182,233.44606 C 192.69428,237.97733 190.63177,241.22734 188.44432,243.19606 C 186.28804,245.13357 184.31928,246.60234 182.50682,247.63356 L 182.50682,222.78981 L 182.97557,221.94606 C 183.28804,221.53984 183.22553,221.25859 182.81932,221.10231 L 178.13182,220.91481 z M 166.94432,223.72731 C 166.50681,223.8211 166.3818,224.07109 166.56932,224.47731 C 166.78806,224.94609 166.8818,225.50858 166.88182,226.16481 C 167.00681,232.85234 166.16305,238.1336 164.35057,242.00856 C 162.53806,245.85231 159.6943,249.03984 155.81932,251.53981 L 155.81932,252.10231 C 157.03807,252.78981 158.22555,253.85233 159.38182,255.28981 C 163.44431,251.57106 166.4443,247.47734 168.38182,243.00856 C 170.3193,238.53983 171.28805,232.72733 171.25682,225.60231 L 171.72557,224.63356 C 171.9443,224.35234 171.8818,224.13359 171.53807,224.00856 L 166.94432,223.72731 z " fill="#1a1a1a" fill-opacity="0.55"/><path d="M 163.54822,225.67005 C 163.50547,232.84449 157.96324,241.42407 155.68522,244.87115" class="stroke-order" fill="none" stroke="#2563eb" stroke-width="1.6" marker-end="url(#arrowhead)"/><path d="M 185.21207,222.01907 L 185.31616,237.94513 L 193.8517,229.61778" class="stroke-order" fill="none" stroke="#2563eb" stroke-width="1.6" marker-end="url(#arrowhead)"/><text x="154.89285" y="231.81256" font-size="9" font-family="sans-serif" font-weight="700" fill="#dc2626">1</text><text x="187.47038" y="224.34244" font-size="9" font-family="sans-serif" font-weight="700" fill="#dc2626">2</text>
  </g>
</svg>