<svg xmlns="http://www.w3.org/2000/svg" viewBox="520.8 36.0 70.8 70.8" width="200" height="200">
  <defs>
    <marker id="arrowhead" markerWidth="4" markerHeight="4" refX="1.5" refY="1.5"
            orient="auto-start-reverse" markerUnits="strokeWidth">
      <path d="M 0,0 L 3,1.5 L 0,3 z" fill="#2563eb"/>
    </marker>
  </defs>
  <rect x="520.8" y="36.0" width="70.8" height="70.8" fill="#FAFAFA"/>
  <g transform="">
    <path d="M 541.15833,71.058554 L 551.09583,71.058554 C 551.06457,68.652334 551.06457,66.167954 551.09583,63.605424 C 551.09582,62.949214 551.00207,62.386714 550.81458,61.917924 C 550.62707,61.511714 550.75207,61.261714 551.18958,61.167924 L 555.92395,61.542924 C 556.26769,61.761714 556.26769,62.027334 555.92395,62.339804 L 555.36145,63.136684 C 555.33019,65.917954 555.33019,68.558584 555.36145,71.058554 L 567.78333,71.058554 L 567.78333,61.449184 C 567.7833,60.792964 567.68955,60.230464 567.50208,59.761684 C 567.31455,59.355464 567.43955,59.105464 567.87708,59.011684 L 572.79895,59.386684 C 573.14267,59.636714 573.12704,59.933594 572.75208,60.277304 L 572.23645,61.027304 L 572.23645,71.058554 L 582.97083,71.058554 L 582.97083,75.042924 L 572.23645,75.042924 L 572.23645,75.277304 C 572.23642,78.683574 571.86142,81.699194 571.11145,84.324184 C 570.39267,86.917934 569.18955,89.214814 567.50208,91.214804 C 565.81455,93.214804 562.62706,95.464804 557.93958,97.964804 C 557.40831,96.621054 556.54894,95.324184 555.36145,94.074184 L 555.36145,93.558554 C 558.54894,92.496054 561.09581,91.183554 563.00208,89.621054 C 564.9083,88.027314 566.17393,86.074184 566.79895,83.761684 C 567.45518,81.449194 567.7833,78.621074 567.78333,75.277304 L 567.78333,75.042924 L 555.4552,75.042924 C 555.54894,78.636694 555.70519,81.949194 555.92395,84.980424 L 551.47083,85.636684 C 551.28332,82.292944 551.15832,78.761694 551.09583,75.042924 L 541.15833,75.042924 L 541.15833,71.058554" fill="#1a1a1a" fill-opacity="0.55"/><path d="M 535.65672,67.930467 L 548.6682,68.034559" class="stroke-order" fill="none" stroke="#2563eb" stroke-width="1.6" marker-end="url(#arrowhead)"/><text x="535.36383" y="65.572403" font-size="9" font-family="sans-serif" font-weight="700" fill="#dc2626">1</text><path d="M 559.16788,58.007396 L 559.4623,68.606381" class="stroke-order" fill="none" stroke="#2563eb" stroke-width="1.6" marker-end="url(#arrowhead)"/><text x="556.7027" y="56.828686" font-size="9" font-family="sans-serif" font-weight="700" fill="#dc2626">2</text><path d="M 576.24515,57.962905 L 576.24515,68.476183" class="stroke-order" fill="none" stroke="#2563eb" stroke-width="1.6" marker-end="url(#arrowhead)"/><text x="573.55823" y="56.792969" font-size="9" font-family="sans-serif" font-weight="700" fill="#dc2626">3</text>
  </g>
</svg>