<svg xmlns="http://www.w3.org/2000/svg" viewBox="518.6 275.6 76.1 76.1" width="200" height="200">
  <defs>
    <marker id="arrowhead" markerWidth="4" markerHeight="4" refX="1.5" refY="1.5"
            orient="auto-start-reverse" markerUnits="strokeWidth">
      <path d="M 0,0 L 3,1.5 L 0,3 z" fill="#2563eb"/>
    </marker>
  </defs>
  <rect x="518.6" y="275.6" width="76.1" height="76.1" fill="#FAFAFA"/>
  <g transform="">
    <path d="M 549.63176,328.44967 L 549.63176,315.32467 C 546.038,315.88719 542.50675,316.44969 539.03801,317.01217 C 538.85051,315.23094 538.52238,313.79344 538.05364,312.69967 L 538.14738,312.32467 C 541.95988,312.01219 545.788,311.65282 549.63176,311.24655 L 549.63176,303.09029 C 549.63175,302.43408 549.538,301.87158 549.35051,301.40279 C 549.163,300.99658 549.288,300.74658 549.72551,300.65279 L 554.74114,300.98092 C 555.11612,301.13721 555.17862,301.40283 554.92864,301.77779 L 554.17864,302.85592 L 554.17864,310.73092 C 560.58486,309.9497 567.03798,309.04345 573.53801,308.01217 L 573.63176,307.91842 C 573.75672,307.7622 573.89735,307.7622 574.05364,307.91842 C 575.08485,308.66845 576.42859,309.68407 578.08488,310.96529 C 578.70984,311.52782 578.64734,311.99657 577.89738,312.37155 L 576.81926,312.69967 C 573.35047,316.79344 569.75673,320.71531 566.03801,324.46529 C 564.97548,322.96531 563.95986,321.80906 562.99114,320.99655 L 562.99114,320.66842 C 566.27235,318.29344 569.16298,315.46532 571.66301,312.18405 C 565.66298,312.99657 559.83486,313.82469 554.17864,314.66842 L 554.17864,328.30905 C 554.17862,330.6528 555.13174,331.82467 557.03801,331.82467 L 575.45988,331.82467 L 574.80364,336.09029 L 557.13176,336.09029 C 552.13174,336.0903 549.63175,333.54342 549.63176,328.44967" fill="#1a1a1a" fill-opacity="0.55"/><path d="M 535.55263,308.69494 L 546.27409,307.75812" class="stroke-order" fill="none" stroke="#2563eb" stroke-width="1.6" marker-end="url(#arrowhead)"/><text x="533.77209" y="306.24258" font-size="9" font-family="sans-serif" font-weight="700" fill="#dc2626">1</text><text x="561.61499" y="303.13467" font-size="9" font-family="sans-serif" font-weight="700" fill="#dc2626">2</text><path d="M 558.14056,297.55711 L 558.03647,307.13356" class="stroke-order" fill="none" stroke="#2563eb" stroke-width="1.6" marker-end="url(#arrowhead)"/><path d="M 571.56841,305.46809 C 574.64205,305.04433 578.17471,303.98436 580.6244,306.7172 C 585.39094,312.03468 579.31793,316.24932 576.72338,318.936" class="stroke-order" fill="none" stroke="#2563eb" stroke-width="1.6" marker-end="url(#arrowhead)"/>
  </g>
</svg>