<svg xmlns="http://www.w3.org/2000/svg" viewBox="513.4 116.3 83.1 83.1" width="200" height="200">
  <defs>
    <marker id="arrowhead" markerWidth="4" markerHeight="4" refX="1.5" refY="1.5"
            orient="auto-start-reverse" markerUnits="strokeWidth">
      <path d="M 0,0 L 3,1.5 L 0,3 z" fill="#2563eb"/>
    </marker>
  </defs>
  <rect x="513.4" y="116.3" width="83.1" height="83.1" fill="#FAFAFA"/>
  <g transform="">
    <path d="M 547.98723,139.6531 L 545.83098,143.37185 C 549.61222,144.65313 553.08095,146.80937 556.23723,149.87185 C 557.14346,148.43437 558.0497,147.09064 558.95598,145.80935 C 555.67471,143.46563 552.01845,141.40314 547.98723,139.6531 z M 543.11223,150.3406 L 540.95598,154.05935 C 544.73722,155.34062 548.20596,157.49686 551.36223,160.55935 C 552.26846,159.12186 553.1747,157.77813 554.08098,156.49685 C 550.79971,154.15312 547.14346,152.09063 543.11223,150.3406 z M 575.42473,150.43435 C 573.83095,154.12187 571.45593,157.59062 568.33098,160.8406 C 565.20595,164.05937 561.5497,166.62187 557.33098,168.5281 C 553.14347,170.40311 550.14346,171.46562 548.36223,171.68435 C 546.58097,171.9031 545.42471,171.96561 544.89348,171.9031 C 544.36222,171.96561 544.20596,172.24685 544.42473,172.74685 L 546.20598,177.4031 C 546.45597,177.9031 546.76846,177.90309 547.11223,177.43435 L 547.67473,176.6531 C 551.92472,175.55935 556.2997,173.87186 560.83098,171.5906 C 565.39345,169.27811 569.26844,166.34061 572.42473,162.80935 C 575.58094,159.27811 578.01843,155.99688 579.76848,152.9656 C 578.33094,152.34063 576.89343,151.49687 575.42473,150.43435 z " fill="#1a1a1a" fill-opacity="0.55"/><path d="M 546.39471,135.27685 C 547.57237,135.57127 557.72973,141.31239 557.72973,141.31239" class="stroke-order" fill="none" stroke="#2563eb" stroke-width="1.6" marker-end="url(#arrowhead)"/><path d="M 541.81339,145.52045 L 551.97075,151.70319" class="stroke-order" fill="none" stroke="#2563eb" stroke-width="1.6" marker-end="url(#arrowhead)"/><path d="M 553.30915,179.50333 C 559.13325,178.26884 564.11957,174.75893 569.94367,170.81805" class="stroke-order" fill="none" stroke="#2563eb" stroke-width="1.6" marker-end="url(#arrowhead)"/><text x="540.64099" y="138.33888" font-size="9" font-family="sans-serif" font-weight="700" fill="#dc2626">1</text><text x="536.2168" y="147.81122" font-size="9" font-family="sans-serif" font-weight="700" fill="#dc2626">2</text><text x="546.96503" y="183.30019" font-size="9" font-family="sans-serif" font-weight="700" fill="#dc2626">3</text>
  </g>
</svg>