<svg xmlns="http://www.w3.org/2000/svg" viewBox="534.9 362.4 63.2 63.2" width="200" height="200">
  <defs>
    <marker id="arrowhead" markerWidth="4" markerHeight="4" refX="1.5" refY="1.5"
            orient="auto-start-reverse" markerUnits="strokeWidth">
      <path d="M 0,0 L 3,1.5 L 0,3 z" fill="#2563eb"/>
    </marker>
  </defs>
  <rect x="534.9" y="362.4" width="63.2" height="63.2" fill="#FAFAFA"/>
  <g transform="">
    <path d="M 572.51523,382.37734 C 572.16373,382.38907 571.96063,382.60393 571.89023,383.00234 C 572.14023,383.37737 572.10893,384.81488 571.76523,387.31484 C 571.42153,389.81487 570.57773,392.97112 569.23403,396.81484 C 567.89023,400.62736 565.39023,404.06486 561.73403,407.09609 C 558.10893,410.0961 553.85903,412.1586 548.98403,413.28359 L 548.98403,413.65859 C 549.98403,414.93984 550.70283,416.34608 551.14023,417.90859 C 557.60903,415.37734 562.57773,412.4711 566.07783,409.15859 C 569.57783,405.8461 572.10893,402.06485 573.64023,397.84609 C 575.20283,393.62736 576.29653,389.28362 576.95283,384.81484 L 577.67153,384.03359 C 578.04643,383.65862 578.01523,383.37737 577.57783,383.22109 L 572.92153,382.43984 C 572.77313,382.40078 572.63243,382.37343 572.51523,382.37734 z M 548.14023,384.03359 L 544.67153,386.68984 C 547.51523,389.84612 549.79653,393.15862 551.54653,396.62734 C 553.10903,395.34612 554.51523,394.34612 555.73403,393.62734 C 553.45273,390.28362 550.92163,387.09613 548.14023,384.03359 z " fill="#1a1a1a" fill-opacity="0.55"/><path d="M 550.64595,381.45516 L 558.14056,390.92751" class="stroke-order" fill="none" stroke="#2563eb" stroke-width="1.6" marker-end="url(#arrowhead)"/><path d="M 581.35305,384.682 C 581.76942,391.96843 576.22652,401.5709 573.85843,406.12492" class="stroke-order" fill="none" stroke="#2563eb" stroke-width="1.6" marker-end="url(#arrowhead)"/><text x="553.37299" y="382.05612" font-size="9" font-family="sans-serif" font-weight="700" fill="#dc2626">1</text><text x="582.31055" y="396.94125" font-size="9" font-family="sans-serif" font-weight="700" fill="#dc2626">2</text>
  </g>
</svg>