<svg xmlns="http://www.w3.org/2000/svg" viewBox="528.3 201.9 65.0 65.0" width="200" height="200">
  <defs>
    <marker id="arrowhead" markerWidth="4" markerHeight="4" refX="1.5" refY="1.5"
            orient="auto-start-reverse" markerUnits="strokeWidth">
      <path d="M 0,0 L 3,1.5 L 0,3 z" fill="#2563eb"/>
    </marker>
  </defs>
  <rect x="528.3" y="201.9" width="65.0" height="65.0" fill="#FAFAFA"/>
  <g transform="">
    <path d="M 545.86192,223.37313 C 553.26816,223.49816 560.84628,223.31066 568.5963,222.81063 L 568.87755,222.57626 C 569.00252,222.42004 569.14314,222.42004 569.29942,222.57626 C 570.61189,223.57629 571.81501,224.46691 572.9088,225.24813 C 573.44001,225.68566 573.37751,226.12316 572.7213,226.56063 L 571.73692,227.21688 C 570.67439,230.1544 569.62752,232.4669 568.5963,234.15438 C 567.56502,235.81065 566.72127,237.07627 566.06505,237.95126 C 569.81502,240.73252 572.72126,243.09189 574.7838,245.02938 C 576.87751,246.93564 579.03376,248.84189 581.25255,250.74813 L 581.25255,251.17 C 579.94001,252.20126 578.69001,253.49813 577.50255,255.06063 C 575.15876,252.06063 572.97126,249.56063 570.94005,247.56063 C 568.94002,245.52939 566.45565,243.37314 563.48692,241.09188 C 562.83065,241.77939 561.6744,242.95127 560.01818,244.6075 C 558.3619,246.26376 556.08066,248.04501 553.17442,249.95126 C 550.29941,251.82626 546.67442,253.81063 542.29942,255.90438 C 541.83067,254.18563 541.14317,252.68563 540.23692,251.40438 L 540.23692,250.88876 C 543.76817,249.73251 546.89316,248.40439 549.61192,246.90438 C 552.36191,245.40439 554.98691,243.49814 557.48692,241.18563 C 560.01815,238.8419 562.01815,236.54502 563.48692,234.295 C 564.9869,232.04503 566.19002,229.56065 567.0963,226.84188 L 546.61192,228.01376 C 546.54942,226.45128 546.25254,225.04503 545.7213,223.795 L 545.86192,223.37313" fill="#1a1a1a" fill-opacity="0.55"/><path d="M 556.79903,219.19163 C 556.79903,219.19163 571.88768,217.2873 575.31026,220.12106 C 578.73285,222.95481 574.79133,230.73573 573.40395,234.27395" class="stroke-order" fill="none" stroke="#2563eb" stroke-width="1.6" marker-end="url(#arrowhead)"/><text x="551.29657" y="221.78709" font-size="9" font-family="sans-serif" font-weight="700" fill="#dc2626">1</text><path d="M 563.24106,245.09482 L 571.36023,253.73444" class="stroke-order" fill="none" stroke="#2563eb" stroke-width="1.6" marker-end="url(#arrowhead)"/><text x="558.89526" y="253.01463" font-size="9" font-family="sans-serif" font-weight="700" fill="#dc2626">2</text>
  </g>
</svg>