<svg xmlns="http://www.w3.org/2000/svg" viewBox="460.8 37.6 67.9 67.9" width="200" height="200">
  <defs>
    <marker id="arrowhead" markerWidth="4" markerHeight="4" refX="1.5" refY="1.5"
            orient="auto-start-reverse" markerUnits="strokeWidth">
      <path d="M 0,0 L 3,1.5 L 0,3 z" fill="#2563eb"/>
    </marker>
  </defs>
  <rect x="460.8" y="37.6" width="67.9" height="67.9" fill="#FAFAFA"/>
  <g transform="">
    <path d="M 490.98978,58.370028 C 491.02101,57.838818 491.30226,57.666948 491.83353,57.854408 L 496.1929,58.698158 C 496.66163,58.885698 496.69288,59.166938 496.28665,59.541908 L 495.53665,60.198158 C 495.06788,61.510688 494.58351,62.760688 494.08353,63.948158 L 507.53665,63.948158 L 507.67728,63.760658 C 507.80224,63.604438 507.94287,63.604438 508.09915,63.760658 C 509.06787,64.448188 510.16162,65.260688 511.3804,66.198158 C 511.88037,66.573188 511.86474,66.995058 511.33353,67.463788 L 510.58353,67.885658 C 510.42724,70.010678 509.97412,72.260678 509.22415,74.635658 C 508.50537,77.010678 507.271,79.479418 505.52103,82.041908 C 506.11475,82.510668 506.7085,82.995048 507.30228,83.495028 C 506.146,84.776288 505.021,86.135668 503.92728,87.573158 C 503.4585,87.010668 502.97412,86.479418 502.47415,85.979408 C 500.72413,87.916918 498.4585,89.838788 495.67728,91.745028 C 492.92726,93.651288 488.77101,95.479408 483.20853,97.229408 C 482.70852,95.635658 482.03665,94.213778 481.1929,92.963788 L 481.1929,92.541908 C 485.84914,91.791908 489.61476,90.495038 492.48978,88.651288 C 495.36476,86.807538 497.67725,84.901288 499.42728,82.932528 C 498.67725,82.276298 497.56788,81.401298 496.09915,80.307528 C 494.63038,79.182548 492.31789,77.838798 489.16165,76.276288 L 491.3179,72.807528 C 494.59913,74.495048 497.03663,75.885678 498.6304,76.979408 C 500.22413,78.073178 501.36475,78.870048 502.05228,79.370028 C 503.2085,77.557548 504.11475,75.651298 504.77103,73.651288 C 505.42725,71.651308 505.84912,69.682558 506.03665,67.745028 L 492.30228,67.745028 C 491.58351,69.120058 490.50539,70.838808 489.0679,72.901288 C 487.63039,74.963798 485.39602,77.666928 482.36478,81.010658 C 481.39602,79.791918 480.2554,78.651298 478.9429,77.588788 L 478.9429,77.354408 C 481.7554,75.010678 484.13039,72.448178 486.0679,69.666908 C 488.00539,66.885688 489.36476,64.416938 490.14603,62.260658 C 490.95851,60.073188 491.23976,58.776318 490.98978,58.370028" fill="#1a1a1a" fill-opacity="0.55"/><path d="M 487.77446,58.562199 C 485.95285,62.413598 480.27985,69.986281 477.78164,73.239152" class="stroke-order" fill="none" stroke="#2563eb" stroke-width="1.6" marker-end="url(#arrowhead)"/><text x="478.09988" y="62.922657" font-size="9" font-family="sans-serif" font-weight="700" fill="#dc2626">1</text><path d="M 502.1269,60.208121 C 502.1269,60.208121 511.87945,57.889593 514.6396,61.680202 C 517.39975,65.470811 514.36827,72.05206 513.16751,75.370557" class="stroke-order" fill="none" stroke="#2563eb" stroke-width="1.6" marker-end="url(#arrowhead)"/><text x="508.04092" y="57.798676" font-size="9" font-family="sans-serif" font-weight="700" fill="#dc2626">2</text><path d="M 487.03319,78.834856 L 494.73599,84.039449" class="stroke-order" fill="none" stroke="#2563eb" stroke-width="1.6" marker-end="url(#arrowhead)"/><text x="482.36893" y="87.727226" font-size="9" font-family="sans-serif" font-weight="700" fill="#dc2626">3</text>
  </g>
</svg>