<svg xmlns="http://www.w3.org/2000/svg" viewBox="458.3 116.3 70.3 70.3" width="200" height="200">
  <defs>
    <marker id="arrowhead" markerWidth="4" markerHeight="4" refX="1.5" refY="1.5"
            orient="auto-start-reverse" markerUnits="strokeWidth">
      <path d="M 0,0 L 3,1.5 L 0,3 z" fill="#2563eb"/>
    </marker>
  </defs>
  <rect x="458.3" y="116.3" width="70.3" height="70.3" fill="#FAFAFA"/>
  <g transform="">
    <path d="M 477.17425,155.27386 L 496.2055,155.27386 L 496.2055,148.6176 C 496.20548,147.96138 496.11173,147.39888 495.92425,146.9301 L 495.87737,146.83636 C 492.59611,147.52388 488.40861,148.27388 483.31487,149.08636 C 482.90862,147.43013 482.37737,146.13326 481.72112,145.19573 L 481.81487,144.6801 C 486.43986,144.46139 490.36173,144.02389 493.5805,143.3676 C 496.83048,142.71139 499.7211,141.94576 502.25237,141.07073 C 504.78359,140.16452 506.08047,139.57077 506.143,139.28948 C 506.42422,138.82077 506.75234,138.78952 507.12737,139.19573 L 509.42425,142.52386 C 509.86171,143.02389 509.76796,143.30514 509.143,143.3676 L 508.2055,143.3676 C 504.67422,144.61764 501.4711,145.58639 498.59612,146.27386 L 500.93987,146.3676 C 501.37735,146.49263 501.43985,146.77388 501.12737,147.21136 L 500.65862,148.00823 L 500.65862,155.27386 L 517.67425,155.27386 L 517.67425,159.44573 L 500.518,159.44573 C 500.36172,161.60199 500.00235,163.77387 499.43987,165.96136 C 498.87735,168.11761 497.67423,170.25824 495.8305,172.38323 C 493.98673,174.50823 490.90861,176.4301 486.59612,178.14886 C 486.06486,176.64885 485.26799,175.38323 484.2055,174.35198 L 484.2055,173.83636 C 487.58049,172.99261 490.12736,171.83636 491.84612,170.3676 C 493.59611,168.86761 494.70548,167.18011 495.17425,165.3051 C 495.64298,163.39887 495.95548,161.44574 496.11175,159.44573 L 477.17425,159.44573 L 477.17425,155.27386" fill="#1a1a1a" fill-opacity="0.55"/><path d="M 503.91827,136.69117 C 498.51072,139.54694 490.56619,140.30859 483.46575,141.41625" class="stroke-order" fill="none" stroke="#2563eb" stroke-width="1.6" marker-end="url(#arrowhead)"/><text x="493.23999" y="136.86681" font-size="9" font-family="sans-serif" font-weight="700" fill="#dc2626">1</text><path d="M 477.89313,152.09027 L 492.25781,152.09027" class="stroke-order" fill="none" stroke="#2563eb" stroke-width="1.6" marker-end="url(#arrowhead)"/><text x="475.23376" y="150.00021" font-size="9" font-family="sans-serif" font-weight="700" fill="#dc2626">2</text><path d="M 504.19088,160.9416 C 505.41026,169.14303 501.06443,171.91243 497.70454,175.3384" class="stroke-order" fill="none" stroke="#2563eb" stroke-width="1.6" marker-end="url(#arrowhead)"/><text x="506.87769" y="171.65132" font-size="9" font-family="sans-serif" font-weight="700" fill="#dc2626">3</text>
  </g>
</svg>