<svg xmlns="http://www.w3.org/2000/svg" viewBox="463.9 196.3 69.5 69.5" width="200" height="200">
  <defs>
    <marker id="arrowhead" markerWidth="4" markerHeight="4" refX="1.5" refY="1.5"
            orient="auto-start-reverse" markerUnits="strokeWidth">
      <path d="M 0,0 L 3,1.5 L 0,3 z" fill="#2563eb"/>
    </marker>
  </defs>
  <rect x="463.9" y="196.3" width="69.5" height="69.5" fill="#FAFAFA"/>
  <g transform="">
    <path d="M 510.75255,221.22067 C 510.40097,221.2324 510.19783,221.44726 510.12755,221.84567 C 510.37751,222.2207 510.40876,223.43946 510.19005,225.50192 C 509.97127,227.56445 509.03376,230.78319 507.4088,235.18942 C 505.78377,239.56443 503.12752,243.28319 499.4088,246.34567 C 495.69002,249.37693 491.47127,251.50193 486.7838,252.68942 L 486.7838,253.06442 C 487.87754,254.37692 488.72128,255.78316 489.2838,257.31442 C 495.50252,254.65816 500.40877,251.59567 504.00255,248.12692 C 507.59627,244.65817 510.22125,240.68944 511.9088,236.22067 C 513.62751,231.7207 514.7525,227.72071 515.2838,224.18942 L 516.0963,223.37692 C 516.44,223.0332 516.40875,222.78321 516.00255,222.59567 L 511.1588,221.28317 C 511.01035,221.24411 510.86974,221.21676 510.75255,221.22067 z M 492.19005,221.31442 L 489.00255,224.00192 C 491.72129,226.56445 494.06503,229.81445 496.0338,233.75192 C 497.31502,232.62694 498.62752,231.62695 499.9713,230.78317 C 497.69002,227.43945 495.09627,224.2832 492.19005,221.31442 z M 481.69005,225.06442 L 478.50255,227.75192 C 481.2213,230.31444 483.56504,233.56445 485.5338,237.50192 C 486.81503,236.37694 488.12753,235.37694 489.4713,234.53317 C 487.19003,231.18945 484.59628,228.03319 481.69005,225.06442 z " fill="#1a1a1a" fill-opacity="0.55"/><path d="M 494.10623,217.80704 L 501.31943,225.90349" class="stroke-order" fill="none" stroke="#2563eb" stroke-width="1.6" marker-end="url(#arrowhead)"/><path d="M 483.54802,222.21246 L 490.83444,232.20528" class="stroke-order" fill="none" stroke="#2563eb" stroke-width="1.6" marker-end="url(#arrowhead)"/><text x="479.78546" y="220.53798" font-size="9" font-family="sans-serif" font-weight="700" fill="#dc2626">1</text><text x="488.84143" y="216.68658" font-size="9" font-family="sans-serif" font-weight="700" fill="#dc2626">2</text><path d="M 519.20305,224.34518 C 517.39452,234.57794 515.46895,237.92034 513.5303,242.16782" class="stroke-order" fill="none" stroke="#2563eb" stroke-width="1.6" marker-end="url(#arrowhead)"/><text x="517.46667" y="222.61983" font-size="9" font-family="sans-serif" font-weight="700" fill="#dc2626">3</text>
  </g>
</svg>