<svg xmlns="http://www.w3.org/2000/svg" viewBox="644.7 195.3 72.0 72.0" width="200" height="200">
  <defs>
    <marker id="arrowhead" markerWidth="4" markerHeight="4" refX="1.5" refY="1.5"
            orient="auto-start-reverse" markerUnits="strokeWidth">
      <path d="M 0,0 L 3,1.5 L 0,3 z" fill="#2563eb"/>
    </marker>
  </defs>
  <rect x="644.7" y="195.3" width="72.0" height="72.0" fill="#FAFAFA"/>
  <g transform="">
    <path d="M 672.30187,243.32328 L 672.30187,226.72953 L 686.08312,226.72953 L 686.08312,220.49515 C 686.0831,219.83894 685.98935,219.27644 685.80187,218.80765 C 685.61435,218.40144 685.73935,218.15144 686.17687,218.05765 L 690.8175,218.24515 C 691.19247,218.40144 691.27059,218.63582 691.05187,218.94828 L 690.53624,219.83891 L 690.53624,226.72953 L 702.02062,226.72953 L 702.20812,226.58891 C 702.33308,226.43268 702.47371,226.43268 702.63,226.58891 C 703.56746,227.27643 704.64558,228.12018 705.86437,229.12015 C 706.36433,229.58893 706.36433,230.05768 705.86437,230.52641 L 705.30187,231.08891 C 704.98933,235.15143 704.44246,238.47955 703.66124,241.07328 C 702.87996,243.63579 701.47371,246.15141 699.4425,248.62015 C 697.44246,251.05766 695.08309,253.08891 692.36437,254.71391 C 689.6456,256.3389 685.9581,257.63578 681.30187,258.60453 C 681.0206,257.10453 680.4581,255.6514 679.61437,254.24515 L 679.61437,253.72953 C 683.2706,253.54203 686.30185,252.91703 688.70812,251.85453 C 691.14559,250.79203 693.34872,249.16704 695.3175,246.97953 C 697.31746,244.76079 698.64559,242.43267 699.30187,239.99515 C 699.95808,237.52642 700.37996,234.43268 700.5675,230.71391 L 676.755,230.71391 L 676.755,243.32328 L 672.30187,243.32328" fill="#1a1a1a" fill-opacity="0.55"/><path d="M 682.30965,213.45177 L 682.01523,223.90355" class="stroke-order" fill="none" stroke="#2563eb" stroke-width="1.6" marker-end="url(#arrowhead)"/><text x="675.24585" y="216.04597" font-size="9" font-family="sans-serif" font-weight="700" fill="#dc2626">1</text><path d="M 668.03046,226.99492 L 667.88325,242.45178" class="stroke-order" fill="none" stroke="#2563eb" stroke-width="1.6" marker-end="url(#arrowhead)"/><text x="661.10498" y="232.74275" font-size="9" font-family="sans-serif" font-weight="700" fill="#dc2626">2</text><path d="M 679.21828,233.9137 C 679.21828,233.9137 693.68148,231.33756 696.44163,233.9137 C 699.20178,236.48984 692.63731,241.85031 690.25889,244.21827" class="stroke-order" fill="none" stroke="#2563eb" stroke-width="1.6" marker-end="url(#arrowhead)"/><text x="685.67065" y="240.44554" font-size="9" font-family="sans-serif" font-weight="700" fill="#dc2626">3</text>
  </g>
</svg>