<svg xmlns="http://www.w3.org/2000/svg" viewBox="69.2 38.3 67.9 67.9" width="200" height="200">
  <defs>
    <marker id="arrowhead" markerWidth="4" markerHeight="4" refX="1.5" refY="1.5"
            orient="auto-start-reverse" markerUnits="strokeWidth">
      <path d="M 0,0 L 3,1.5 L 0,3 z" fill="#2563eb"/>
    </marker>
  </defs>
  <rect x="69.2" y="38.3" width="67.9" height="67.9" fill="#FAFAFA"/>
  <g transform="">
    <path d="M 95.858226,81.183139 L 95.858226,64.964389 L 124.87385,64.964389 L 124.9676,64.823769 C 125.09257,64.667549 125.23319,64.667549 125.38948,64.823769 C 126.23319,65.542549 127.24881,66.386289 128.43635,67.355009 C 128.84256,67.823789 128.82694,68.292539 128.38948,68.761269 L 127.87385,69.276889 C 127.71756,72.308159 127.38944,75.136289 126.88948,77.761269 C 126.42069,80.386279 125.15507,83.183149 123.0926,86.151889 C 121.06132,89.089399 118.51445,91.495639 115.45198,93.370639 C 112.38945,95.214389 108.53008,96.761259 103.87385,98.011269 C 103.46759,96.573759 102.85822,95.058139 102.04573,93.464389 L 102.04573,93.136269 C 105.79571,92.667519 109.04571,91.761269 111.79573,90.417509 C 114.57695,89.073769 116.93633,87.089399 118.87385,84.464389 C 120.84257,81.808149 122.0457,79.276909 122.48323,76.870639 C 122.95194,74.433159 123.20194,71.792539 123.23323,68.948769 L 100.31135,68.948769 L 100.31135,81.183139 L 95.858226,81.183139" fill="#1a1a1a" fill-opacity="0.55"/><path d="M 91.269036,65.036398 L 90.97462,78.579545" class="stroke-order" fill="none" stroke="#2563eb" stroke-width="1.6" marker-end="url(#arrowhead)"/><text x="83.413795" y="68.310905" font-size="9" font-family="sans-serif" font-weight="700" fill="#dc2626">1</text><path d="M 98.629442,61.356195 C 99.512691,61.356195 114.96954,61.650611 114.96954,61.650611" class="stroke-order" fill="none" stroke="#2563eb" stroke-width="1.6" marker-end="url(#arrowhead)"/><text x="98.916306" y="58.573795" font-size="9" font-family="sans-serif" font-weight="700" fill="#dc2626">2</text>
  </g>
</svg>