<svg xmlns="http://www.w3.org/2000/svg" viewBox="75.6 355.4 70.2 70.2" width="200" height="200">
  <defs>
    <marker id="arrowhead" markerWidth="4" markerHeight="4" refX="1.5" refY="1.5"
            orient="auto-start-reverse" markerUnits="strokeWidth">
      <path d="M 0,0 L 3,1.5 L 0,3 z" fill="#2563eb"/>
    </marker>
  </defs>
  <rect x="75.6" y="355.4" width="70.2" height="70.2" fill="#FAFAFA"/>
  <g transform="">
    <path d="M 97.647526,381.75818 L 125.4444,381.75818 L 125.72565,381.47693 C 125.85061,381.32071 125.99124,381.32071 126.14753,381.47693 C 127.36624,382.41446 128.52249,383.33634 129.61627,384.24256 C 130.17873,384.71133 130.11623,385.18008 129.42877,385.6488 L 128.72565,386.16443 C 128.50686,389.9457 128.06936,393.18008 127.41315,395.86756 C 126.78811,398.52382 125.38186,401.41444 123.1944,404.53943 C 121.00687,407.66444 118.44437,410.11756 115.5069,411.8988 C 112.60063,413.68006 108.78813,415.24255 104.0694,416.5863 C 103.66314,415.11755 103.00689,413.66443 102.10065,412.22693 L 102.10065,411.7113 C 105.97563,411.18006 109.31938,410.22693 112.1319,408.85193 C 114.97562,407.47694 117.22562,405.61756 118.8819,403.2738 C 120.56937,400.89882 121.75687,398.61757 122.4444,396.43006 L 99.335026,396.43006 L 99.335026,392.44568 L 123.3819,392.44568 C 123.72562,390.41445 123.92874,388.18008 123.99127,385.74256 L 97.647526,385.74256 L 97.647526,381.75818" fill="#1a1a1a" fill-opacity="0.55"/><path d="M 97.84635,378.43649 L 109.60873,378.43649" class="stroke-order" fill="none" stroke="#2563eb" stroke-width="1.6" marker-end="url(#arrowhead)"/><text x="96.84362" y="376.43491" font-size="9" font-family="sans-serif" font-weight="700" fill="#dc2626">1</text><path d="M 96.200508,389.6599 L 109.89086,389.7335" class="stroke-order" fill="none" stroke="#2563eb" stroke-width="1.6" marker-end="url(#arrowhead)"/><text x="90.072044" y="392.33337" font-size="9" font-family="sans-serif" font-weight="700" fill="#dc2626">2</text><path d="M 129.68756,400.6602 C 129.22498,404.37303 127.94426,406.47918 118.98945,413.58581" class="stroke-order" fill="none" stroke="#2563eb" stroke-width="1.6" marker-end="url(#arrowhead)"/><text x="131.22807" y="399.33337" font-size="9" font-family="sans-serif" font-weight="700" fill="#dc2626">3</text>
  </g>
</svg>