<svg xmlns="http://www.w3.org/2000/svg" viewBox="199.1 31.7 81.9 81.9" width="200" height="200">
  <defs>
    <marker id="arrowhead" markerWidth="4" markerHeight="4" refX="1.5" refY="1.5"
            orient="auto-start-reverse" markerUnits="strokeWidth">
      <path d="M 0,0 L 3,1.5 L 0,3 z" fill="#2563eb"/>
    </marker>
  </defs>
  <rect x="199.1" y="31.7" width="81.9" height="81.9" fill="#FAFAFA"/>
  <g transform="">
    <path d="M 233.627,60.814348 L 238.45513,60.298728 C 238.89261,60.330018 239.03324,60.548768 238.877,60.954978 L 238.59575,61.939348 C 239.12699,64.939388 239.68948,67.939378 240.28325,70.939348 C 246.03323,69.970628 251.7676,68.892508 257.48638,67.704978 L 257.627,67.517478 C 257.75197,67.361258 257.89259,67.361258 258.04888,67.517478 C 259.58009,68.361258 261.15821,69.345628 262.78325,70.470608 C 263.40821,71.033128 263.34571,71.470628 262.59575,71.783108 L 260.39263,72.861228 L 260.34575,72.861228 C 256.34572,78.517498 252.87697,82.720618 249.9395,85.470608 C 249.09572,84.283118 247.97073,83.204988 246.5645,82.236228 L 246.47075,81.626848 C 249.28322,79.783118 252.09572,76.658128 254.90825,72.251848 C 250.34572,72.970628 245.73635,73.767498 241.08013,74.642478 C 242.70511,82.329988 244.5801,90.017488 246.70513,97.704979 L 246.65825,98.173729 C 245.31448,98.517479 243.65823,99.048729 241.6895,99.767479 C 239.62698,89.611238 237.93949,81.517498 236.627,75.486228 C 232.40824,76.298748 228.15825,77.189368 223.877,78.158108 C 223.377,76.470628 222.65825,75.158128 221.72075,74.220608 L 221.76763,73.751848 C 226.45512,73.126878 231.14262,72.439378 235.83013,71.689348 C 234.42387,65.345638 233.58012,62.017518 233.29888,61.704978 C 233.04887,61.142518 233.15824,60.845638 233.627,60.814348" fill="#1a1a1a" fill-opacity="0.55"/><path d="M 217.27919,71.101522 L 231.11675,68.746192" class="stroke-order" fill="none" stroke="#2563eb" stroke-width="1.6" marker-end="url(#arrowhead)"/><text x="215.01785" y="68.310913" font-size="9" font-family="sans-serif" font-weight="700" fill="#dc2626">1</text><path d="M 241.86294,54.908628 L 243.77665,65.80203" class="stroke-order" fill="none" stroke="#2563eb" stroke-width="1.6" marker-end="url(#arrowhead)"/><text x="244.99779" y="57.402714" font-size="9" font-family="sans-serif" font-weight="700" fill="#dc2626">2</text><path d="M 256.43655,65.213197 C 256.43655,65.213197 262.93653,64.266496 265.56346,66.53807 C 271.03524,71.269653 264.1519,77.943581 262.29349,80.288132" class="stroke-order" fill="none" stroke="#2563eb" stroke-width="1.6" marker-end="url(#arrowhead)"/>
  </g>
</svg>