<svg xmlns="http://www.w3.org/2000/svg" viewBox="645.8 273.9 79.0 79.0" width="200" height="200">
  <defs>
    <marker id="arrowhead" markerWidth="4" markerHeight="4" refX="1.5" refY="1.5"
            orient="auto-start-reverse" markerUnits="strokeWidth">
      <path d="M 0,0 L 3,1.5 L 0,3 z" fill="#2563eb"/>
    </marker>
  </defs>
  <rect x="645.8" y="273.9" width="79.0" height="79.0" fill="#FAFAFA"/>
  <g transform="">
    <path d="M 680.48283,297.25855 L 679.17033,301.1648 C 683.23281,302.35233 688.10779,303.19608 693.79533,303.69605 C 693.7953,302.22733 693.92029,300.82108 694.20158,299.4773 C 689.0453,299.35234 684.48279,298.60234 680.48283,297.25855 z M 693.88908,307.94605 C 693.77971,307.94605 693.65468,308.00857 693.54533,308.1023 L 693.13908,308.57105 C 685.13906,309.41483 678.7328,309.85233 673.95158,309.88355 L 673.73283,310.44605 C 674.35782,311.78982 674.73281,313.16482 674.88908,314.6023 C 679.29531,313.82107 684.67029,313.16483 690.98283,312.63355 C 683.92031,319.69607 676.3578,326.94606 668.32658,334.38355 L 668.32658,334.8523 C 669.70157,335.91479 670.88906,337.1648 671.88908,338.57105 C 672.79532,337.3523 674.32656,335.5398 676.48283,333.1648 C 678.63906,330.75855 680.5453,328.72731 682.17033,327.0398 C 684.98281,325.22731 686.88904,324.19606 687.88908,323.94605 C 688.88906,323.69606 689.67029,323.66482 690.23283,323.88355 C 690.79531,324.10232 691.07654,325.10232 691.10783,326.88355 C 691.13905,328.63356 691.23279,330.38356 691.35783,332.13355 C 691.4828,333.88356 691.79528,335.1648 692.29533,335.94605 C 692.82655,336.75855 694.01404,337.2273 695.88908,337.38355 C 697.79529,337.57105 699.57653,337.6648 701.23283,337.63355 C 702.88904,337.6023 705.01403,337.57105 707.60783,337.57105 C 707.85778,335.9773 708.23277,334.32105 708.73283,332.57105 L 708.45158,332.1023 C 704.82654,332.7898 702.01403,333.13355 700.01408,333.13355 C 698.01404,333.1023 696.73278,332.9148 696.17033,332.6023 C 695.63905,332.25855 695.35778,331.50855 695.29533,330.3523 C 695.26405,329.1648 695.17029,327.6648 695.04533,325.8523 C 694.9203,324.00856 694.60779,322.72731 694.10783,321.9773 C 693.6078,321.22731 692.92028,320.69607 692.01408,320.38355 C 691.13906,320.03982 690.42029,319.94607 689.85783,320.1023 C 689.29531,320.25857 688.88904,320.38357 688.67033,320.4773 C 691.1078,318.03982 693.88904,315.28982 697.01408,312.2273 L 697.85783,311.94605 C 698.45154,311.53982 698.48278,311.13357 697.95158,310.7273 C 696.85779,309.72733 695.60779,308.85233 694.20158,308.1023 C 694.09219,308.00857 693.99845,307.94605 693.88908,307.94605 z " fill="#1a1a1a" fill-opacity="0.55"/><path d="M 679.51269,293.23858 L 694.23351,296.32995" class="stroke-order" fill="none" stroke="#2563eb" stroke-width="1.6" marker-end="url(#arrowhead)"/><text x="674.47546" y="295.48535" font-size="9" font-family="sans-serif" font-weight="700" fill="#dc2626">1</text><path d="M 670.50034,306.76386 L 681.54095,306.76386" class="stroke-order" fill="none" stroke="#2563eb" stroke-width="1.6" marker-end="url(#arrowhead)"/><text x="667.8562" y="305.0285" font-size="9" font-family="sans-serif" font-weight="700" fill="#dc2626">2</text><path d="M 698.76867,305.88446 C 699.28912,305.98855 702.93234,307.44584 703.03643,310.04814 C 703.14052,312.65044 700.46016,314.68023 699.18503,316.29365" class="stroke-order" fill="none" stroke="#2563eb" stroke-width="1.6" marker-end="url(#arrowhead)"/><path d="M 666.48477,331.43909 C 666.48477,331.43909 664.27665,338.98351 666.85279,341.15483 C 669.42893,343.32615 675.74048,340.73161 679.36548,339.53554" class="stroke-order" fill="none" stroke="#2563eb" stroke-width="1.6" marker-end="url(#arrowhead)"/>
  </g>
</svg>