<svg xmlns="http://www.w3.org/2000/svg" viewBox="329.2 36.1 71.9 71.9" width="200" height="200">
  <defs>
    <marker id="arrowhead" markerWidth="4" markerHeight="4" refX="1.5" refY="1.5"
            orient="auto-start-reverse" markerUnits="strokeWidth">
      <path d="M 0,0 L 3,1.5 L 0,3 z" fill="#2563eb"/>
    </marker>
  </defs>
  <rect x="329.2" y="36.1" width="71.9" height="71.9" fill="#FAFAFA"/>
  <g transform="">
    <path d="M 375.50191,60.506345 C 375.09563,60.568885 374.93937,60.818885 375.06441,61.256345 C 375.34563,61.693885 375.50187,62.818885 375.53316,64.662595 C 375.59563,66.506385 375.65812,67.912625 375.72066,68.881345 C 371.62688,69.068865 367.22062,69.006375 362.50191,68.693845 L 362.28316,69.037595 C 362.47064,70.256375 362.59563,71.600125 362.68941,73.100095 C 367.34563,72.975125 371.75186,72.818875 375.87691,72.631345 C 375.87688,73.006365 375.90811,73.912625 375.97066,75.350095 C 376.06438,76.787625 376.09561,78.787615 376.09566,81.318845 C 376.12687,83.850105 376.15811,85.475115 376.15816,86.225095 C 374.12688,85.787615 372.34561,85.631355 370.81441,85.725095 C 369.28314,85.818855 367.81437,86.225115 366.40816,86.975095 C 365.03314,87.693855 364.12688,88.756355 363.72066,90.131345 C 363.34564,91.506355 363.31437,92.693845 363.59566,93.693845 C 363.90814,94.662595 364.37687,95.475095 365.00191,96.13135 C 365.62689,96.7876 366.59562,97.3501 367.90816,97.81885 C 369.25189,98.31885 370.47062,98.56885 371.56441,98.6001 C 372.65813,98.63135 373.78311,98.5376 374.93941,98.2876 C 376.12688,98.0376 377.15811,97.5376 378.06441,96.81885 C 379.00187,96.1001 379.59561,95.193855 379.84566,94.100095 C 380.09562,92.975105 380.28311,92.100105 380.37691,91.475095 C 382.56437,92.537605 385.0956,94.068845 387.97066,96.0376 C 388.72062,94.225095 389.50185,92.756355 390.34566,91.662595 L 390.34566,91.287595 C 386.53311,89.568855 383.2831,88.287605 380.56441,87.412595 C 380.56438,86.475105 380.50186,84.693865 380.40816,82.100095 C 380.31437,79.475115 380.25186,77.381365 380.18941,75.787595 C 380.15813,74.162615 380.12686,73.037615 380.09566,72.412595 C 383.53312,72.256365 386.31435,72.068875 388.47066,71.881345 L 387.87691,67.850095 C 385.50187,68.131375 382.87685,68.381375 380.00191,68.600095 C 379.93938,66.725135 379.87686,64.600135 379.81441,62.225095 L 380.28316,61.475095 C 380.62688,61.131385 380.59561,60.881385 380.18941,60.693845 L 375.50191,60.506345 z M 350.59566,61.756345 C 350.0644,61.787625 349.93939,62.006385 350.18941,62.412595 C 350.47066,62.725135 350.47064,64.568875 350.18941,67.912595 C 349.93941,71.256375 349.72064,75.475115 349.53316,80.568845 C 349.37691,85.662605 349.43939,89.350105 349.72066,91.662595 C 350.03316,93.943855 350.65814,95.787605 351.59566,97.19385 C 352.53315,98.63134 353.65813,99.25635 354.97066,99.06885 C 356.28315,98.91259 358.06438,97.50635 360.31441,94.818845 C 359.28315,93.725095 358.25188,92.475095 357.22066,91.068845 L 356.97066,91.100095 C 356.06439,92.943855 355.43938,93.787595 355.06441,93.600095 C 354.6894,93.412595 354.34563,92.568845 354.03316,91.068845 C 353.72065,89.568855 353.62688,86.131365 353.75191,80.787595 C 353.90815,75.443875 354.31438,69.850125 354.97066,63.975095 L 355.62691,63.225095 C 356.0019,62.850125 355.93939,62.568885 355.47066,62.412595 L 350.59566,61.756345 z M 371.34566,89.037595 C 371.49092,89.025385 371.64546,89.031735 371.81441,89.037595 C 372.82807,89.072755 374.25969,89.357915 376.06441,89.850095 C 376.03313,90.787605 375.93936,91.725105 375.78316,92.662595 C 375.65813,93.568845 375.22061,94.193845 374.47066,94.537595 C 373.72063,94.850095 372.93937,95.037595 372.15816,95.100095 C 371.37688,95.162595 370.43937,95.037595 369.31441,94.725095 C 368.22064,94.412595 367.59562,93.693845 367.43941,92.568845 C 367.31439,91.443855 367.59562,90.631355 368.31441,90.131345 C 369.06438,89.600105 369.93937,89.256355 370.93941,89.100095 C 371.06441,89.080565 371.2004,89.049805 371.34566,89.037595 z " fill="#1a1a1a" fill-opacity="0.55"/><path d="M 347.1679,64.06997 C 344.97346,71.649761 345.45292,79.5806 346.20898,87.898017" class="stroke-order" fill="none" stroke="#2563eb" stroke-width="1.6" marker-end="url(#arrowhead)"/><text x="344.53799" y="62.647556" font-size="9" font-family="sans-serif" font-weight="700" fill="#dc2626">1</text><path d="M 360.98601,65.951279 C 360.98601,65.951279 367.87463,65.940254 372.58915,65.762717" class="stroke-order" fill="none" stroke="#2563eb" stroke-width="1.6" marker-end="url(#arrowhead)"/><text x="363.04385" y="62.479084" font-size="9" font-family="sans-serif" font-weight="700" fill="#dc2626">2</text><path d="M 382.81326,53.321044 C 382.81326,53.321044 383.43205,60.317475 383.79457,65.229564" class="stroke-order" fill="none" stroke="#2563eb" stroke-width="1.6" marker-end="url(#arrowhead)"/><text x="385.49484" y="56.782543" font-size="9" font-family="sans-serif" font-weight="700" fill="#dc2626">3</text><path d="M 362.40082,96.44104 C 357.86952,81.888481 368.85355,83.591164 372.61474,83.470036" class="stroke-order" fill="none" stroke="#2563eb" stroke-width="1.6" marker-end="url(#arrowhead)"/><path d="M 383.88361,84.289042 L 391.81164,88.148741" class="stroke-order" fill="none" stroke="#2563eb" stroke-width="1.6" marker-end="url(#arrowhead)"/>
  </g>
</svg>