<svg xmlns="http://www.w3.org/2000/svg" viewBox="330.8 281.0 69.3 69.3" width="200" height="200">
  <defs>
    <marker id="arrowhead" markerWidth="4" markerHeight="4" refX="1.5" refY="1.5"
            orient="auto-start-reverse" markerUnits="strokeWidth">
      <path d="M 0,0 L 3,1.5 L 0,3 z" fill="#2563eb"/>
    </marker>
  </defs>
  <rect x="330.8" y="281.0" width="69.3" height="69.3" fill="#FAFAFA"/>
  <g transform="">
    <path d="M 364.93704,307.71603 C 366.68702,307.71606 368.93701,309.23168 371.68704,312.2629 C 374.46826,315.29418 381.1245,320.6848 391.65579,328.43478 L 391.60891,328.99728 C 390.42137,329.90354 389.14012,331.29416 387.76516,333.16916 C 377.76513,323.88792 371.71826,318.15355 369.62454,315.96603 C 367.56201,313.7473 366.09327,312.63793 365.21829,312.6379 C 364.37452,312.63793 363.68702,313.02855 363.15579,313.80978 C 362.62452,314.5598 358.84327,318.2473 351.81204,324.87228 C 350.68703,323.40354 349.42141,322.21604 348.01516,321.30978 L 348.01516,320.93478 C 355.1714,315.5598 359.45265,312.01293 360.85891,310.29416 C 362.29639,308.57543 363.65577,307.71606 364.93704,307.71603" fill="#1a1a1a" fill-opacity="0.55"/><path d="M 346.75144,316.53702 L 358.70848,305.90052" class="stroke-order" fill="none" stroke="#2563eb" stroke-width="1.6" marker-end="url(#arrowhead)"/><text x="345.19046" y="310.12103" font-size="9" font-family="sans-serif" font-weight="700" fill="#dc2626">1</text>
  </g>
</svg>