<svg xmlns="http://www.w3.org/2000/svg" viewBox="333.6 120.6 68.4 68.4" width="200" height="200">
  <defs>
    <marker id="arrowhead" markerWidth="4" markerHeight="4" refX="1.5" refY="1.5"
            orient="auto-start-reverse" markerUnits="strokeWidth">
      <path d="M 0,0 L 3,1.5 L 0,3 z" fill="#2563eb"/>
    </marker>
  </defs>
  <rect x="333.6" y="120.6" width="68.4" height="68.4" fill="#FAFAFA"/>
  <g transform="">
    <path d="M 363.36486,144.7261 L 363.83361,144.21048 C 363.98984,144.02301 364.16171,144.02301 364.34923,144.21048 C 365.28671,144.80426 366.38046,145.66364 367.63048,146.7886 C 368.03671,147.19489 368.00546,147.50739 367.53673,147.7261 L 366.31798,148.24173 C 363.56796,152.55426 361.64609,155.61675 360.55236,157.42923 C 359.48984,159.24175 358.67734,161.16362 358.11486,163.19486 C 357.55234,165.22612 357.36485,167.17924 357.55236,169.05423 C 357.73984,170.89799 358.28672,172.39799 359.19298,173.55423 C 360.09922,174.67923 361.42734,175.44486 363.17736,175.8511 C 364.95859,176.25736 366.77109,176.35111 368.61486,176.13236 C 370.45858,175.91361 372.14608,175.21048 373.67736,174.02298 C 375.23983,172.83549 376.2867,171.10111 376.81798,168.81986 C 377.3492,166.53862 377.50545,163.49175 377.28673,159.67923 C 377.0992,155.86675 376.3492,151.24176 375.03673,145.80423 L 379.20861,144.5386 C 380.36482,147.53864 381.94295,150.61676 383.94298,153.77298 C 385.97419,156.898 388.45856,159.86675 391.39611,162.67923 L 391.34923,163.19486 C 390.56794,163.69487 389.36481,164.91362 387.73986,166.8511 C 385.30232,163.35112 383.23982,160.31987 381.55236,157.75736 C 381.61482,158.41363 381.73982,159.898 381.92736,162.21048 C 382.11482,164.52299 381.94295,167.02299 381.41173,169.71048 C 380.9117,172.39799 379.56795,174.74173 377.38048,176.74173 C 375.19295,178.71048 372.69295,179.89798 369.88048,180.30423 C 367.06796,180.74173 364.27109,180.6011 361.48986,179.88236 C 358.70859,179.19485 356.63047,177.86673 355.25548,175.89798 C 353.91172,173.92923 353.19297,171.72611 353.09923,169.2886 C 353.03672,166.81987 353.3336,164.55424 353.98986,162.49173 C 354.6461,160.42925 355.5211,158.44488 356.61486,156.5386 C 357.70859,154.63238 359.17734,152.27301 361.02111,149.46048 C 359.23984,149.71051 356.16172,150.35113 351.78673,151.38236 L 350.84923,146.64798 C 354.72422,146.42926 358.89609,145.78864 363.36486,144.7261" fill="#1a1a1a" fill-opacity="0.55"/><path d="M 350.71106,144.16654 L 365.10669,140.82842" class="stroke-order" fill="none" stroke="#2563eb" stroke-width="1.6" marker-end="url(#arrowhead)"/><text x="350.33856" y="140.88762" font-size="9" font-family="sans-serif" font-weight="700" fill="#dc2626">1</text><path d="M 373.78283,154.94383 C 373.78283,154.94383 371.69651,140.33956 374.93031,139.19209 C 378.16411,138.04461 384.397,147.25051 386.71804,150.35392" class="stroke-order" fill="none" stroke="#2563eb" stroke-width="1.6" marker-end="url(#arrowhead)"/>
  </g>
</svg>