<svg xmlns="http://www.w3.org/2000/svg" viewBox="325.4 353.9 82.1 82.1" width="200" height="200">
  <defs>
    <marker id="arrowhead" markerWidth="4" markerHeight="4" refX="1.5" refY="1.5"
            orient="auto-start-reverse" markerUnits="strokeWidth">
      <path d="M 0,0 L 3,1.5 L 0,3 z" fill="#2563eb"/>
    </marker>
  </defs>
  <rect x="325.4" y="353.9" width="82.1" height="82.1" fill="#FAFAFA"/>
  <g transform="">
    <path d="M 388.52521,381.45364 C 383.96267,382.04743 380.05641,382.42242 376.80646,382.57864 C 373.58768,382.73492 369.90017,382.70368 365.74396,382.51614 L 365.49396,382.85989 C 365.74394,384.26617 365.90018,385.57868 365.96271,386.82864 C 370.08769,386.70368 373.96267,386.57867 377.58771,386.42239 C 377.36893,386.51617 377.30641,386.73492 377.40021,387.07864 C 377.68143,387.51617 377.86891,388.54742 377.93146,390.20364 C 378.02518,391.82867 378.08766,393.01617 378.11896,393.76614 C 374.08768,393.98492 369.74392,394.01616 365.11896,393.82864 L 364.90021,394.14114 C 365.21269,395.45367 365.33767,396.82867 365.27521,398.26614 C 369.90019,398.10991 374.24392,397.92241 378.33771,397.70364 C 378.36893,398.14116 378.43141,399.10991 378.52521,400.57864 C 378.65018,402.01616 378.71266,403.85991 378.68146,406.14114 C 376.58768,405.70366 374.77516,405.5474 373.24396,405.64114 C 371.71269,405.7349 370.24392,406.14116 368.83771,406.89114 C 367.46269,407.6099 366.55643,408.6724 366.15021,410.04739 C 365.7752,411.4224 365.74392,412.60989 366.02521,413.60989 C 366.33769,414.57864 366.80642,415.39114 367.43146,416.04739 C 368.05644,416.70364 369.02517,417.26614 370.33771,417.73489 C 371.68144,418.23489 372.90016,418.48489 373.99396,418.51614 C 375.08768,418.54739 376.21266,418.45364 377.36896,418.20364 C 378.55643,417.95364 379.58766,417.45364 380.46271,416.73489 C 381.36893,416.01614 381.96265,415.10989 382.24396,413.98489 C 382.52517,412.82864 382.71265,411.95365 382.80646,411.39114 C 384.99392,412.45365 387.52517,413.98489 390.40026,415.95364 C 391.15016,414.14114 391.93146,412.6724 392.77526,411.57864 L 392.77526,411.20364 C 388.99382,409.4849 385.74391,408.20365 383.02521,407.32864 C 382.93143,404.7974 382.83766,402.67241 382.74396,400.98489 C 382.68142,399.2974 382.61891,398.10991 382.55646,397.42239 C 385.86892,397.20365 388.77515,396.95366 391.24396,396.64114 L 390.80646,392.45364 C 388.27518,392.89117 385.46266,393.23492 382.36896,393.48489 C 382.30642,391.82866 382.2439,389.98492 382.15021,387.95364 L 382.52521,387.17239 C 382.74392,386.82867 382.71265,386.60992 382.43146,386.51614 L 378.49396,386.35989 C 382.15017,386.17242 385.65015,385.89118 388.99396,385.51614 L 388.52521,381.45364 z M 353.02521,381.67239 C 352.49396,381.70367 352.36893,381.92243 352.61896,382.32864 C 352.9002,382.64118 352.90018,384.48492 352.61896,387.82864 C 352.36895,391.17242 352.15018,395.39116 351.96271,400.48489 C 351.80646,405.57865 351.86894,409.26615 352.15021,411.57864 C 352.4627,413.8599 353.08768,415.70365 354.02521,417.10989 C 354.9627,418.54738 356.08768,419.17239 357.40021,418.98489 C 358.7127,418.82863 360.49393,417.42239 362.74396,414.73489 C 361.7127,413.64114 360.68143,412.39114 359.65021,410.98489 L 359.40021,411.01614 C 358.49395,412.8599 357.86893,413.70364 357.49396,413.51614 C 357.11895,413.32864 356.77518,412.48489 356.46271,410.98489 C 356.1502,409.4849 356.05643,406.04741 356.18146,400.70364 C 356.3377,395.35992 356.74393,389.76617 357.40021,383.89114 L 358.05646,383.14114 C 358.43145,382.76617 358.36893,382.48493 357.90021,382.32864 L 353.02521,381.67239 z M 374.27521,408.95364 C 375.29473,408.97708 376.69705,409.25052 378.52521,409.76614 C 378.49393,410.57865 378.40016,411.4849 378.24396,412.48489 C 378.11892,413.45364 377.68141,414.10989 376.90021,414.45364 C 376.15018,414.76614 375.36892,414.95364 374.58771,415.01614 C 373.80644,415.07864 372.86891,414.95364 371.74396,414.64114 C 370.65019,414.32864 370.02517,413.60989 369.86896,412.48489 C 369.74394,411.3599 370.02517,410.5474 370.74396,410.04739 C 371.49393,409.51615 372.36892,409.1724 373.36896,409.01614 C 373.61895,408.96927 373.93537,408.94583 374.27521,408.95364 z " fill="#1a1a1a" fill-opacity="0.55"/><path d="M 348.08319,383.01653 C 347.04227,387.90885 347.04227,397.58939 347.25045,402.5858" class="stroke-order" fill="none" stroke="#2563eb" stroke-width="1.6" marker-end="url(#arrowhead)"/><text x="341.341" y="390.97632" font-size="9" font-family="sans-serif" font-weight="700" fill="#dc2626">1</text><path d="M 365.15191,379.51733 L 384.27164,379.37012" class="stroke-order" fill="none" stroke="#2563eb" stroke-width="1.6" marker-end="url(#arrowhead)"/><text x="359.37915" y="382.68036" font-size="9" font-family="sans-serif" font-weight="700" fill="#dc2626">2</text><path d="M 364.90367,390.71345 L 375.64987,390.86065" class="stroke-order" fill="none" stroke="#2563eb" stroke-width="1.6" marker-end="url(#arrowhead)"/><text x="358.681" y="393.53369" font-size="9" font-family="sans-serif" font-weight="700" fill="#dc2626">3</text><path d="M 393.77951,386.0352 L 394.29997,401.3367" class="stroke-order" fill="none" stroke="#2563eb" stroke-width="1.6" marker-end="url(#arrowhead)"/><text x="391.57404" y="385.41452" font-size="9" font-family="sans-serif" font-weight="700" fill="#dc2626">4</text><path d="M 369.70075,419.24573 C 366.81657,418.26241 364.74718,416.44321 363.46353,413.25152 C 362.10294,409.86853 365.20052,406.53097 366.76091,404.0945" class="stroke-order" fill="none" stroke="#2563eb" stroke-width="1.6" marker-end="url(#arrowhead)"/><path d="M 387.42652,405.97168 L 396.25901,409.06305" class="stroke-order" fill="none" stroke="#2563eb" stroke-width="1.6" marker-end="url(#arrowhead)"/>
  </g>
</svg>