<svg xmlns="http://www.w3.org/2000/svg" viewBox="332.3 195.2 73.2 73.2" width="200" height="200">
  <defs>
    <marker id="arrowhead" markerWidth="4" markerHeight="4" refX="1.5" refY="1.5"
            orient="auto-start-reverse" markerUnits="strokeWidth">
      <path d="M 0,0 L 3,1.5 L 0,3 z" fill="#2563eb"/>
    </marker>
  </defs>
  <rect x="332.3" y="195.2" width="73.2" height="73.2" fill="#FAFAFA"/>
  <g transform="">
    <path d="M 363.19242,220.08249 L 361.03617,223.83249 C 365.3799,226.14502 370.25488,228.02002 375.66117,229.48874 C 376.19239,227.80127 376.75487,226.36377 377.34867,225.14499 C 371.94239,224.11377 367.22363,222.42627 363.19242,220.08249 z M 363.22367,231.33249 C 362.8174,231.36377 362.66114,231.55127 362.75492,231.89499 C 362.8799,232.33251 362.81739,233.20752 362.56742,234.55124 C 362.34865,235.86377 362.28614,237.17626 362.37992,238.48874 C 362.47365,239.80126 363.44238,241.05126 365.25492,242.20749 C 367.0674,243.36375 368.78613,244.48875 370.44242,245.58249 C 372.09864,246.67625 373.16113,248.02 373.62992,249.61374 C 374.12989,251.17625 374.03613,252.45749 373.34867,253.45749 C 372.66114,254.45749 371.66113,255.05124 370.34867,255.23874 C 369.06739,255.39499 367.84863,255.23874 366.66117,254.76999 C 365.5049,254.26999 364.34864,253.23874 363.22367,251.67624 C 362.16115,252.70749 361.03614,253.61375 359.81742,254.42624 L 359.75492,254.80124 C 361.1924,256.23875 362.62988,257.36374 364.03617,258.14499 C 365.4424,258.95749 367.09863,259.36374 369.00492,259.39499 C 370.91115,259.45748 372.59863,259.11374 374.09867,258.36374 C 375.62989,257.61374 376.81737,256.51999 377.66117,255.05124 C 378.53613,253.58249 378.75487,251.67625 378.28617,249.33249 C 377.84864,246.9575 376.59862,245.05125 374.56742,243.61374 C 372.53614,242.145 370.75488,240.98876 369.19242,240.17624 C 367.6299,239.33251 366.81738,238.39501 366.78617,237.36374 C 366.78614,236.33252 366.94238,235.05127 367.22367,233.51999 L 367.81742,232.83249 C 368.19239,232.45751 368.16113,232.17626 367.72367,231.98874 L 363.22367,231.33249 z M 380.84867,239.89499 L 378.12992,243.17624 C 381.66113,245.86376 384.94236,249.52 387.94242,254.14499 C 389.78613,252.39499 391.06736,251.30125 391.81742,250.83249 L 391.78617,250.39499 C 388.47363,246.67625 384.81737,243.17626 380.84867,239.89499 z M 359.47367,243.05124 C 355.84866,246.23875 352.12989,249.61375 348.28617,253.20749 C 349.87992,254.48874 351.0049,255.64499 351.69242,256.64499 C 355.59866,252.23874 359.28614,248.7075 362.75492,246.08249 L 359.47367,243.05124 z " fill="#1a1a1a" fill-opacity="0.55"/><path d="M 363.05996,216.74746 L 377.07487,221.32075" class="stroke-order" fill="none" stroke="#2563eb" stroke-width="1.6" marker-end="url(#arrowhead)"/><text x="365.85901" y="216.02885" font-size="9" font-family="sans-serif" font-weight="700" fill="#dc2626">1</text><path d="M 370.95257,230.24603 C 370.95257,230.24603 369.21915,234.22921 370.65752,236.14704 C 372.09589,238.06487 374.29033,239.24508 376.33725,240.7941" class="stroke-order" fill="none" stroke="#2563eb" stroke-width="1.6" marker-end="url(#arrowhead)"/><text x="374.4155" y="236.80661" font-size="9" font-family="sans-serif" font-weight="700" fill="#dc2626">2</text><path d="M 355.09359,242.34312 L 346.31583,249.57186" class="stroke-order" fill="none" stroke="#2563eb" stroke-width="1.6" marker-end="url(#arrowhead)"/><text x="348.70212" y="241.15862" font-size="9" font-family="sans-serif" font-weight="700" fill="#dc2626">3</text><path d="M 384.30362,237.40102 L 395.14673,247.65403" class="stroke-order" fill="none" stroke="#2563eb" stroke-width="1.6" marker-end="url(#arrowhead)"/><text x="387.69278" y="239.24078" font-size="9" font-family="sans-serif" font-weight="700" fill="#dc2626">4</text>
  </g>
</svg>