<svg xmlns="http://www.w3.org/2000/svg" viewBox="643.6 116.8 81.8 81.8" width="200" height="200">
  <defs>
    <marker id="arrowhead" markerWidth="4" markerHeight="4" refX="1.5" refY="1.5"
            orient="auto-start-reverse" markerUnits="strokeWidth">
      <path d="M 0,0 L 3,1.5 L 0,3 z" fill="#2563eb"/>
    </marker>
  </defs>
  <rect x="643.6" y="116.8" width="81.8" height="81.8" fill="#FAFAFA"/>
  <g transform="">
    <path d="M 672.26727,145.11094 C 671.73601,145.14222 671.486,145.36098 671.51727,145.76719 C 671.76726,146.20473 671.70475,148.04847 671.32977,151.26719 C 670.95476,154.48596 670.82975,157.67346 670.95477,160.82969 C 671.11101,163.98595 671.51725,166.8922 672.14227,169.54844 C 672.79851,172.2047 673.73599,174.26719 674.95477,175.73594 C 676.20476,177.17344 677.54849,177.79844 678.98602,177.61094 C 680.42351,177.39219 681.57974,176.3922 682.48602,174.64219 C 683.39225,172.8922 684.51724,170.48594 685.86102,167.42344 C 684.611,166.48595 683.29849,165.48595 681.92352,164.39219 L 681.54852,164.39219 C 680.7985,167.7672 680.20474,169.8297 679.76727,170.57969 C 679.32975,171.29845 678.79849,171.5797 678.17352,171.45469 C 677.5485,171.3297 676.98599,170.5797 676.48602,169.20469 C 675.98601,167.82971 675.61099,165.2047 675.32977,161.29844 C 675.04851,157.36096 675.32975,152.70471 676.20477,147.36094 L 676.76727,146.70469 C 677.14225,146.32973 677.11099,146.07972 676.67352,145.92344 L 672.26727,145.11094 z M 700.54852,147.70469 L 696.92352,150.45469 C 699.57973,153.11097 701.48597,155.82971 702.64227,158.57969 C 703.82973,161.29846 704.79847,165.0172 705.54852,169.73594 C 707.23597,169.0172 708.89221,168.54845 710.48602,168.32969 L 710.70477,167.98594 C 709.76722,163.73595 708.51721,160.01721 706.95477,156.79844 C 705.42348,153.57971 703.29846,150.54847 700.54852,147.70469 z " fill="#1a1a1a" fill-opacity="0.55"/><path d="M 666.10213,143.64623 C 665.18643,147.79727 666.60784,156.57707 667.16012,160.84051" class="stroke-order" fill="none" stroke="#2563eb" stroke-width="1.6" marker-end="url(#arrowhead)"/><text x="659.53638" y="149.65234" font-size="9" font-family="sans-serif" font-weight="700" fill="#dc2626">1</text><path d="M 705.46638,146.67291 L 713.43275,159.95019" class="stroke-order" fill="none" stroke="#2563eb" stroke-width="1.6" marker-end="url(#arrowhead)"/><text x="709.53638" y="149.65234" font-size="9" font-family="sans-serif" font-weight="700" fill="#dc2626">2</text>
  </g>
</svg>