<svg xmlns="http://www.w3.org/2000/svg" viewBox="586.8 34.6 75.1 75.1" width="200" height="200">
  <defs>
    <marker id="arrowhead" markerWidth="4" markerHeight="4" refX="1.5" refY="1.5"
            orient="auto-start-reverse" markerUnits="strokeWidth">
      <path d="M 0,0 L 3,1.5 L 0,3 z" fill="#2563eb"/>
    </marker>
  </defs>
  <rect x="586.8" y="34.6" width="75.1" height="75.1" fill="#FAFAFA"/>
  <g transform="translate(-2,0)">
    <path d="M 620.08933,61.543771 C 619.65181,61.637561 619.43305,61.856311 619.40183,62.200021 C 619.71432,62.762561 619.6518,64.137551 619.21433,66.325021 C 618.77682,68.481301 618.3393,70.356299 617.93308,71.950021 C 614.18307,72.356301 611.21431,72.60629 608.99558,72.731271 L 608.74558,73.012521 C 608.96432,73.981301 609.08931,75.418802 609.12058,77.325021 C 611.43307,76.887551 613.99555,76.450052 616.77683,76.012521 C 616.58932,76.606301 616.12056,78.043802 615.40183,80.325021 C 614.68307,82.606291 613.74556,85.168792 612.58933,88.012521 C 611.43307,90.856281 610.02681,93.762519 608.37058,96.700021 L 608.37058,97.106271 C 609.62057,97.606271 611.02681,98.262532 612.55808,99.075021 C 613.96432,95.450031 615.24555,92.16877 616.40183,89.231271 C 617.55807,86.262531 618.5268,83.481292 619.30808,80.887521 C 620.12057,78.293801 620.68305,76.481289 620.99558,75.418771 C 624.77681,74.887541 627.15179,74.98129 628.15183,75.731271 C 629.1518,76.481291 629.68304,77.825052 629.71433,79.762521 C 629.74556,81.668791 629.71429,83.262539 629.65183,84.512521 C 629.62055,85.762531 629.49554,87.043792 629.27683,88.387521 C 629.0893,89.700031 628.74554,90.91877 628.21433,92.043771 C 627.71431,93.137521 627.18304,93.88752 626.62058,94.293771 C 626.08931,94.668771 625.49554,94.575032 624.83933,94.012521 C 624.18306,93.418781 623.37055,92.543779 622.43308,91.356271 C 621.96431,92.325031 621.0268,93.450029 619.58933,94.731271 C 621.12057,96.043771 622.12055,96.981269 622.62058,97.543771 C 623.15181,98.106271 623.71429,98.543782 624.27683,98.887521 C 624.87056,99.262521 625.68304,99.387519 626.71433,99.231271 C 627.74556,99.075021 628.80804,98.387519 629.90183,97.168771 C 630.99556,95.950021 631.77679,94.575019 632.27683,93.043771 C 632.80805,91.512531 633.18303,90.075032 633.37058,88.762521 C 633.55805,87.450041 633.65179,86.043779 633.68308,84.512521 C 633.74555,82.950041 633.71428,80.981289 633.55808,78.606271 C 633.4018,76.200041 632.65178,74.481289 631.30808,73.450021 C 629.96431,72.418801 628.74554,71.762552 627.65183,71.512521 C 626.58931,71.262551 624.68305,71.262552 621.96433,71.512521 C 622.55806,69.043801 623.15179,66.38755 623.71433,63.543771 L 624.21433,62.981271 C 624.52681,62.700051 624.5268,62.481311 624.21433,62.293771 L 620.08933,61.543771 z M 639.93308,68.012521 L 636.74558,70.731271 C 638.74555,72.950051 640.52678,75.387539 642.08933,78.043771 C 643.68304,80.668791 645.15177,83.918792 646.49558,87.825021 C 648.02679,86.918791 649.46427,86.106292 650.80808,85.387521 L 650.80808,85.075021 C 649.21429,81.543791 647.58927,78.512539 645.93308,75.981271 C 644.27679,73.450051 642.27677,70.793801 639.93308,68.012521 z " fill="#1a1a1a" fill-opacity="0.55"/><path d="M 603.46703,70.026956 L 615.26906,69.141804" class="stroke-order" fill="none" stroke="#2563eb" stroke-width="1.6" marker-end="url(#arrowhead)"/><text x="601.90063" y="67.736031" font-size="9" font-family="sans-serif" font-weight="700" fill="#dc2626">1</text><path d="M 629.87407,58.372451 L 626.74024,68.641191" class="stroke-order" fill="none" stroke="#2563eb" stroke-width="1.6" marker-end="url(#arrowhead)"/><text x="629.04004" y="56.879353" font-size="9" font-family="sans-serif" font-weight="700" fill="#dc2626">2</text><path d="M 644.46547,65.720759 C 645.3,66.555289 652.81076,78.8646 652.81076,78.8646" class="stroke-order" fill="none" stroke="#2563eb" stroke-width="1.6" marker-end="url(#arrowhead)"/><text x="645.69879" y="65.038353" font-size="9" font-family="sans-serif" font-weight="700" fill="#dc2626">3</text>
  </g>
</svg>