<svg xmlns="http://www.w3.org/2000/svg" viewBox="582.7 276.2 77.4 77.4" width="200" height="200">
  <defs>
    <marker id="arrowhead" markerWidth="4" markerHeight="4" refX="1.5" refY="1.5"
            orient="auto-start-reverse" markerUnits="strokeWidth">
      <path d="M 0,0 L 3,1.5 L 0,3 z" fill="#2563eb"/>
    </marker>
  </defs>
  <rect x="582.7" y="276.2" width="77.4" height="77.4" fill="#FAFAFA"/>
  <g transform="">
    <path d="M 633.98039,300.36885 C 633.66983,300.40988 633.59755,300.61887 633.76164,300.99385 C 634.01161,301.52513 634.23034,303.15013 634.38664,305.8376 C 634.54286,308.49388 634.63659,310.18137 634.66789,310.9001 C 630.51161,311.21263 625.98035,311.18137 621.10539,310.80635 L 620.98039,311.2126 C 621.29287,312.49388 621.44911,313.83761 621.48039,315.2126 C 625.44911,315.18137 629.91785,314.99386 634.88664,314.68135 C 634.9491,315.55637 634.98034,316.27511 634.98039,316.80635 C 635.0116,317.33762 635.04284,318.65011 635.04289,320.74385 C 635.04286,322.80636 634.88659,324.74387 634.60539,326.5876 C 634.35535,328.40011 633.8241,329.96261 633.01164,331.2751 C 632.23036,332.58761 631.2616,333.71261 630.10539,334.6501 C 628.98036,335.55636 627.2616,336.40009 624.94914,337.1501 L 624.94914,337.6501 C 626.01161,338.99385 626.85535,340.30634 627.48039,341.55635 C 629.76161,340.2751 631.60534,339.0251 632.98039,337.8376 C 634.38661,336.65011 635.57409,335.24384 636.57414,333.5876 C 637.5741,331.90011 638.26159,329.93135 638.60539,327.68135 C 638.94911,325.40011 639.07409,323.2126 639.01164,321.11885 C 638.9491,319.02512 638.88659,316.77511 638.82414,314.36885 C 641.66785,314.05637 644.19908,313.65011 646.38664,313.1501 L 645.07414,309.2126 C 643.0741,309.74388 640.94908,310.15013 638.69914,310.4626 C 638.60536,308.05638 638.48034,305.24389 638.35539,302.0251 L 638.69914,301.1501 C 638.91786,300.77514 638.82409,300.55639 638.41789,300.49385 L 634.38664,300.4001 C 634.23038,300.37667 634.08391,300.35517 633.98039,300.36885 z M 609.57414,302.7751 C 609.04288,302.80639 608.82412,303.02512 608.91789,303.43135 C 609.16788,303.86888 609.10537,305.58764 608.73039,308.5876 C 608.35538,311.58763 608.10537,315.02511 607.98039,318.86885 C 607.88663,322.71261 608.04287,325.80635 608.44914,328.18135 C 608.85538,330.55635 609.51162,332.46261 610.41789,333.9001 C 611.32413,335.30636 612.38662,335.93136 613.60539,335.7751 C 614.82412,335.58761 616.57411,334.08761 618.82414,331.2751 C 617.76163,330.24386 616.69911,329.11885 615.63664,327.86885 L 615.48039,327.86885 C 614.60537,329.58761 613.98037,330.3376 613.60539,330.11885 C 613.23038,329.90011 612.88662,329.05634 612.57414,327.61885 C 612.26163,326.15011 612.10537,323.3376 612.10539,319.18135 C 612.13663,315.02512 612.60536,310.33761 613.48039,305.11885 L 614.16789,304.36885 C 614.60537,303.96263 614.60536,303.68139 614.16789,303.5251 L 609.57414,302.7751 z " fill="#1a1a1a" fill-opacity="0.55"/><path d="M 604.58376,304.4264 C 602.02981,309.39175 603.4797,318.07332 604.36078,323.03866" class="stroke-order" fill="none" stroke="#2563eb" stroke-width="1.6" marker-end="url(#arrowhead)"/><text x="598.07446" y="306.52597" font-size="9" font-family="sans-serif" font-weight="700" fill="#dc2626">1</text><path d="M 620.77665,307.81218 L 631.81726,307.81218" class="stroke-order" fill="none" stroke="#2563eb" stroke-width="1.6" marker-end="url(#arrowhead)"/><text x="620.01355" y="305.61734" font-size="9" font-family="sans-serif" font-weight="700" fill="#dc2626">2</text><path d="M 642.24678,294.22617 L 641.9345,306.30083" class="stroke-order" fill="none" stroke="#2563eb" stroke-width="1.6" marker-end="url(#arrowhead)"/><text x="644.68262" y="300.20456" font-size="9" font-family="sans-serif" font-weight="700" fill="#dc2626">3</text>
  </g>
</svg>