<svg xmlns="http://www.w3.org/2000/svg" viewBox="582.8 117.5 71.9 71.9" width="200" height="200">
  <defs>
    <marker id="arrowhead" markerWidth="4" markerHeight="4" refX="1.5" refY="1.5"
            orient="auto-start-reverse" markerUnits="strokeWidth">
      <path d="M 0,0 L 3,1.5 L 0,3 z" fill="#2563eb"/>
    </marker>
  </defs>
  <rect x="582.8" y="117.5" width="71.9" height="71.9" fill="#FAFAFA"/>
  <g transform="">
    <path d="M 625.8977,141.11816 C 626.42892,143.14944 626.92892,144.93069 627.3977,146.46191 C 630.36642,145.93069 633.22579,145.19632 635.97582,144.25878 L 637.66332,148.00878 C 634.88204,148.82131 631.91329,149.49319 628.75707,150.02441 C 628.91329,150.43069 629.21017,151.04006 629.6477,151.85254 C 630.08517,152.66506 630.69454,153.75881 631.47582,155.13378 C 635.28829,154.54006 638.88203,153.60256 642.25707,152.32128 L 643.8977,156.25878 C 640.74141,157.16506 637.22579,157.89943 633.35082,158.46191 C 634.66329,160.52443 636.63204,163.0713 639.25707,166.10254 L 635.55395,169.14941 C 633.61642,168.36817 632.11642,167.85255 631.05395,167.60254 C 630.02267,167.3213 628.67892,167.08692 627.0227,166.89941 C 625.36642,166.71192 623.86642,166.68067 622.5227,166.80566 C 621.17893,166.93067 619.96018,167.21192 618.86645,167.64941 C 617.80393,168.05567 617.00706,168.60254 616.47582,169.29004 C 615.94456,169.94629 615.69456,170.79004 615.72582,171.82128 C 615.78831,172.82129 616.17893,173.72754 616.8977,174.54004 C 617.61643,175.35254 618.77268,175.93066 620.36645,176.27441 C 621.99143,176.58691 624.19455,176.72754 626.97582,176.69628 C 629.78829,176.63379 632.63204,176.44629 635.50707,176.13378 L 635.60082,176.64941 C 635.19454,177.36816 634.85079,178.66503 634.56957,180.54004 C 631.25704,180.72753 627.81955,180.69628 624.25707,180.44628 C 620.69455,180.22753 618.17893,179.74316 616.7102,178.99316 C 615.27268,178.24316 614.14768,177.30566 613.3352,176.18066 C 612.55394,175.02441 612.06956,173.66504 611.88207,172.10254 C 611.72581,170.50879 612.05394,169.13379 612.86645,167.97754 C 613.67894,166.8213 614.69456,165.9463 615.91332,165.35254 C 617.13206,164.72755 618.52268,164.27442 620.0852,163.99316 C 621.64768,163.71192 623.2883,163.60255 625.00707,163.66504 C 626.75705,163.72755 629.11642,164.02442 632.0852,164.55566 C 630.83517,162.64943 629.75704,160.8213 628.85082,159.07128 C 623.7883,159.6338 617.60081,160.0713 610.28832,160.38378 C 610.22581,158.97755 610.03831,157.68068 609.72582,156.49316 L 609.86645,156.16504 C 616.52268,156.35256 622.2883,156.19631 627.16332,155.69628 C 626.63205,154.60256 626.1633,153.64943 625.75707,152.83691 C 625.3508,151.99319 625.00705,151.25881 624.72582,150.63378 C 621.31955,151.04006 617.28831,151.35256 612.63207,151.57128 C 612.60081,150.44631 612.38206,149.13381 611.97582,147.63378 L 612.25707,147.39941 C 616.53831,147.46194 620.24143,147.33694 623.36645,147.02441 C 623.21018,146.58694 622.88205,145.60257 622.38207,144.07128 C 621.9133,142.50882 621.50705,141.5557 621.16332,141.21191 C 620.9133,140.8682 621.02268,140.6182 621.49145,140.46191 L 625.66332,139.71191 C 626.1008,139.7432 626.21017,139.97757 625.99145,140.41504 L 625.8977,141.11816" fill="#1a1a1a" fill-opacity="0.55"/><path d="M 606.77189,144.75508 C 607.50952,144.75508 619.6066,143.57488 619.6066,143.57488" class="stroke-order" fill="none" stroke="#2563eb" stroke-width="1.6" marker-end="url(#arrowhead)"/><path d="M 606.13985,154.56435 C 606.87748,154.56435 623.87742,153.27983 623.87742,153.27983" class="stroke-order" fill="none" stroke="#2563eb" stroke-width="1.6" marker-end="url(#arrowhead)"/><path d="M 627.1304,134.57583 L 631.85121,142.83725" class="stroke-order" fill="none" stroke="#2563eb" stroke-width="1.6" marker-end="url(#arrowhead)"/><path d="M 610.16498,165.40863 C 610.16498,165.40863 605.7761,167.06829 605.88674,170.27697 C 605.99738,173.48565 609.1144,176.35606 610.60755,178.24334" class="stroke-order" fill="none" stroke="#2563eb" stroke-width="1.6" marker-end="url(#arrowhead)"/><text x="601.42249" y="145.96422" font-size="9" font-family="sans-serif" font-weight="700" fill="#dc2626">1</text><text x="599.5448" y="156.8131" font-size="9" font-family="sans-serif" font-weight="700" fill="#dc2626">2</text><text x="632.09143" y="138.24481" font-size="9" font-family="sans-serif" font-weight="700" fill="#dc2626">3</text>
  </g>
</svg>