<svg xmlns="http://www.w3.org/2000/svg" viewBox="580.6 355.0 82.0 82.0" width="200" height="200">
  <defs>
    <marker id="arrowhead" markerWidth="4" markerHeight="4" refX="1.5" refY="1.5"
            orient="auto-start-reverse" markerUnits="strokeWidth">
      <path d="M 0,0 L 3,1.5 L 0,3 z" fill="#2563eb"/>
    </marker>
  </defs>
  <rect x="580.6" y="355.0" width="82.0" height="82.0" fill="#FAFAFA"/>
  <g transform="">
    <path d="M 617.69131,382.78249 C 617.6288,383.65752 617.31628,385.06377 616.78506,387.03249 C 620.44129,388.12626 623.66002,388.78252 626.41006,389.00124 C 629.19128,389.18877 633.41001,389.18877 639.06631,389.00124 L 639.06631,384.78249 C 633.75378,385.03252 629.81627,385.09502 627.28506,384.96999 C 624.78503,384.84502 621.69127,384.12627 617.97256,382.78249 L 617.69131,382.78249 z M 612.94131,402.78249 C 612.00381,405.4075 611.69128,407.53249 611.97256,409.12624 C 612.2538,410.72 612.81628,411.96998 613.66006,412.87624 C 614.5038,413.78249 615.72253,414.46999 617.34756,414.96999 C 618.97254,415.46999 620.53502,415.84499 622.00381,416.09499 C 623.50379,416.31374 625.91002,416.43873 629.25381,416.43874 C 632.59754,416.43874 637.31626,416.37624 643.41006,416.28249 L 643.03506,411.40749 C 637.00377,411.93874 632.50377,412.18874 629.53506,412.15749 C 626.59753,412.12624 624.50377,412.0325 623.25381,411.87624 C 622.03505,411.68875 620.81628,411.43873 619.59756,411.09499 C 618.37879,410.75125 617.50378,410.34499 616.97256,409.87624 C 616.44129,409.37625 616.19128,408.6575 616.19131,407.75124 C 616.22255,406.81375 616.66003,405.62626 617.53506,404.18874 L 612.94131,402.78249 z " fill="#1a1a1a" fill-opacity="0.55"/><path d="M 618.03633,379.33008 C 619.21399,379.62449 636.29014,379.91891 636.29014,379.91891" class="stroke-order" fill="none" stroke="#2563eb" stroke-width="1.6" marker-end="url(#arrowhead)"/><path d="M 611.55917,418.48744 L 637.17339,421.4316" fill="#1a1a1a" fill-opacity="0.55"/><path d="M 611.55917,418.48744 L 637.17339,421.4316" class="stroke-order" fill="none" stroke="#2563eb" stroke-width="1.6" marker-end="url(#arrowhead)"/><text x="618.51837" y="376.92804" font-size="9" font-family="sans-serif" font-weight="700" fill="#dc2626">1</text><text x="605.81915" y="421.06299" font-size="9" font-family="sans-serif" font-weight="700" fill="#dc2626">2</text>
  </g>
</svg>