<svg xmlns="http://www.w3.org/2000/svg" viewBox="588.8 199.8 70.2 70.2" width="200" height="200">
  <defs>
    <marker id="arrowhead" markerWidth="4" markerHeight="4" refX="1.5" refY="1.5"
            orient="auto-start-reverse" markerUnits="strokeWidth">
      <path d="M 0,0 L 3,1.5 L 0,3 z" fill="#2563eb"/>
    </marker>
  </defs>
  <rect x="588.8" y="199.8" width="70.2" height="70.2" fill="#FAFAFA"/>
  <g transform="">
    <path d="M 629.11185,220.68041 C 629.14307,220.24295 629.42432,220.05545 629.9556,220.11791 L 634.2681,222.13354 C 634.76806,222.38358 634.73681,222.6492 634.17435,222.93041 L 633.3306,223.30541 C 629.95557,227.93045 626.54932,231.74294 623.11185,234.74291 C 619.67433,237.74294 617.84621,239.47731 617.62747,239.94604 C 617.43996,240.38356 617.42433,240.80543 617.5806,241.21167 C 617.73683,241.61793 619.50245,243.19606 622.87747,245.94604 C 626.2837,248.69605 630.59619,252.33667 635.81497,256.86791 L 635.81497,257.24291 C 634.75244,258.18042 633.50244,259.60229 632.06497,261.50854 C 627.06495,255.50854 622.62745,250.8523 618.75247,247.53979 C 614.90871,244.2273 612.92434,242.27418 612.79935,241.68041 C 612.70559,241.08668 612.72121,240.47731 612.84622,239.85229 C 612.97121,239.19606 614.84621,237.22731 618.47122,233.94604 C 622.0962,230.63357 624.79932,227.72732 626.5806,225.22729 C 628.39307,222.72733 629.23682,221.2117 629.11185,220.68041" fill="#1a1a1a" fill-opacity="0.55"/><path d="M 627.39235,217.84709 L 614.43804,231.68466" class="stroke-order" fill="none" stroke="#2563eb" stroke-width="1.6" marker-end="url(#arrowhead)"/><text x="617.91571" y="220.30806" font-size="9" font-family="sans-serif" font-weight="700" fill="#dc2626">1</text>
  </g>
</svg>