<svg xmlns="http://www.w3.org/2000/svg" viewBox="264.2 37.8 72.0 72.0" width="200" height="200">
  <defs>
    <marker id="arrowhead" markerWidth="4" markerHeight="4" refX="1.5" refY="1.5"
            orient="auto-start-reverse" markerUnits="strokeWidth">
      <path d="M 0,0 L 3,1.5 L 0,3 z" fill="#2563eb"/>
    </marker>
  </defs>
  <rect x="264.2" y="37.8" width="72.0" height="72.0" fill="#FAFAFA"/>
  <g transform="translate(2.360406,0.819797)">
    <path d="M 303.98459,56.420002 C 303.51581,56.482542 303.35955,56.732542 303.48459,57.170002 C 303.82832,57.607542 304.10955,59.982532 304.32834,64.295002 C 298.85957,64.576282 293.64081,64.607532 288.70334,64.388752 L 288.48459,64.701252 C 288.98458,66.232532 289.20331,67.638782 289.14084,68.888752 C 294.14083,68.545032 299.2658,68.232532 304.51584,67.951252 C 304.57832,69.576272 304.60955,70.857532 304.60959,71.826252 C 304.64082,72.763782 304.6408,73.607532 304.64084,74.357502 C 300.70332,74.482512 298.14081,74.482522 296.92209,74.357502 C 295.73458,74.201272 294.57831,73.795022 293.45334,73.107502 L 291.23459,76.482502 C 292.85958,77.420022 294.45331,77.951272 296.01584,78.107502 C 297.60957,78.232512 300.5158,78.232522 304.70334,78.076252 C 304.73457,79.357522 304.7658,81.138772 304.79709,83.451252 C 302.35957,83.013772 300.17205,82.920012 298.23459,83.138752 C 296.32833,83.357512 294.67206,83.951262 293.29709,84.920002 C 291.95333,85.888762 291.07831,87.076262 290.64084,88.513752 C 290.20333,89.920012 290.14081,91.138762 290.45334,92.170002 C 290.79708,93.170002 291.42206,94.076252 292.32834,94.857502 C 293.26583,95.638752 294.39081,96.232502 295.70334,96.638752 C 297.04708,97.076252 298.32831,97.295002 299.57834,97.295002 C 300.82832,97.295002 302.10955,97.138752 303.39084,96.857502 C 304.67207,96.576242 305.8283,95.951252 306.85959,94.982502 C 307.89082,94.013752 308.48455,92.982502 308.67209,91.857502 C 308.85956,90.732502 308.98454,89.545012 309.01584,88.326252 C 312.29706,89.576262 315.82829,91.545002 319.60959,94.201252 C 320.42205,92.482502 321.26579,91.076262 322.17209,90.013752 L 322.17209,89.451252 C 317.35955,87.232512 312.98455,85.576262 309.04709,84.482502 C 308.98456,81.576262 308.95329,79.388762 308.92209,77.888752 C 313.57831,77.638772 316.98454,77.420022 319.14084,77.232502 L 318.76584,73.201252 C 316.14081,73.638772 312.82829,73.951282 308.82834,74.170002 C 308.82831,73.638772 308.79705,72.951282 308.76584,72.107502 C 308.76581,71.232522 308.73455,69.763782 308.67209,67.701252 C 314.10955,67.420032 318.32829,67.138782 321.32834,66.857502 L 320.67209,62.732502 C 317.2658,63.263782 313.26579,63.701282 308.64084,64.013752 C 308.60956,62.357532 308.54705,60.513782 308.48459,58.482502 L 309.14084,57.388752 C 309.35956,56.982542 309.2658,56.732542 308.85959,56.607502 L 303.98459,56.420002 z M 300.17209,86.263752 C 301.37326,86.298912 302.883,86.584072 304.73459,87.076252 C 304.70331,88.513762 304.60955,89.701262 304.45334,90.670002 C 304.29706,91.607502 303.85955,92.326252 303.10959,92.795002 C 302.35957,93.232502 301.54706,93.513752 300.70334,93.638752 C 299.85957,93.732502 298.73455,93.638762 297.29709,93.388752 C 295.89083,93.107512 294.98456,92.326262 294.60959,91.045002 C 294.23457,89.732502 294.57831,88.670012 295.60959,87.826252 C 296.64083,86.951262 297.79706,86.451262 299.07834,86.326252 C 299.40646,86.287192 299.7717,86.252032 300.17209,86.263752 z " fill="#1a1a1a" fill-opacity="0.55"/><path d="M 284.9776,61.287415 C 284.9776,61.287415 296.51327,61.276389 301.22779,61.098852" class="stroke-order" fill="none" stroke="#2563eb" stroke-width="1.6" marker-end="url(#arrowhead)"/><text x="279.37015" y="64.09156" font-size="9" font-family="sans-serif" font-weight="700" fill="#dc2626">1</text><path d="M 284.9776,71.287415 C 284.9776,71.287415 297.54595,71.128864 302.26047,70.951327" class="stroke-order" fill="none" stroke="#2563eb" stroke-width="1.6" marker-end="url(#arrowhead)"/><text x="279.35571" y="73.069183" font-size="9" font-family="sans-serif" font-weight="700" fill="#dc2626">2</text><path d="M 312.42863,50.558831 C 312.42863,50.558831 312.13416,57.549118 312.05014,60.396752" class="stroke-order" fill="none" stroke="#2563eb" stroke-width="1.6" marker-end="url(#arrowhead)"/><text x="316.3884" y="58.561241" font-size="9" font-family="sans-serif" font-weight="700" fill="#dc2626">3</text><path d="M 293.54578,101.11668 C 280.7428,97.383889 285.37955,88.166453 286.59149,83.825125" class="stroke-order" fill="none" stroke="#2563eb" stroke-width="1.6" marker-end="url(#arrowhead)"/><path d="M 316.70397,83.591553 C 317.32987,83.800186 327.03128,87.451253 327.03128,87.451253" class="stroke-order" fill="none" stroke="#2563eb" stroke-width="1.6" marker-end="url(#arrowhead)"/>
  </g>
</svg>