<svg xmlns="http://www.w3.org/2000/svg" viewBox="272.0 277.0 70.9 70.9" width="200" height="200">
  <defs>
    <marker id="arrowhead" markerWidth="4" markerHeight="4" refX="1.5" refY="1.5"
            orient="auto-start-reverse" markerUnits="strokeWidth">
      <path d="M 0,0 L 3,1.5 L 0,3 z" fill="#2563eb"/>
    </marker>
  </defs>
  <rect x="272.0" y="277.0" width="70.9" height="70.9" fill="#FAFAFA"/>
  <g transform="">
    <path d="M 310.16846,300.58344 C 309.81689,300.58345 309.61375,300.76315 309.54346,301.11469 C 309.88719,301.67723 309.63717,303.67722 308.82471,307.08344 C 307.51218,307.20847 305.91842,307.45847 304.04346,307.83344 C 302.19969,308.17722 300.60593,308.70847 299.26221,309.42719 C 297.94969,310.14597 297.10593,310.64597 296.73096,310.92719 C 296.29344,309.52097 295.85593,307.95847 295.41846,306.23969 L 295.66846,305.30219 C 295.85595,304.77097 295.66843,304.55222 295.10596,304.64594 L 291.07471,305.20844 C 290.60595,305.27097 290.51218,305.55222 290.79346,306.05219 C 291.1372,306.36472 291.54344,307.48972 292.04346,309.42719 C 292.5747,311.36472 293.01218,312.80221 293.32471,313.73969 C 293.0122,314.08346 292.38719,314.80222 291.48096,315.92719 C 290.60595,317.02097 289.76219,318.64596 288.91846,320.77094 C 288.07471,322.8647 287.66844,325.1147 287.69971,327.52094 C 287.73096,329.9272 288.04344,331.70845 288.63721,332.86469 C 289.26221,333.98969 290.19968,334.89595 291.44971,335.61469 C 292.6997,336.3022 293.88718,336.58344 295.01221,336.42719 C 296.16845,336.23969 297.32468,335.8022 298.51221,335.14594 C 299.73094,334.45844 301.01218,333.23969 302.35596,331.45844 C 302.82469,332.14595 303.29343,332.83344 303.76221,333.52094 C 305.44968,331.89595 306.69967,330.8022 307.51221,330.27094 L 307.51221,329.80219 C 306.69968,328.9897 305.94967,328.14595 305.23096,327.27094 C 306.73094,324.8022 308.01217,322.27095 309.07471,319.64594 C 310.16843,316.98971 311.16841,314.14597 312.07471,311.14594 C 312.51218,311.20846 313.32467,311.39597 314.54346,311.67719 C 315.76217,311.92722 317.07466,312.61471 318.48096,313.73969 C 319.91842,314.86471 320.9809,316.36471 321.63721,318.23969 C 322.32467,320.11471 322.63715,321.86471 322.57471,323.52094 C 322.51217,325.14595 322.04341,326.8647 321.19971,328.64594 C 320.35592,330.4272 318.91841,331.83345 316.85596,332.89594 C 314.79343,333.95844 312.10591,334.61469 308.79346,334.83344 L 308.79346,335.39594 C 309.57469,336.83344 310.07467,338.14594 310.32471,339.33344 C 314.79343,338.55219 318.16841,337.30219 320.44971,335.61469 C 322.76217,333.89595 324.44966,331.9272 325.51221,329.67719 C 326.57466,327.39595 327.13715,325.2397 327.16846,323.20844 C 327.23092,321.14596 326.88715,319.02096 326.13721,316.86469 C 325.41842,314.67722 323.94965,312.70847 321.73096,310.95844 C 319.54343,309.20846 317.69966,308.20847 316.19971,307.92719 C 314.73093,307.61472 313.73092,307.39597 313.23096,307.30219 C 313.60593,305.95848 313.98092,304.55223 314.35596,303.08344 L 315.10596,302.30219 C 315.54342,301.89598 315.44966,301.64598 314.82471,301.55219 L 310.57471,300.64594 C 310.42627,300.60688 310.28565,300.58344 310.16846,300.58344 z M 307.79346,310.95844 C 307.10593,313.36471 306.32467,315.70846 305.41846,317.95844 C 304.54344,320.17721 303.63717,322.11471 302.69971,323.80219 C 301.32469,321.61471 300.29342,319.83346 299.60596,318.42719 C 298.91845,316.98971 298.38718,315.77097 298.01221,314.80219 C 298.8247,314.17722 299.98093,313.45846 301.51221,312.61469 C 303.04344,311.77097 305.13717,311.20847 307.79346,310.95844 z M 295.01221,318.08344 C 296.54345,321.3022 297.69968,323.61471 298.48096,325.02094 C 299.2622,326.39595 299.79343,327.33345 300.10596,327.80219 C 298.60594,329.83345 297.32468,331.1147 296.26221,331.64594 C 295.19969,332.14595 294.35594,332.23969 293.73096,331.92719 C 293.10595,331.6147 292.66843,331.1147 292.38721,330.42719 C 292.1372,329.7397 292.04343,328.45845 292.10596,326.61469 C 292.16845,324.73971 292.48093,323.11471 293.04346,321.73969 C 293.6372,320.36471 294.29343,319.14596 295.01221,318.08344 z " fill="#1a1a1a" fill-opacity="0.55"/><path d="M 295.62089,296.62029 L 298.95183,306.82129" class="stroke-order" fill="none" stroke="#2563eb" stroke-width="1.6" marker-end="url(#arrowhead)"/><text x="296.82495" y="297.60834" font-size="9" font-family="sans-serif" font-weight="700" fill="#dc2626">1</text><path d="M 321.85204,294.22618 L 317.1679,304.84354" class="stroke-order" fill="none" stroke="#2563eb" stroke-width="1.6" marker-end="url(#arrowhead)"/><text x="323.36768" y="300.00244" font-size="9" font-family="sans-serif" font-weight="700" fill="#dc2626">2</text><path d="M 292.18585,338.77749 C 292.18585,338.77749 286.51284,337.73658 284.89942,333.98927 C 283.286,330.24196 285.10761,326.33851 285.73216,323.78826" class="stroke-order" fill="none" stroke="#2563eb" stroke-width="1.6" marker-end="url(#arrowhead)"/><path d="M 328.20164,317.02229 C 328.20164,317.02229 331.61511,320.23881 331.25079,324.4285 C 330.88646,328.6182 328.38619,331.36933 326.74435,333.78108" class="stroke-order" fill="none" stroke="#2563eb" stroke-width="1.6" marker-end="url(#arrowhead)"/>
  </g>
</svg>