<svg xmlns="http://www.w3.org/2000/svg" viewBox="262.6 113.7 80.0 80.0" width="200" height="200">
  <defs>
    <marker id="arrowhead" markerWidth="4" markerHeight="4" refX="1.5" refY="1.5"
            orient="auto-start-reverse" markerUnits="strokeWidth">
      <path d="M 0,0 L 3,1.5 L 0,3 z" fill="#2563eb"/>
    </marker>
  </defs>
  <rect x="262.6" y="113.7" width="80.0" height="80.0" fill="#FAFAFA"/>
  <g transform="">
    <path d="M 303.91414,142.12041 C 303.83602,142.12041 303.7735,142.18293 303.72664,142.27666 L 303.19539,142.77666 C 298.07037,143.43294 293.41411,143.87044 289.19539,144.05791 L 288.94539,144.62041 C 289.50788,145.62044 289.88286,146.93295 290.03914,148.58916 C 294.91413,147.49544 298.75786,146.80795 301.60164,146.52666 C 300.60162,150.83918 299.50785,154.71419 298.28914,158.15166 C 296.97662,158.18292 295.47661,158.33918 293.78914,158.58916 C 292.13288,158.80793 290.41412,159.43293 288.66414,160.46416 C 286.94538,161.46418 285.57037,162.77668 284.50789,164.43291 C 283.44539,166.05793 283.00787,167.77667 283.22664,169.55791 C 283.44538,171.30792 283.97662,172.62042 284.82039,173.49541 C 285.66413,174.37041 286.85161,174.93291 288.35164,175.18291 C 289.88288,175.43291 291.41411,175.18292 292.94539,174.46416 C 294.50788,173.71416 295.91411,172.30792 297.19539,170.24541 C 298.50787,168.18292 299.8516,165.40167 301.19539,161.87041 C 303.16412,162.05793 305.25785,162.46418 307.50789,163.12041 C 309.75786,163.74543 311.69534,164.43293 313.28914,165.18291 C 312.32036,167.55793 311.00785,169.74542 309.38289,171.71416 C 307.75786,173.68291 305.50785,175.49542 302.60164,177.18291 L 302.60164,177.62041 C 303.91412,178.80791 304.9766,180.05791 305.78914,181.37041 C 309.25786,178.40166 311.75784,175.80792 313.28914,173.62041 C 314.85161,171.43292 316.13284,169.27667 317.13289,167.12041 C 318.8516,168.08917 320.72658,169.18292 322.75789,170.43291 C 323.88285,168.49542 324.88283,167.12042 325.78914,166.27666 L 325.78914,165.93291 C 323.19534,164.68293 320.85159,163.62043 318.75789,162.74541 C 319.44535,160.33918 320.00784,157.40168 320.44539,153.90166 L 320.91414,153.24541 C 321.32035,152.90169 321.32034,152.62044 320.91414,152.43291 L 316.47664,151.49541 C 315.91411,151.33919 315.66409,151.49544 315.75789,151.96416 C 315.88285,152.30793 315.82034,153.55794 315.57039,155.71416 C 315.32035,157.83918 315.00784,159.65168 314.63289,161.15166 C 313.2891,160.68292 311.53909,160.18293 309.38289,159.65166 C 307.22661,159.08917 304.9141,158.68293 302.44539,158.40166 C 303.72661,154.90168 305.1641,150.80794 306.75789,146.12041 L 307.66414,145.55791 C 308.44536,145.18294 308.4766,144.77669 307.78914,144.33916 C 306.69536,143.65169 305.50785,142.9642 304.19539,142.27666 C 304.08601,142.18293 303.99226,142.12041 303.91414,142.12041 z M 296.91414,161.77666 C 295.75787,164.65167 294.72661,166.80792 293.78914,168.24541 C 292.85163,169.65167 291.94536,170.52667 291.07039,170.90166 C 290.22663,171.24541 289.41411,171.27667 288.63289,170.96416 C 287.88288,170.62042 287.47661,169.90167 287.41414,168.80791 C 287.35163,167.71417 287.66411,166.65167 288.35164,165.62041 C 289.07038,164.58917 290.16411,163.74542 291.63289,163.08916 C 293.10163,162.40168 294.28911,162.02668 295.19539,161.96416 C 296.10163,161.87043 296.66411,161.80793 296.91414,161.77666 z " fill="#1a1a1a" fill-opacity="0.55"/><path d="M 296.52602,140.62437 L 313.45129,139.82563 L 307.54414,153.54422" class="stroke-order" fill="none" stroke="#2563eb" stroke-width="1.6" marker-end="url(#arrowhead)"/><text x="295.25961" y="137.96677" font-size="9" font-family="sans-serif" font-weight="700" fill="#dc2626">1</text><path d="M 288.55964,178.39086 C 272.33185,173.35656 280.66704,164.24687 284.42893,159.06504" class="stroke-order" fill="none" stroke="#2563eb" stroke-width="1.6" marker-end="url(#arrowhead)"/><path d="M 326.0922,148.82902 L 322.11643,160.65202" class="stroke-order" fill="none" stroke="#2563eb" stroke-width="1.6" marker-end="url(#arrowhead)"/><text x="326.95737" y="152.15376" font-size="9" font-family="sans-serif" font-weight="700" fill="#dc2626">2</text>
  </g>
</svg>