<svg xmlns="http://www.w3.org/2000/svg" viewBox="264.0 360.7 66.7 66.7" width="200" height="200">
  <defs>
    <marker id="arrowhead" markerWidth="4" markerHeight="4" refX="1.5" refY="1.5"
            orient="auto-start-reverse" markerUnits="strokeWidth">
      <path d="M 0,0 L 3,1.5 L 0,3 z" fill="#2563eb"/>
    </marker>
  </defs>
  <rect x="264.0" y="360.7" width="66.7" height="66.7" fill="#FAFAFA"/>
  <g transform="">
    <path d="M 310.72709,386.8258 L 311.61771,390.66955 C 309.05519,391.04458 305.68019,391.23208 301.49271,391.23205 C 301.21145,392.76332 300.97707,394.1227 300.78959,395.31017 C 300.60207,396.46645 300.44582,397.46644 300.32084,398.31017 C 300.78957,398.34144 301.94582,398.38832 303.78959,398.4508 C 305.63332,398.48207 308.38331,398.24769 312.03959,397.74767 L 312.88334,401.77893 C 309.00831,402.21644 306.00832,402.38831 303.88334,402.29455 C 301.75832,402.16956 300.39895,402.09144 299.80521,402.06017 C 299.6177,403.49769 299.44582,405.04456 299.28959,406.7008 C 299.13332,408.32581 299.27395,409.74768 299.71147,410.96643 C 300.14895,412.18518 301.03957,413.12268 302.38334,413.77893 C 303.72707,414.40393 305.44582,414.7633 307.53959,414.85705 C 309.63331,414.9508 311.53956,414.6383 313.25834,413.91955 C 315.00831,413.16955 316.16456,411.5758 316.72709,409.1383 C 317.28955,406.66956 317.0708,403.88831 316.07084,400.79455 C 317.5083,400.60707 319.03955,400.24769 320.66459,399.71643 C 321.6333,403.52894 321.80517,406.99768 321.18021,410.12267 C 320.55518,413.21643 318.8208,415.52893 315.97709,417.06017 C 313.13331,418.62267 310.13331,419.2633 306.97709,418.98205 C 303.82082,418.73205 301.28957,418.0133 299.38334,416.8258 C 297.50832,415.66955 296.2427,414.15393 295.58647,412.27893 C 294.9302,410.37268 294.71145,408.56018 294.93021,406.84143 C 295.14895,405.12269 295.38333,403.41956 295.63334,401.73205 C 294.94583,401.63831 294.07083,401.49769 293.00834,401.31017 C 291.94583,401.12269 290.38333,400.51332 288.32084,399.48205 L 290.19584,396.0133 C 292.19583,397.01332 293.58645,397.59144 294.36771,397.74767 C 295.1802,397.87269 295.78958,397.96644 296.19584,398.02893 C 296.28958,397.27894 296.4302,396.29457 296.61771,395.0758 C 296.8052,393.85707 297.00832,392.5602 297.22709,391.18517 C 295.00833,391.1227 292.58645,391.04458 289.96147,390.9508 C 290.02396,389.79458 289.91458,388.48208 289.63334,387.0133 L 289.91459,386.73205 C 292.82083,387.07583 295.47708,387.3102 297.88334,387.43517 C 298.07082,386.40396 298.35207,384.96646 298.72709,383.12267 C 299.10207,381.24771 299.1177,380.09146 298.77397,379.65393 C 298.8052,379.15396 299.02395,378.90396 299.43021,378.90393 L 304.02397,379.65393 C 304.43019,379.87271 304.46144,380.13834 304.11771,380.4508 L 303.36771,381.2008 C 302.93019,383.35708 302.52394,385.45083 302.14897,387.48205 C 305.11769,387.41958 307.97706,387.20083 310.72709,386.8258" fill="#1a1a1a" fill-opacity="0.55"/><path d="M 284.62907,383.34474 L 295.94191,383.71799" class="stroke-order" fill="none" stroke="#2563eb" stroke-width="1.6" marker-end="url(#arrowhead)"/><text x="278.85629" y="386.50778" font-size="9" font-family="sans-serif" font-weight="700" fill="#dc2626">2</text><path d="M 283.96446,393.70813 L 294.71066,393.85533" class="stroke-order" fill="none" stroke="#2563eb" stroke-width="1.6" marker-end="url(#arrowhead)"/><text x="278.78268" y="395.48746" font-size="9" font-family="sans-serif" font-weight="700" fill="#dc2626">3</text><path d="M 308.98985,375.2335 L 306.92893,384.80203" class="stroke-order" fill="none" stroke="#2563eb" stroke-width="1.6" marker-end="url(#arrowhead)"/><text x="311.09488" y="380.76663" font-size="9" font-family="sans-serif" font-weight="700" fill="#dc2626">1</text>
  </g>
</svg>