<svg xmlns="http://www.w3.org/2000/svg" viewBox="266.6 197.2 72.3 72.3" width="200" height="200">
  <defs>
    <marker id="arrowhead" markerWidth="4" markerHeight="4" refX="1.5" refY="1.5"
            orient="auto-start-reverse" markerUnits="strokeWidth">
      <path d="M 0,0 L 3,1.5 L 0,3 z" fill="#2563eb"/>
    </marker>
  </defs>
  <rect x="266.6" y="197.2" width="72.3" height="72.3" fill="#FAFAFA"/>
  <g transform="">
    <path d="M 297.49556,219.87103 C 297.05805,219.87107 296.87053,220.12107 296.96431,220.58978 C 297.21429,221.05857 297.33928,223.37107 297.30806,227.55853 C 294.43305,227.62107 291.15178,227.52732 287.46431,227.27728 L 287.30806,227.71478 C 287.5893,228.93356 287.77679,230.24606 287.87056,231.68353 C 290.93305,231.55856 294.05804,231.43356 297.24556,231.27728 C 297.21429,233.37105 297.15178,235.30855 297.05806,237.08978 C 296.83929,237.0273 296.37053,236.93356 295.62056,236.83978 C 294.87055,236.74605 293.90179,236.90231 292.74556,237.30853 C 291.62055,237.71481 290.62053,238.37105 289.71431,239.27728 C 288.80806,240.18354 288.18304,241.43355 287.83931,242.99603 C 287.52681,244.52729 287.46429,245.99604 287.68306,247.40228 C 287.9018,248.77729 288.43304,249.83979 289.24556,250.58978 C 290.05805,251.30854 290.99553,251.74604 292.05806,251.90228 C 293.12055,252.02729 294.12054,251.90229 295.08931,251.55853 C 294.7768,253.02729 294.93303,254.43354 295.55806,255.77728 C 296.18304,257.12103 297.37053,258.24603 299.08931,259.12103 C 300.80804,259.99603 303.18303,260.40228 306.24556,260.33978 C 309.33928,260.30853 311.83926,260.15228 313.71431,259.90228 C 315.62053,259.65227 317.33926,259.12103 318.87056,258.27728 C 320.43302,257.46478 321.43301,256.52728 321.90181,255.46478 C 322.37052,254.40228 322.40175,252.99603 321.96431,251.24603 C 321.55802,249.46479 321.05801,246.87105 320.49556,243.49603 L 315.80806,244.40228 C 316.71427,247.33979 317.30801,249.43354 317.58931,250.71478 C 317.90177,251.99603 317.96426,252.90229 317.77681,253.43353 C 317.62052,253.96479 317.12051,254.46479 316.24556,254.93353 C 315.40178,255.40229 314.15176,255.74604 312.49556,255.96478 C 310.83928,256.15228 308.77677,256.24604 306.33931,256.24603 C 303.90179,256.24604 302.27678,256.08978 301.46431,255.74603 C 300.65179,255.40228 300.08927,254.80854 299.74556,253.99603 C 299.4018,253.18354 299.30803,252.15229 299.49556,250.90228 C 299.71429,249.62103 300.12052,247.83979 300.68306,245.55853 C 301.27679,243.2773 301.33927,241.55855 300.87056,240.37103 C 301.05804,238.30855 301.21427,235.18356 301.33931,231.02728 C 305.33929,230.7773 309.12052,230.37106 312.71431,229.77728 L 312.02681,225.68353 C 308.02679,226.52732 304.49552,227.08981 301.43306,227.33978 C 301.46429,225.62106 301.49552,223.74607 301.52681,221.74603 L 302.02681,220.96478 C 302.33929,220.58982 302.27678,220.33982 301.83931,220.24603 L 297.49556,219.87103 z M 318.24556,230.24603 L 315.77681,233.71478 C 319.37053,235.6523 322.52675,238.2773 325.24556,241.58978 C 326.46427,239.99605 327.558,238.74605 328.55806,237.87103 L 328.55806,237.58978 C 325.83926,235.30855 322.40176,232.87105 318.24556,230.24603 z M 294.99556,240.02728 C 295.16158,240.02142 295.35493,240.01166 295.52681,240.02728 C 296.24555,240.08979 296.68303,240.4023 296.87056,240.96478 C 296.65179,244.37104 296.12053,246.4648 295.24556,247.24603 C 294.37055,248.02729 293.52678,248.33979 292.71431,248.15228 C 291.9018,247.96479 291.43303,247.49605 291.30806,246.77728 C 291.18305,246.05854 291.18303,245.1523 291.30806,244.05853 C 291.43305,242.9648 291.68304,242.1523 292.08931,241.58978 C 292.49555,241.0273 292.99554,240.62105 293.58931,240.37103 C 294.03461,240.16011 294.49751,240.04486 294.99556,240.02728 z " fill="#1a1a1a" fill-opacity="0.55"/><path d="M 283.54378,223.68115 L 293.42798,223.68115" class="stroke-order" fill="none" stroke="#2563eb" stroke-width="1.6" marker-end="url(#arrowhead)"/><text x="281.35297" y="221.19225" font-size="9" font-family="sans-serif" font-weight="700" fill="#dc2626">1</text><path d="M 305.75077,212.97817 L 305.02056,223.5743" class="stroke-order" fill="none" stroke="#2563eb" stroke-width="1.6" marker-end="url(#arrowhead)"/><text x="308.76288" y="218.16797" font-size="9" font-family="sans-serif" font-weight="700" fill="#dc2626">2</text><path d="M 289.96114,254.4402 C 289.96114,254.4402 284.7793,252.6699 283.32249,249.57186 C 281.86567,246.47383 284.85307,242.36155 285.97795,240.20399" class="stroke-order" fill="none" stroke="#2563eb" stroke-width="1.6" marker-end="url(#arrowhead)"/><path d="M 325.66227,256.43179 L 324.99841,246.62134" class="stroke-order" fill="none" stroke="#2563eb" stroke-width="1.6" marker-end="url(#arrowhead)"/><path d="M 320.79394,227.59057 L 330.08804,234.30298" class="stroke-order" fill="none" stroke="#2563eb" stroke-width="1.6" marker-end="url(#arrowhead)"/><text x="322.96735" y="227.38831" font-size="9" font-family="sans-serif" font-weight="700" fill="#dc2626">3</text>
  </g>
</svg>