<svg xmlns="http://www.w3.org/2000/svg" viewBox="10.9 41.0 71.5 71.5" width="200" height="200">
  <defs>
    <marker id="arrowhead" markerWidth="4" markerHeight="4" refX="1.5" refY="1.5"
            orient="auto-start-reverse" markerUnits="strokeWidth">
      <path d="M 0,0 L 3,1.5 L 0,3 z" fill="#2563eb"/>
    </marker>
  </defs>
  <rect x="10.9" y="41.0" width="71.5" height="71.5" fill="#FAFAFA"/>
  <g transform="">
    <path d="M 45.894968,57.056819 C 47.738698,57.931859 49.379318,58.525609 50.816848,58.838069 C 51.160568,59.119349 51.113688,59.400599 50.676218,59.681819 L 49.738718,60.291199 C 46.269948,67.166219 43.394948,72.869339 41.113718,77.400569 C 43.551198,75.744339 45.363698,74.822459 46.551218,74.634939 C 47.738698,74.447459 48.769948,74.478709 49.644968,74.728699 C 50.551198,74.978709 51.285568,75.525589 51.848098,76.369319 C 52.410568,77.181839 52.816818,78.884959 53.066848,81.478699 C 53.316818,84.041199 53.629318,86.197449 54.004348,87.947439 C 54.379318,89.697449 55.301188,90.603701 56.769968,90.666201 C 58.238688,90.697451 59.598058,89.916201 60.848098,88.322439 C 62.129308,86.697449 63.207428,84.541199 64.082468,81.853699 C 64.957428,79.134959 65.379308,77.541209 65.348098,77.072439 L 65.863718,77.072439 C 67.269928,78.291209 68.691798,79.306829 70.129348,80.119319 C 69.754298,80.900579 69.098048,82.353709 68.160598,84.478699 C 67.223048,86.603699 65.848048,88.869319 64.035598,91.275571 C 62.254308,93.650571 60.082438,94.900571 57.519968,95.025571 C 54.988688,95.150571 53.176188,94.713071 52.082468,93.713071 C 51.019938,92.681821 50.301198,91.134951 49.926218,89.072439 C 49.582448,87.009949 49.316818,84.900579 49.129348,82.744319 C 48.973068,80.556829 48.598068,79.166209 48.004348,78.572439 C 47.410568,77.978709 46.598068,77.900589 45.566848,78.338069 C 44.535578,78.744339 43.269948,79.478709 41.769968,80.541199 C 40.269958,81.572459 38.973078,82.619329 37.879348,83.681819 C 37.098078,85.181829 36.004328,87.244329 34.598098,89.869319 C 33.191838,92.494321 32.129338,94.478691 31.410598,95.822441 C 30.035588,94.541191 28.644968,93.650571 27.238718,93.150571 L 27.238718,92.588071 C 32.269958,84.994329 36.551208,77.369339 40.082468,69.713069 C 43.644948,62.025599 45.301198,57.994359 45.051218,57.619319 C 44.957448,57.056859 45.238698,56.869359 45.894968,57.056819" fill="#1a1a1a" fill-opacity="0.55"/><path d="M 39.22289,60.504948 L 26.079049,82.202717" class="stroke-order" fill="none" stroke="#2563eb" stroke-width="1.6" marker-end="url(#arrowhead)"/><path d="M 21.63142,90.27176 C 21.63142,90.27176 21.336241,97.226666 26.058981,98.491766 C 31.949793,100.06977 37.64156,96.022762 43.110072,92.515194" class="stroke-order" fill="none" stroke="#2563eb" stroke-width="1.6" marker-end="url(#arrowhead)"/><path d="M 64.68988,97.576606 C 69.558218,95.880065 72.619369,86.844135 73.688928,84.151797" class="stroke-order" fill="none" stroke="#2563eb" stroke-width="1.6" marker-end="url(#arrowhead)"/><text x="25.525475" y="65.344055" font-size="9" font-family="sans-serif" font-weight="700" fill="#dc2626">1</text>
  </g>
</svg>