<svg xmlns="http://www.w3.org/2000/svg" viewBox="393.6 35.0 72.5 72.5" width="200" height="200">
  <defs>
    <marker id="arrowhead" markerWidth="4" markerHeight="4" refX="1.5" refY="1.5"
            orient="auto-start-reverse" markerUnits="strokeWidth">
      <path d="M 0,0 L 3,1.5 L 0,3 z" fill="#2563eb"/>
    </marker>
  </defs>
  <rect x="393.6" y="35.0" width="72.5" height="72.5" fill="#FAFAFA"/>
  <g transform="">
    <path d="M 426.60263,58.471248 C 426.29012,58.565038 426.1026,58.783788 426.07138,59.127498 C 426.38386,59.690028 426.2901,60.815038 425.79013,62.502498 C 425.32136,64.190028 424.9151,65.596288 424.57138,66.721248 C 421.54012,67.033778 418.25886,67.190028 414.72763,67.189998 C 415.10262,68.533768 415.35261,69.971278 415.44638,71.502498 C 418.13387,71.252518 420.69636,71.002528 423.16513,70.721248 C 422.35261,72.815018 421.19636,75.377528 419.69638,78.439998 C 418.22762,81.471258 416.32136,84.752508 413.94638,88.252498 L 413.97763,88.658748 C 415.16512,89.283758 416.47761,90.190008 417.88388,91.377498 C 420.50887,86.565008 422.5401,82.502518 423.97763,79.189998 C 425.44637,75.877518 426.69635,72.846268 427.75888,70.064998 C 431.7276,69.502528 434.88384,68.940028 437.19638,68.377498 L 435.88388,64.533748 C 433.97761,65.158778 431.72759,65.690028 429.16513,66.127498 C 429.66511,64.533778 430.22759,62.721288 430.82138,60.721248 L 431.50888,59.971248 C 431.9151,59.596288 431.91509,59.346288 431.50888,59.189998 L 426.60263,58.471248 z M 442.85263,65.783748 L 441.07138,69.439998 C 444.60259,70.815018 448.25883,72.846278 452.04013,75.533748 C 453.00883,73.971278 453.85257,72.627518 454.57138,71.471248 C 450.35259,69.315028 446.44633,67.408778 442.85263,65.783748 z M 438.16513,74.846248 C 437.57135,74.846268 437.35259,75.096268 437.50888,75.596248 C 437.7276,76.002518 437.88384,77.190018 437.97763,79.189998 C 438.07135,81.190008 438.13383,83.440008 438.13388,85.908748 C 436.35261,85.565008 434.69634,85.440008 433.16513,85.533748 C 431.66511,85.596258 430.25884,85.908758 428.94638,86.471248 C 427.66511,87.002508 426.6651,87.908758 425.97763,89.189998 C 425.29011,90.471258 424.9776,91.752498 425.04013,93.033748 C 425.13386,94.314998 425.63385,95.408758 426.54013,96.346251 C 427.44636,97.283751 428.57134,97.908751 429.88388,98.221251 C 431.22761,98.565001 432.44634,98.752502 433.54013,98.752502 C 434.66511,98.752502 435.79009,98.596252 436.91513,98.283751 C 438.0401,98.002501 439.04008,97.440001 439.91513,96.596251 C 440.7901,95.783748 441.32134,94.783758 441.54013,93.627498 C 441.79009,92.439998 441.94633,91.565008 442.00888,90.971248 C 443.13384,91.440008 444.38383,92.064998 445.75888,92.846248 C 447.13384,93.627498 448.94632,94.721248 451.16513,96.127498 C 451.88384,94.533748 452.66507,93.127498 453.50888,91.908748 C 448.82134,89.565008 445.07133,87.908758 442.25888,86.971248 C 442.2276,83.658768 442.19633,80.221268 442.16513,76.658748 L 442.57138,75.971248 C 442.85259,75.596268 442.79008,75.315028 442.38388,75.158748 L 438.16513,74.846248 z M 434.25888,88.846248 C 434.79794,88.838438 435.27449,88.893128 435.69638,89.002498 C 436.54011,89.221258 437.32133,89.408758 438.04013,89.596248 C 438.00885,90.315008 437.91509,91.096258 437.79013,91.939998 C 437.6651,92.783748 437.38383,93.471248 436.91513,93.971248 C 436.44636,94.471248 435.88384,94.783758 435.22763,94.939998 C 434.57136,95.064998 433.66509,95.127498 432.50888,95.096248 C 431.38386,95.033748 430.50884,94.783758 429.88388,94.377498 C 429.29011,93.971248 429.04009,93.377498 429.13388,92.564998 C 429.22761,91.721248 429.47759,90.971258 429.88388,90.346248 C 430.29011,89.690008 431.13385,89.252508 432.44638,89.033748 C 433.10261,88.908748 433.71982,88.854058 434.25888,88.846248 z " fill="#1a1a1a" fill-opacity="0.55"/><text x="451.09698" y="62.388508" font-size="9" font-family="sans-serif" font-weight="700" fill="#dc2626">3</text><path d="M 409.53046,63.763641 C 411.00571,63.763641 420.00476,62.140862 420.00476,62.140862" class="stroke-order" fill="none" stroke="#2563eb" stroke-width="1.6" marker-end="url(#arrowhead)"/><path d="M 437.70781,52.994289 L 433.72462,61.698286" class="stroke-order" fill="none" stroke="#2563eb" stroke-width="1.6" marker-end="url(#arrowhead)"/><path d="M 444.78902,62.730964 L 456.14848,68.189403" class="stroke-order" fill="none" stroke="#2563eb" stroke-width="1.6" marker-end="url(#arrowhead)"/><path d="M 445.52665,74.97557 L 445.67418,85.302347" class="stroke-order" fill="none" stroke="#2563eb" stroke-width="1.6" marker-end="url(#arrowhead)"/><text x="438.76831" y="55.798409" font-size="9" font-family="sans-serif" font-weight="700" fill="#dc2626">2</text><text x="448.94946" y="83.94593" font-size="9" font-family="sans-serif" font-weight="700" fill="#dc2626">4</text><text x="408.68805" y="60.257797" font-size="9" font-family="sans-serif" font-weight="700" fill="#dc2626">1</text>
  </g>
</svg>