<svg xmlns="http://www.w3.org/2000/svg" viewBox="393.2 276.7 73.9 73.9" width="200" height="200">
  <defs>
    <marker id="arrowhead" markerWidth="4" markerHeight="4" refX="1.5" refY="1.5"
            orient="auto-start-reverse" markerUnits="strokeWidth">
      <path d="M 0,0 L 3,1.5 L 0,3 z" fill="#2563eb"/>
    </marker>
  </defs>
  <rect x="393.2" y="276.7" width="73.9" height="73.9" fill="#FAFAFA"/>
  <g transform="">
    <path d="M 424.35856,300.18461 C 424.12418,300.25494 424.0851,300.51277 424.20231,300.93461 C 424.4523,301.30965 424.51478,302.49715 424.42106,304.52836 C 424.32729,306.55965 424.26478,308.46589 424.23356,310.21586 C 421.17105,310.96589 417.98353,311.49714 414.63981,311.80961 L 414.54606,312.21586 C 415.26481,313.46589 415.82729,314.80964 416.23356,316.24711 C 418.7648,315.40338 421.42103,314.55963 424.20231,313.68461 C 424.2023,314.30963 424.20228,315.40339 424.20231,316.99711 C 423.35855,318.80962 422.38979,320.68463 421.32731,322.59086 C 419.0148,325.12212 416.38979,328.15337 413.45231,331.71586 C 414.98355,332.68462 416.20229,333.84087 417.07731,335.18461 L 417.35856,335.24711 C 419.73355,331.55962 422.01478,328.34087 424.20231,325.62211 C 424.2023,326.46587 424.20228,328.18462 424.20231,330.74711 C 424.23355,333.30961 424.29603,336.68462 424.38981,340.90336 C 426.2023,340.46586 427.79603,340.21586 429.20231,340.12211 L 429.35856,339.68461 C 428.85854,335.55961 428.57727,331.96587 428.51481,328.90336 C 428.48354,325.84088 428.45227,323.15338 428.42106,320.84086 C 431.35854,317.87213 433.95227,315.77838 436.20231,314.52836 C 438.48353,313.27838 440.32727,312.55964 441.76481,312.37211 C 443.23352,312.15339 444.51476,312.37214 445.60856,313.05961 C 446.73352,313.74713 447.546,314.80963 448.01481,316.21586 C 448.48352,317.62213 448.796,319.12213 448.95231,320.74711 C 449.10852,322.34087 449.171,323.71587 449.13981,324.84086 C 449.10852,325.93462 449.046,326.77837 448.95231,327.37211 C 447.07728,326.34087 445.20226,325.68462 443.32731,325.40336 C 441.48353,325.09087 439.85852,325.24713 438.48356,325.90336 C 437.13978,326.52838 436.20227,327.43463 435.63981,328.62211 C 435.10854,329.80961 434.92102,330.93462 435.07731,331.99711 C 435.26479,333.05961 435.82727,334.09086 436.76481,335.05961 C 437.70228,336.02836 438.95227,336.74711 440.54606,337.21586 C 442.13978,337.68461 443.98351,337.59086 446.04606,336.93461 C 448.13977,336.27836 449.70226,335.15336 450.76481,333.55961 C 451.82727,334.62211 452.88975,335.80961 453.95231,337.12211 C 455.01476,335.74711 456.13975,334.52837 457.29606,333.49711 L 457.13981,333.02836 C 455.57726,331.80962 454.046,330.68462 452.54606,329.65336 C 452.85851,328.52837 453.046,327.12212 453.10856,325.40336 C 453.20226,323.68462 453.20225,321.87213 453.07731,319.99711 C 452.95227,318.12212 452.38975,316.15339 451.38981,314.09086 C 450.38977,311.99714 448.92101,310.52839 447.01481,309.65336 C 445.10852,308.77839 443.20226,308.49714 441.26481,308.80961 C 439.32728,309.12214 437.17102,309.93464 434.79606,311.27836 C 432.45229,312.62214 430.32727,314.12213 428.42106,315.74711 L 428.35856,315.12211 C 428.92104,314.27838 429.63977,313.24714 430.48356,312.02836 L 432.07731,311.18461 C 432.73354,310.80963 432.82727,310.46589 432.35856,310.12211 C 431.20229,309.43464 430.13977,308.84089 429.17106,308.34086 C 429.01479,308.21589 428.85852,308.21589 428.70231,308.34086 L 428.51481,308.65336 C 428.57729,306.49715 428.67102,304.2784 428.79606,301.99711 L 429.35856,301.21586 C 429.63979,300.9034 429.57728,300.6534 429.20231,300.49711 L 424.67106,300.18461 C 424.55387,300.169 424.43669,300.16117 424.35856,300.18461 z M 442.04606,328.52836 C 443.57727,328.52837 445.48351,329.34087 447.73356,330.93461 C 447.07728,332.21587 446.07726,333.09086 444.76481,333.55961 C 443.45227,334.02836 442.29601,334.05962 441.26481,333.68461 C 440.23353,333.27836 439.48352,332.74711 439.04606,332.05961 C 438.63978,331.34087 438.67101,330.55962 439.10856,329.74711 C 439.54603,328.93461 440.51477,328.52837 442.04606,328.52836 z " fill="#1a1a1a" fill-opacity="0.55"/><path d="M 410.73327,329.02215 C 410.73327,329.02215 406.8897,337.05229 409.37268,338.94607 C 412.88195,341.6226 417.08255,337.94533 420.34645,335.98098" class="stroke-order" fill="none" stroke="#2563eb" stroke-width="1.6" marker-end="url(#arrowhead)"/><path d="M 431.46076,295.16301 L 432.50168,305.36401" class="stroke-order" fill="none" stroke="#2563eb" stroke-width="1.6" marker-end="url(#arrowhead)"/><text x="434.15485" y="297.64099" font-size="9" font-family="sans-serif" font-weight="700" fill="#dc2626">1</text><path d="M 411.6777,308.28429 L 421.61425,307.18023" class="stroke-order" fill="none" stroke="#2563eb" stroke-width="1.6" marker-end="url(#arrowhead)"/><text x="409.07733" y="304.91266" font-size="9" font-family="sans-serif" font-weight="700" fill="#dc2626">2</text><path d="M 447.55887,307.05396 C 447.55887,307.05396 451.90476,307.10969 454.57128,310.23156 C 456.83037,312.87641 456.46496,318.30274 456.59954,321.86406" class="stroke-order" fill="none" stroke="#2563eb" stroke-width="1.6" marker-end="url(#arrowhead)"/>
  </g>
</svg>