<svg xmlns="http://www.w3.org/2000/svg" viewBox="392.8 118.9 71.0 71.0" width="200" height="200">
  <defs>
    <marker id="arrowhead" markerWidth="4" markerHeight="4" refX="1.5" refY="1.5"
            orient="auto-start-reverse" markerUnits="strokeWidth">
      <path d="M 0,0 L 3,1.5 L 0,3 z" fill="#2563eb"/>
    </marker>
  </defs>
  <rect x="392.8" y="118.9" width="71.0" height="71.0" fill="#FAFAFA"/>
  <g transform="">
    <path d="M 419.24062,142.57981 C 418.70937,142.61109 418.45935,142.82985 418.49062,143.23606 C 418.74062,143.6736 418.70935,145.51734 418.42812,148.73606 C 418.17811,151.95484 417.9906,156.11109 417.83437,161.23606 C 417.67812,166.36108 417.7406,170.07982 418.05312,172.39231 C 418.39686,174.70481 419.0531,176.57981 420.02187,177.98606 C 420.99061,179.42356 422.14684,180.01731 423.45937,179.79856 C 424.77186,179.61106 426.52184,178.23606 428.70937,175.67356 C 427.61561,174.57982 426.52184,173.29856 425.45937,171.79856 L 425.27187,171.79856 C 424.52185,173.64231 423.95934,174.51731 423.58437,174.42356 C 423.24061,174.32981 422.89684,173.51732 422.52187,172.01731 C 422.17811,170.48606 422.0531,167.01732 422.17812,161.57981 C 422.30311,156.14233 422.6781,150.48609 423.30312,144.64231 L 423.86562,143.89231 C 424.27185,143.48609 424.27184,143.20484 423.86562,143.01731 L 419.24062,142.57981 z M 452.74062,146.20481 C 449.36558,146.42359 446.14682,146.6111 443.08437,146.79856 C 440.05309,146.9861 436.74058,147.20484 433.14687,147.42356 L 433.39687,151.48606 C 437.52185,151.01734 440.92807,150.73609 443.61562,150.64231 C 446.33434,150.54858 449.42806,150.48609 452.89687,150.45481 C 452.74058,148.89233 452.67807,147.48609 452.74062,146.20481 z M 435.67812,164.86106 L 431.33437,165.07981 C 431.58435,167.17357 432.02184,168.98607 432.67812,170.48606 C 433.33435,171.98607 434.20933,173.20482 435.30312,174.17356 C 436.39684,175.14232 438.05308,175.86107 440.24062,176.32981 C 442.42809,176.79856 447.17807,176.95481 454.52187,176.76731 C 454.61557,175.20481 454.80306,173.73606 455.08437,172.36106 L 454.89687,172.11106 C 448.30308,172.61107 444.05307,172.73607 442.14687,172.45481 C 440.27184,172.14232 438.77183,171.39232 437.61562,170.23606 C 436.45935,169.04857 435.80308,167.26732 435.67812,164.86106 z " fill="#1a1a1a" fill-opacity="0.55"/><path d="M 414.79689,143.92055 C 412.72846,149.65614 413.80742,160.71006 414.03395,166.86292" class="stroke-order" fill="none" stroke="#2563eb" stroke-width="1.6" marker-end="url(#arrowhead)"/><text x="407.55438" y="150.7653" font-size="9" font-family="sans-serif" font-weight="700" fill="#dc2626">1</text><path d="M 436.18131,142.90918 L 447.68829,143.20423" class="stroke-order" fill="none" stroke="#2563eb" stroke-width="1.6" marker-end="url(#arrowhead)"/><text x="441.00281" y="139.46028" font-size="9" font-family="sans-serif" font-weight="700" fill="#dc2626">2</text><path d="M 431.38003,172.97046 C 433.59291,181.25032 444.65732,179.94103 449.67318,179.90415" class="stroke-order" fill="none" stroke="#2563eb" stroke-width="1.6" marker-end="url(#arrowhead)"/><text x="426.68176" y="171.80188" font-size="9" font-family="sans-serif" font-weight="700" fill="#dc2626">3</text>
  </g>
</svg>