<svg xmlns="http://www.w3.org/2000/svg" viewBox="405.5 369.0 58.7 58.7" width="200" height="200">
  <defs>
    <marker id="arrowhead" markerWidth="4" markerHeight="4" refX="1.5" refY="1.5"
            orient="auto-start-reverse" markerUnits="strokeWidth">
      <path d="M 0,0 L 3,1.5 L 0,3 z" fill="#2563eb"/>
    </marker>
  </defs>
  <rect x="405.5" y="369.0" width="58.7" height="58.7" fill="#FAFAFA"/>
  <g transform="">
    <path d="M 435.71446,382.74953 C 434.18319,382.74956 432.43317,382.96831 430.49571,383.40578 C 428.58945,383.81206 426.71443,384.59332 424.87071,385.78078 C 423.02695,386.9683 421.37068,388.43706 419.87071,390.15578 C 418.40195,391.87455 417.15194,394.09331 416.15196,396.84328 C 415.15195,399.59329 414.80819,401.9683 415.08946,403.96828 C 415.3707,405.96828 415.96443,407.78079 416.87071,409.40578 C 417.8082,410.99953 418.83943,412.15579 419.96446,412.87453 C 421.08945,413.56204 422.18318,413.84328 423.27696,413.68703 C 424.37069,413.49953 425.68318,412.84329 427.21446,411.74953 C 428.77694,410.65579 430.43317,408.49954 432.18321,405.24953 C 433.93319,401.96829 435.71441,396.3433 437.49571,388.37453 L 438.15196,387.71828 C 438.46443,387.46831 438.43316,387.24956 438.05821,387.06203 L 434.77696,386.34328 C 436.46443,386.2808 438.27692,386.49956 440.24571,386.96828 C 442.21443,387.43706 443.96441,388.24956 445.49571,389.43703 C 447.05818,390.62456 448.15191,392.18706 448.77696,394.12453 C 449.40192,396.0308 449.62066,398.0308 449.43321,400.12453 C 449.27693,402.18705 448.74566,404.09329 447.83946,405.81203 C 446.93317,407.49954 445.49566,408.87454 443.52696,409.96828 C 441.58942,411.03078 438.77691,411.90578 435.05821,412.56203 L 435.05821,412.93703 C 435.74568,414.18703 436.24566,415.56204 436.55821,417.09328 C 441.18318,415.84327 444.65191,414.46829 446.96446,412.96828 C 449.30817,411.46828 451.05815,409.65579 452.21446,407.49953 C 453.37066,405.34329 453.99566,402.90579 454.12066,400.18703 C 454.27696,397.43705 453.93316,394.93705 453.08946,392.68703 C 452.27693,390.43706 450.80815,388.46831 448.68321,386.81203 C 446.58943,385.15582 444.37066,384.06207 442.02696,383.53078 C 439.68318,382.99956 437.58941,382.74956 435.71446,382.74953 z M 433.18321,386.49953 L 433.18321,386.62453 C 433.40194,387.21831 432.99567,389.56206 431.99571,393.65578 C 430.99569,397.71829 429.80817,401.06205 428.40196,403.68703 C 427.02694,406.28079 425.77693,407.87454 424.68321,408.46828 C 423.6207,409.06203 422.80818,409.28079 422.24571,409.12453 C 421.6832,408.96829 421.02693,408.28079 420.27696,407.06203 C 419.5582,405.84329 419.18319,404.49954 419.15196,402.99953 C 419.15195,401.46829 419.55819,399.6558 420.37071,397.56203 C 421.1832,395.43705 422.21443,393.68705 423.43321,392.31203 C 424.6832,390.9058 426.15192,389.65581 427.83946,388.56203 C 429.52694,387.46831 431.30817,386.78081 433.18321,386.49953 z " fill="#1a1a1a" fill-opacity="0.55"/><path d="M 441.02803,389.66362 L 437.07253,401.84237" class="stroke-order" fill="none" stroke="#2563eb" stroke-width="1.6" marker-end="url(#arrowhead)"/><text x="441.26001" y="399.28888" font-size="9" font-family="sans-serif" font-weight="700" fill="#dc2626">1</text><path d="M 428.22472,414.54157 C 428.22472,414.54157 421.97921,418.23683 418.44009,416.62341 C 414.90097,415.00999 413.4683,408.78648 412.59615,406.17417" class="stroke-order" fill="none" stroke="#2563eb" stroke-width="1.6" marker-end="url(#arrowhead)"/><path d="M 434.85279,380.38579 C 434.85279,380.38579 441.80837,378.58249 447.36548,381.71066 C 452.92259,384.83883 455.24112,389.95432 457.08122,392.89848" class="stroke-order" fill="none" stroke="#2563eb" stroke-width="1.6" marker-end="url(#arrowhead)"/>
  </g>
</svg>