<svg xmlns="http://www.w3.org/2000/svg" viewBox="396.7 197.4 72.6 72.6" width="200" height="200">
  <defs>
    <marker id="arrowhead" markerWidth="4" markerHeight="4" refX="1.5" refY="1.5"
            orient="auto-start-reverse" markerUnits="strokeWidth">
      <path d="M 0,0 L 3,1.5 L 0,3 z" fill="#2563eb"/>
    </marker>
  </defs>
  <rect x="396.7" y="197.4" width="72.6" height="72.6" fill="#FAFAFA"/>
  <g transform="">
    <path d="M 433.90973,222.95247 C 433.55816,222.95249 433.35502,223.13218 433.28473,223.48372 C 433.62846,224.04625 433.50344,226.01501 432.90973,229.38997 C 432.19096,229.515 430.97219,229.73375 429.28473,230.04622 C 427.62846,230.32749 426.09719,230.9525 424.65973,231.88997 C 423.22222,232.79625 422.06595,233.60875 421.19098,234.32747 C 420.47222,232.48375 419.78471,230.515 419.15973,228.45247 L 419.44098,227.51497 C 419.59722,227.07751 419.4097,226.89 418.84723,226.92122 L 414.65973,227.85872 C 414.19097,227.92125 414.09721,228.2025 414.37848,228.70247 C 414.78472,229.015 415.28471,230.04625 415.87848,231.79622 C 416.50347,233.515 417.2847,235.35875 418.19098,237.35872 C 416.81597,239.01499 415.69096,241.04624 414.81598,243.42122 C 413.97223,245.76498 413.56596,247.95248 413.62848,249.98372 C 413.69097,252.01498 414.03471,253.60873 414.65973,254.76497 C 415.31597,255.88997 416.25345,256.79622 417.44098,257.48372 C 418.62847,258.13997 419.75346,258.45248 420.84723,258.45247 C 421.97221,258.42123 423.1597,258.01498 424.37848,257.23372 C 425.62847,256.42122 426.78469,255.32747 427.84723,253.92122 C 428.25346,254.57747 428.6597,255.20248 429.09723,255.82747 C 430.28471,254.42123 431.47219,253.26498 432.65973,252.35872 L 432.65973,252.07747 C 431.94095,251.35873 431.22219,250.57748 430.50348,249.70247 C 432.0347,246.95248 433.22219,244.29623 434.06598,241.73372 C 434.9097,239.17124 435.72219,236.17124 436.50348,232.73372 C 437.37845,232.765 438.59718,232.85875 440.12848,233.04622 C 441.69095,233.23374 443.19093,233.9525 444.65973,235.20247 C 446.15969,236.42125 447.22218,237.85875 447.84723,239.51497 C 448.50344,241.17124 448.78467,242.79624 448.65973,244.38997 C 448.53469,245.95249 448.09718,247.54624 447.37848,249.17122 C 446.97219,248.95248 446.09717,248.54623 444.72223,247.92122 C 443.37845,247.26498 441.94093,246.92123 440.40973,246.88997 C 438.9097,246.85873 437.62843,247.32749 436.56598,248.32747 C 435.53471,249.32748 434.84719,250.73373 434.50348,252.51497 C 434.19096,254.29622 434.69094,255.82748 436.00348,257.13997 C 437.31595,258.42123 439.00343,259.07747 441.06598,259.10872 C 443.12845,259.13996 444.78468,258.60872 446.03473,257.48372 C 447.28469,256.35872 448.15968,255.48373 448.69098,254.88997 C 449.81594,255.85873 451.09717,257.04622 452.50348,258.42122 C 453.40969,256.98372 454.40967,255.63997 455.50348,254.38997 C 453.90969,253.23373 452.44092,252.23373 451.12848,251.38997 C 452.25343,249.17123 452.87842,246.92124 453.00348,244.67122 C 453.15968,242.38998 452.87842,240.26499 452.12848,238.26497 C 451.40969,236.26499 449.94093,234.39 447.75348,232.67122 C 445.59719,230.95249 443.53468,229.98375 441.53473,229.73372 C 439.5347,229.4525 438.12843,229.265 437.31598,229.20247 C 437.56595,227.95251 437.81594,226.64001 438.09723,225.26497 L 438.81598,224.51497 C 439.12845,224.20251 439.09718,223.95251 438.72223,223.73372 L 434.31598,223.01497 C 434.16754,222.97592 434.02692,222.95246 433.90973,222.95247 z M 432.15973,233.01497 C 431.62846,235.42124 431.00344,237.765 430.28473,240.07747 C 429.59721,242.35874 428.78469,244.45249 427.84723,246.35872 C 426.06596,243.98373 424.37845,241.20249 422.78473,237.98372 C 424.09722,236.70249 425.5347,235.63999 427.12848,234.79622 C 428.75346,233.92125 430.44094,233.3275 432.15973,233.01497 z M 420.09723,241.45247 C 421.59721,244.42123 422.7847,246.54623 423.62848,247.82747 C 424.50347,249.07748 425.0972,249.92123 425.44098,250.38997 C 424.12846,252.29623 423.0347,253.42123 422.12848,253.73372 C 421.22222,254.04623 420.47221,254.07748 419.90973,253.85872 C 419.34722,253.60872 418.87845,253.13998 418.47223,252.45247 C 418.09722,251.73373 417.9097,250.67123 417.90973,249.23372 C 417.90972,247.76498 418.1597,246.29624 418.65973,244.85872 C 419.19097,243.38998 419.65971,242.26499 420.09723,241.45247 z M 440.62848,250.45247 C 441.97219,250.45248 443.62843,251.07748 445.56598,252.32747 C 445.06595,252.98373 444.37843,253.67123 443.50348,254.42122 C 442.6597,255.17122 441.50343,255.48372 440.06598,255.32747 C 438.6597,255.17122 438.06594,254.29623 438.28473,252.73372 C 438.5347,251.17122 439.31594,250.42123 440.62848,250.45247 z " fill="#1a1a1a" fill-opacity="0.55"/><path d="M 418.99088,221.1942 L 423.9308,229.28278" class="stroke-order" fill="none" stroke="#2563eb" stroke-width="1.6" marker-end="url(#arrowhead)"/><text x="414.51883" y="219.98546" font-size="9" font-family="sans-serif" font-weight="700" fill="#dc2626">1</text><path d="M 443.1352,216.56198 L 440.84025,226.15907" class="stroke-order" fill="none" stroke="#2563eb" stroke-width="1.6" marker-end="url(#arrowhead)"/><text x="444.16989" y="218.1761" font-size="9" font-family="sans-serif" font-weight="700" fill="#dc2626">2</text><path d="M 419.26994,261.19141 C 419.26994,261.19141 412.04425,260.30841 410.82032,256.39287 C 409.73612,252.92436 410.73314,248.59044 411.09748,245.69458" class="stroke-order" fill="none" stroke="#2563eb" stroke-width="1.6" marker-end="url(#arrowhead)"/><path d="M 453.87977,234.81731 C 453.87977,234.81731 456.87886,237.55562 457.21789,240.55471 C 457.55692,243.5538 455.80515,246.5029 454.86707,248.87904" class="stroke-order" fill="none" stroke="#2563eb" stroke-width="1.6" marker-end="url(#arrowhead)"/>
  </g>
</svg>