<svg xmlns="http://www.w3.org/2000/svg" viewBox="651.3 357.7 70.8 70.8" width="200" height="200">
  <defs>
    <marker id="arrowhead" markerWidth="4" markerHeight="4" refX="1.5" refY="1.5"
            orient="auto-start-reverse" markerUnits="strokeWidth">
      <path d="M 0,0 L 3,1.5 L 0,3 z" fill="#2563eb"/>
    </marker>
  </defs>
  <rect x="651.3" y="357.7" width="70.8" height="70.8" fill="#FAFAFA"/>
  <g transform="">
    <path d="M 681.78157,378.15509 C 681.50617,378.21956 681.38311,378.42075 681.40657,378.74884 C 681.7503,379.18638 681.84404,381.68638 681.71907,386.24884 C 678.84405,386.43637 675.75029,386.49887 672.40657,386.40509 C 672.78156,387.96762 672.9378,389.37387 672.90657,390.62384 C 676.09406,390.40512 679.03154,390.15511 681.68782,389.90509 C 681.65655,392.53011 681.65653,395.31137 681.68782,398.24884 C 678.90656,399.28011 676.59404,400.59261 674.75032,402.15509 C 672.93781,403.7176 671.84405,405.59261 671.50032,407.81134 C 671.15657,409.99885 671.1878,411.71759 671.56282,412.93634 C 671.93781,414.15509 672.71905,415.15509 673.93782,415.96759 C 675.15657,416.78008 676.53154,417.28009 678.06282,417.43634 C 679.62531,417.62384 681.15654,417.34259 682.65657,416.59259 C 684.1878,415.87384 685.18779,415.09259 685.65657,414.24884 C 686.15655,413.37384 686.31279,412.0301 686.12532,410.24884 C 685.93781,408.4676 685.81278,405.37385 685.71907,400.93634 C 686.53155,400.71761 687.62528,400.4676 689.03157,400.21759 C 690.46904,399.93635 692.31277,399.78011 694.53157,399.74884 C 696.75029,399.71761 698.50027,399.90511 699.81282,400.31134 C 701.15654,400.71761 702.31276,401.34261 703.25032,402.18634 C 704.18778,403.03011 704.75027,404.0301 704.96907,405.15509 C 705.21903,406.2801 705.18776,407.31134 704.84407,408.28009 C 704.50028,409.24884 703.90651,410.0926 703.06282,410.81134 C 702.21903,411.49885 701.28152,411.93635 700.28157,412.12384 C 699.28153,412.2801 698.25027,412.12384 697.15657,411.62384 C 696.09404,411.12384 695.03152,409.9051 693.96907,407.96759 L 693.59407,407.90509 C 692.81279,408.81134 691.68778,409.6551 690.25032,410.43634 C 691.53155,412.2801 692.65653,413.62384 693.62532,414.43634 C 694.59405,415.21759 695.93777,415.71759 697.62532,415.96759 C 699.31279,416.21758 700.90652,416.09258 702.43782,415.59259 C 703.96904,415.06134 705.34402,414.21759 706.56282,413.03009 C 707.78153,411.84259 708.65651,410.4676 709.15657,408.93634 C 709.68777,407.4051 709.68777,405.81134 709.18777,404.15509 C 708.6878,402.4676 707.81276,401.06136 706.56282,399.93634 C 705.31279,398.78011 703.75027,397.87385 701.87532,397.21759 C 700.03154,396.5301 697.75027,396.18636 695.00032,396.18634 C 692.25029,396.15511 690.15653,396.28011 688.71907,396.56134 C 687.28155,396.81136 686.25029,396.99886 685.65657,397.12384 C 685.65655,394.81137 685.68778,392.28011 685.71907,389.53009 C 690.1253,389.09261 693.78153,388.59261 696.71907,388.03009 L 695.56282,384.18634 C 692.53154,384.90513 689.25028,385.46763 685.75032,385.87384 C 685.78156,384.03013 685.84403,382.12387 685.90657,380.12384 L 686.50032,379.31134 C 686.84405,378.96763 686.81278,378.71763 686.40657,378.56134 L 682.09407,378.15509 C 681.96907,378.14729 681.87337,378.1336 681.78157,378.15509 z M 701.40657,382.78009 L 699.21907,386.34259 C 702.81278,387.99886 705.65651,390.24887 707.75032,393.06134 C 709.03153,391.59261 710.06277,390.49887 710.87537,389.81134 L 710.87537,389.43634 C 708.65649,387.40512 705.50027,385.18637 701.40657,382.78009 z M 681.78157,402.34259 C 681.84405,406.2801 681.90653,408.99884 681.96907,410.53009 C 682.03155,412.06134 681.62528,413.0301 680.75032,413.43634 C 679.90656,413.8426 679.03154,413.99884 678.12532,413.87384 C 677.21906,413.71759 676.46905,413.31135 675.90657,412.68634 C 675.37531,412.06135 675.21904,410.84259 675.40657,408.99884 C 675.62531,407.12385 676.3128,405.7176 677.50032,404.78009 C 678.68781,403.8426 680.12529,403.0301 681.78157,402.34259 z " fill="#1a1a1a" fill-opacity="0.55"/><path d="M 667.1426,383.69466 L 679.00907,383.38239" class="stroke-order" fill="none" stroke="#2563eb" stroke-width="1.6" marker-end="url(#arrowhead)"/><text x="666.47864" y="381.86783" font-size="9" font-family="sans-serif" font-weight="700" fill="#dc2626">1</text><path d="M 689.6971,370.90782 L 689.74022,382.48982" class="stroke-order" fill="none" stroke="#2563eb" stroke-width="1.6" marker-end="url(#arrowhead)"/><text x="692.18933" y="378.3287" font-size="9" font-family="sans-serif" font-weight="700" fill="#dc2626">2</text><path d="M 681.86789,419.59589 C 681.86789,419.59589 673.02901,419.95421 670.32938,417.16696 C 667.736,414.48941 668.30176,408.4457 668.31285,405.34234" class="stroke-order" fill="none" stroke="#2563eb" stroke-width="1.6" marker-end="url(#arrowhead)"/><path d="M 703.34871,379.89377 L 712.82107,386.45156" class="stroke-order" fill="none" stroke="#2563eb" stroke-width="1.6" marker-end="url(#arrowhead)"/><text x="705.92944" y="379.57779" font-size="9" font-family="sans-serif" font-weight="700" fill="#dc2626">3</text>
  </g>
</svg>