<svg xmlns="http://www.w3.org/2000/svg" viewBox="130.1 33.8 72.0 72.0" width="200" height="200">
  <defs>
    <marker id="arrowhead" markerWidth="4" markerHeight="4" refX="1.5" refY="1.5"
            orient="auto-start-reverse" markerUnits="strokeWidth">
      <path d="M 0,0 L 3,1.5 L 0,3 z" fill="#2563eb"/>
    </marker>
  </defs>
  <rect x="130.1" y="33.8" width="72.0" height="72.0" fill="#FAFAFA"/>
  <g transform="translate(7.081218,1.770305)">
    <path d="M 165.39261,56.936865 L 163.14261,60.624365 C 167.36134,62.405645 172.26757,63.999395 177.83011,65.374365 C 178.29883,63.718145 178.70507,62.405645 179.08011,61.436865 L 178.89261,61.093115 C 173.48633,60.186905 168.98633,58.811905 165.39261,56.936865 z M 160.70511,67.499365 C 160.38284,67.470075 160.22853,67.702505 160.20511,68.218115 C 160.42385,68.843145 160.33008,70.061895 159.95511,71.843115 C 159.61135,73.593135 159.29883,75.468135 158.98636,77.468115 C 158.7051,79.468135 158.39259,82.218125 158.08011,85.718115 L 162.58011,86.749365 C 163.51759,85.343125 164.79883,83.968135 166.42386,82.655615 C 168.08009,81.311885 170.20507,80.405635 172.79886,79.936865 C 175.42383,79.436875 177.58006,79.343135 179.23636,79.624365 C 180.89258,79.874385 182.14256,80.530635 183.01761,81.624365 C 183.92382,82.686875 184.26756,84.155625 184.01761,85.999365 C 183.79883,87.843125 182.83006,89.311875 181.11136,90.436865 C 179.42383,91.561865 177.42381,92.280625 175.11136,92.593115 C 172.83009,92.905625 169.54883,92.843125 165.29886,92.405615 L 165.11136,92.655615 C 165.48634,93.843115 165.70507,95.218116 165.73636,96.780616 C 171.48634,97.030616 175.83006,96.686866 178.76761,95.780616 C 181.73633,94.874376 184.01756,93.530625 185.61136,91.749365 C 187.23632,89.968115 188.1738,88.093125 188.42386,86.124365 C 188.67382,84.124375 188.26755,82.186885 187.20511,80.311865 C 186.17382,78.436875 184.17381,77.155635 181.23636,76.436865 C 178.33008,75.686885 175.26757,75.655635 172.04886,76.374365 C 168.83009,77.061875 165.83007,78.561885 163.01761,80.843115 C 163.11135,79.749385 163.26758,78.436885 163.48636,76.936865 C 163.7051,75.405625 164.11133,73.030645 164.70511,69.811865 L 165.39261,69.124365 C 165.61134,68.874395 165.61132,68.655645 165.36136,68.468115 L 161.08011,67.624365 C 160.93948,67.554055 160.81253,67.509125 160.70511,67.499365 z " fill="#1a1a1a" fill-opacity="0.55"/><path d="M 166.12508,53.292304 C 166.12508,53.292304 176.51327,56.984502 179.976,58.215235" class="stroke-order" fill="none" stroke="#2563eb" stroke-width="1.6" marker-end="url(#arrowhead)"/><path d="M 156.3713,61.621873 C 156.15182,64.722556 155.89862,69.231434 155.67382,74.37159" class="stroke-order" fill="none" stroke="#2563eb" stroke-width="1.6" marker-end="url(#arrowhead)"/><path d="M 155.88388,80.77117 C 155.04393,83.573306 153.60336,89.973406 155.45732,91.250099 C 157.19933,92.449705 161.05147,90.244822 166.86981,87.627022" class="stroke-order" fill="none" stroke="#2563eb" stroke-width="1.6" marker-end="url(#arrowhead)"/><text x="149.49229" y="66.64756" font-size="9" font-family="sans-serif" font-weight="700" fill="#dc2626">2</text><text x="178.48547" y="54.512691" font-size="9" font-family="sans-serif" font-weight="700" fill="#dc2626">1</text>
  </g>
</svg>