<svg xmlns="http://www.w3.org/2000/svg" viewBox="134.5 276.4 74.1 74.1" width="200" height="200">
  <defs>
    <marker id="arrowhead" markerWidth="4" markerHeight="4" refX="1.5" refY="1.5"
            orient="auto-start-reverse" markerUnits="strokeWidth">
      <path d="M 0,0 L 3,1.5 L 0,3 z" fill="#2563eb"/>
    </marker>
  </defs>
  <rect x="134.5" y="276.4" width="74.1" height="74.1" fill="#FAFAFA"/>
  <g transform="">
    <path d="M 199.55887,328.25561 C 198.34007,330.56812 197.19945,332.42749 196.13699,333.83374 C 195.1057,335.23999 193.7307,336.22437 192.01199,336.78687 C 190.32445,337.34936 188.85571,337.14624 187.60574,336.17749 C 186.35571,335.20874 185.74633,333.75562 185.77762,331.81811 C 185.84008,329.88062 185.93383,326.97437 186.05887,323.09937 C 186.21508,319.22438 186.32446,316.47439 186.38699,314.84937 C 186.48071,313.22439 186.23071,312.22439 185.63699,311.84937 C 185.07446,311.44314 184.26196,311.30252 183.19949,311.42749 C 182.13696,311.52127 180.46509,312.22439 178.18387,313.53687 C 175.90259,314.81814 173.01197,317.28688 169.51199,320.94311 C 169.54322,323.00563 169.57447,325.50563 169.60574,328.44311 C 169.66822,331.38062 169.94947,334.91187 170.44949,339.03687 L 170.30887,339.45874 C 168.9026,339.55249 167.29323,339.81811 165.48074,340.25561 C 165.38698,336.03687 165.32448,331.25562 165.29324,325.91187 C 163.38698,328.34937 161.32448,331.16187 159.10574,334.34937 L 158.73074,334.30249 C 157.85574,333.14624 156.71511,331.98999 155.30887,330.83374 C 158.46511,327.365 161.19948,324.38063 163.51199,321.88061 C 164.16823,320.63063 164.76198,319.38063 165.29324,318.13061 C 165.29323,317.09938 165.29323,315.61501 165.29324,313.67749 C 163.01198,314.30251 160.73073,315.06814 158.44949,315.97437 C 158.04324,314.53689 157.48074,313.19314 156.76199,311.94311 L 156.85574,311.52124 C 160.04323,311.11502 162.87136,310.66189 165.34012,310.16187 C 165.37135,308.13064 165.43385,306.06815 165.52762,303.97437 C 165.62135,301.88065 165.54323,300.64628 165.29324,300.27124 C 165.13698,299.70878 165.29323,299.45878 165.76199,299.52124 L 170.40262,299.94311 C 170.8401,300.0994 170.8401,300.3494 170.40262,300.69311 L 169.88699,301.39624 C 169.73072,303.89627 169.62135,306.30252 169.55887,308.61499 C 170.62135,308.99002 171.74635,309.52127 172.93387,310.20874 C 173.37135,310.55252 173.2776,310.91189 172.65262,311.28687 L 171.19949,312.13061 C 170.66822,313.44314 170.19947,314.56814 169.79324,315.50561 C 171.98072,313.47439 174.35572,311.67752 176.91824,310.11499 C 179.51196,308.55252 181.48071,307.67752 182.82449,307.48999 C 184.19946,307.30252 185.79321,307.59939 187.60574,308.38061 C 189.4182,309.16189 190.3557,310.66189 190.41824,312.88061 C 190.51195,315.06814 190.46508,318.11501 190.27762,322.02124 C 190.12133,325.89625 190.0432,328.59937 190.04324,330.13061 C 190.0432,331.63062 190.46508,332.34937 191.30887,332.28687 C 192.15258,332.22437 192.93383,331.615 193.65262,330.45874 C 194.37132,329.3025 194.99632,327.84937 195.52762,326.09937 L 199.55887,328.25561" fill="#1a1a1a" fill-opacity="0.55"/><path d="M 174.14568,296.41211 L 175.1866,306.61311" class="stroke-order" fill="none" stroke="#2563eb" stroke-width="1.6" marker-end="url(#arrowhead)"/><text x="175.36768" y="297.71243" font-size="9" font-family="sans-serif" font-weight="700" fill="#dc2626">1</text><path d="M 151.17381,308.57871 L 161.11036,307.47465" class="stroke-order" fill="none" stroke="#2563eb" stroke-width="1.6" marker-end="url(#arrowhead)"/><text x="149.45668" y="305.20706" font-size="9" font-family="sans-serif" font-weight="700" fill="#dc2626">2</text><path d="M 186.95432,304.4264 C 186.95432,304.4264 191.26015,304.94162 192.98985,307.95939 C 194.71954,310.97715 193.9467,315.61421 193.8731,317.82233" class="stroke-order" fill="none" stroke="#2563eb" stroke-width="1.6" marker-end="url(#arrowhead)"/><path d="M 153.22579,328.60578 C 153.22579,328.60578 149.38222,336.63592 151.8652,338.5297 C 155.37447,341.20623 159.57507,337.52896 162.83897,335.56461" class="stroke-order" fill="none" stroke="#2563eb" stroke-width="1.6" marker-end="url(#arrowhead)"/>
  </g>
</svg>