<svg xmlns="http://www.w3.org/2000/svg" viewBox="140.1 124.3 69.0 69.0" width="200" height="200">
  <defs>
    <marker id="arrowhead" markerWidth="4" markerHeight="4" refX="1.5" refY="1.5"
            orient="auto-start-reverse" markerUnits="strokeWidth">
      <path d="M 0,0 L 3,1.5 L 0,3 z" fill="#2563eb"/>
    </marker>
  </defs>
  <rect x="140.1" y="124.3" width="69.0" height="69.0" fill="#FAFAFA"/>
  <g transform="">
    <path d="M 188.7527,140.37167 L 184.09645,140.55917 C 183.53392,140.65296 183.40891,140.93421 183.72145,141.43417 C 184.06517,142.05921 184.3464,143.65296 184.53395,146.21542 C 184.72142,148.77794 184.87765,151.59045 185.0027,154.62167 C 185.12767,157.62169 185.06515,160.27794 184.84645,162.59042 C 184.65892,164.87168 184.12765,167.05919 183.22145,169.18417 C 182.34642,171.30918 180.87765,173.09042 178.8152,174.49667 C 176.75268,175.87167 174.15892,176.99667 171.0652,177.87167 L 170.9402,178.27792 C 172.22143,179.84041 173.09641,181.21542 173.5652,182.40292 C 176.65893,180.93416 179.44016,179.24667 181.9402,177.30917 C 184.44017,175.34042 186.25265,172.99668 187.34645,170.30917 C 188.47142,167.59044 189.0964,164.96543 189.2527,162.40292 C 189.40891,159.80919 189.44015,156.9967 189.34645,153.99667 C 189.25266,150.96545 189.06515,146.99671 188.78395,142.09042 L 189.0652,141.12167 C 189.28391,140.74671 189.19015,140.49671 188.7527,140.37167 z M 166.03395,141.37167 C 165.73512,141.37169 165.61987,141.55138 165.6902,141.90292 C 165.75269,142.2467 165.65892,143.18421 165.40895,144.71542 C 165.19019,146.2467 164.94017,148.84045 164.65895,152.49667 C 164.40894,156.15295 164.53393,159.65294 165.0652,162.99667 C 165.59643,166.30919 166.65892,167.93418 168.22145,167.84042 C 169.78394,167.71543 171.00266,167.09044 171.8777,165.99667 C 172.75268,164.90294 173.87767,163.40294 175.28395,161.49667 L 172.0027,158.55917 C 171.53393,159.74669 171.03392,160.71544 170.5027,161.46542 C 169.97143,162.21544 169.59642,162.59044 169.34645,162.59042 C 169.12769,162.55919 168.94017,161.43419 168.78395,159.21542 C 168.65894,156.96544 168.69017,154.43419 168.8777,151.62167 C 169.09644,148.8092 169.47142,146.1217 170.0027,143.55917 L 170.65895,142.84042 C 170.87768,142.46545 170.81517,142.24671 170.5027,142.15292 L 166.3777,141.43417 C 166.23707,141.39512 166.13356,141.37166 166.03395,141.37167 z " fill="#1a1a1a" fill-opacity="0.55"/><path d="M 161.39277,143.42735 L 160.50761,160.09772" class="stroke-order" fill="none" stroke="#2563eb" stroke-width="1.6" marker-end="url(#arrowhead)"/><path d="M 192.65514,141.36199 L 193.83534,160.09772" class="stroke-order" fill="none" stroke="#2563eb" stroke-width="1.6" marker-end="url(#arrowhead)"/><text x="154.48486" y="147.99849" font-size="9" font-family="sans-serif" font-weight="700" fill="#dc2626">1</text><text x="194.79483" y="147.26086" font-size="9" font-family="sans-serif" font-weight="700" fill="#dc2626">2</text>
  </g>
</svg>