<svg xmlns="http://www.w3.org/2000/svg" viewBox="141.6 356.7 71.2 71.2" width="200" height="200">
  <defs>
    <marker id="arrowhead" markerWidth="4" markerHeight="4" refX="1.5" refY="1.5"
            orient="auto-start-reverse" markerUnits="strokeWidth">
      <path d="M 0,0 L 3,1.5 L 0,3 z" fill="#2563eb"/>
    </marker>
  </defs>
  <rect x="141.6" y="356.7" width="71.2" height="71.2" fill="#FAFAFA"/>
  <g transform="">
    <path d="M 182.30253,381.04335 L 182.5369,380.62148 C 182.75562,380.43402 182.97437,380.43402 183.19315,380.62148 C 184.22437,381.24652 185.41187,381.99651 186.75565,382.87148 C 187.31812,383.30901 187.27124,383.71526 186.61503,384.09023 L 185.63065,384.46523 C 181.06812,389.59026 177.33375,393.77775 174.42753,397.02773 C 175.95875,396.34025 177.81813,395.809 180.00565,395.43398 C 182.22437,395.059 184.78687,395.48088 187.69315,396.69961 C 190.63061,397.88712 192.58374,399.559 193.55253,401.71523 C 194.52123,403.87149 194.81811,406.16837 194.44315,408.60585 C 194.09936,411.04336 193.13061,413.13711 191.5369,414.88711 C 189.97436,416.60586 187.53687,417.79335 184.2244,418.44961 C 180.91187,419.1371 176.75563,419.34023 171.75565,419.05898 C 171.59938,417.49648 171.24001,416.09023 170.67753,414.84023 L 170.67753,414.65273 C 174.99,415.12148 178.41188,415.24648 180.94315,415.02773 C 183.47437,414.77773 185.55249,414.15273 187.17753,413.15273 C 188.80249,412.15273 189.75561,410.60586 190.0369,408.51211 C 190.34936,406.41837 190.16186,404.62149 189.4744,403.12148 C 188.78686,401.59025 187.52124,400.41837 185.67753,399.60585 C 183.83374,398.76212 181.78687,398.48087 179.5369,398.76211 C 177.28688,399.04337 175.22438,399.73087 173.3494,400.82461 C 171.50563,401.88712 169.59938,403.19962 167.63065,404.76211 C 165.53689,407.13711 163.94314,408.96524 162.8494,410.24648 C 161.75564,408.62149 160.63064,407.55899 159.4744,407.05898 L 159.4744,406.49648 C 166.91189,399.59025 173.64626,392.3715 179.67753,384.84023 C 174.99,385.46526 170.30251,386.15276 165.61503,386.90273 C 165.45876,385.46526 165.13064,384.13714 164.63065,382.91835 L 164.86503,382.35585 C 166.80251,382.41839 169.25563,382.34026 172.2244,382.12148 C 175.19313,381.90277 178.5525,381.54339 182.30253,381.04335" fill="#1a1a1a" fill-opacity="0.55"/><path d="M 164.88151,379.26923 L 182.57712,377.81194" class="stroke-order" fill="none" stroke="#2563eb" stroke-width="1.6" marker-end="url(#arrowhead)"/><text x="163.93146" y="377.36987" font-size="9" font-family="sans-serif" font-weight="700" fill="#dc2626">1</text><path d="M 159.08858,401.09992 C 159.08858,401.09992 155.55979,409.75207 157.85428,411.97636 C 161.08545,415.10868 167.43262,410.4055 171.70103,407.17551" class="stroke-order" fill="none" stroke="#2563eb" stroke-width="1.6" marker-end="url(#arrowhead)"/><path d="M 194.02723,398.10985 C 194.02723,398.10985 197.80056,401.75307 198.29499,405.81265 C 198.78943,409.87223 196.28306,414.0544 195.41614,416.11468" class="stroke-order" fill="none" stroke="#2563eb" stroke-width="1.6" marker-end="url(#arrowhead)"/>
  </g>
</svg>