<svg xmlns="http://www.w3.org/2000/svg" viewBox="141.8 195.1 72.0 72.0" width="200" height="200">
  <defs>
    <marker id="arrowhead" markerWidth="4" markerHeight="4" refX="1.5" refY="1.5"
            orient="auto-start-reverse" markerUnits="strokeWidth">
      <path d="M 0,0 L 3,1.5 L 0,3 z" fill="#2563eb"/>
    </marker>
  </defs>
  <rect x="141.8" y="195.1" width="72.0" height="72.0" fill="#FAFAFA"/>
  <g transform="">
    <path d="M 183.29339,219.32995 C 183.18402,219.32995 183.09024,219.39247 182.98089,219.4862 L 182.73089,219.89245 C 178.98086,220.39249 175.6371,220.76749 172.66839,220.9862 C 169.69963,221.20498 167.23086,221.26749 165.29339,221.20495 L 165.07464,221.76745 C 165.57463,222.98624 165.88711,224.32998 166.04339,225.76745 C 170.73087,225.01748 175.41836,224.32998 180.10589,223.70495 C 174.07462,231.23622 167.35586,238.45497 159.91839,245.3612 L 159.91839,245.9237 C 161.07463,246.42371 162.19961,247.48621 163.29339,249.1112 C 164.38713,247.82996 165.98086,245.98621 168.07464,243.6112 C 170.04338,242.04871 171.9496,240.73622 173.79339,239.6737 C 175.66837,238.57996 177.73085,237.89247 179.98089,237.6112 C 182.23086,237.32996 184.2621,237.61122 186.10589,238.45495 C 187.9496,239.26747 189.23084,240.48622 189.91839,242.07995 C 190.60586,243.64246 190.82458,245.11121 190.57464,246.4862 C 190.35586,247.86121 189.76209,249.07996 188.79339,250.14245 C 187.85586,251.20495 186.82459,252.0487 185.69964,252.6737 C 184.66836,250.76745 183.5746,249.32996 182.44964,248.3612 C 181.35586,247.39246 179.8871,246.57996 178.04339,245.95495 C 176.19961,245.32997 174.54336,245.32996 173.07464,245.9237 C 171.63712,246.48621 170.48086,247.61121 169.60589,249.32995 C 168.76212,251.04871 168.73086,252.7362 169.51214,254.3612 C 170.29337,255.9862 171.69961,257.07995 173.73089,257.6737 C 175.76211,258.26744 178.1371,258.39245 180.82464,258.01745 C 183.51211,257.6737 185.94959,256.8612 188.16839,255.6112 C 190.41835,254.32995 192.04334,252.9237 193.04339,251.3612 C 194.0746,249.79871 194.73083,248.14246 194.98089,246.39245 C 195.23085,244.64246 194.88708,242.70496 193.94964,240.57995 C 193.0121,238.42372 191.07458,236.73622 188.13714,235.5487 C 185.23086,234.32997 182.66834,233.92372 180.44964,234.2987 C 178.26212,234.67372 176.3871,235.20497 174.85589,235.89245 C 177.76211,232.64247 181.51209,228.45498 186.07464,223.32995 L 187.04339,222.95495 C 187.6996,222.57998 187.76209,222.17373 187.19964,221.7362 C 185.85586,220.86123 184.66834,220.11124 183.63714,219.4862 C 183.52775,219.39247 183.40276,219.32995 183.29339,219.32995 z M 175.60589,249.07995 C 175.79095,249.08874 175.96526,249.10339 176.16839,249.14245 C 177.82461,249.45496 178.9496,250.01746 179.54339,250.7987 C 180.16836,251.5487 180.82459,252.70495 181.48089,254.26745 C 180.82461,254.39245 179.8871,254.51745 178.69964,254.64245 C 177.51211,254.7362 176.16835,254.57995 174.63714,254.1737 C 173.10587,253.7362 172.5746,252.70496 173.04339,251.1112 C 173.45353,249.68932 174.31046,249.01843 175.60589,249.07995 z " fill="#1a1a1a" fill-opacity="0.55"/><path d="M 165.97654,217.91284 L 183.08948,216.73264" class="stroke-order" fill="none" stroke="#2563eb" stroke-width="1.6" marker-end="url(#arrowhead)"/><text x="165.55107" y="215.87212" font-size="9" font-family="sans-serif" font-weight="700" fill="#dc2626">1</text><path d="M 159.48157,241.6738 C 159.48157,241.6738 154.31792,251.53168 156.76935,253.35722 C 159.22078,255.18275 164.68255,251.39899 167.81204,249.56604" class="stroke-order" fill="none" stroke="#2563eb" stroke-width="1.6" marker-end="url(#arrowhead)"/><path d="M 191.73317,233.66983 C 194.88318,235.85415 199.12698,237.73662 200.16055,242.72003 C 201.19411,247.70345 197.39268,251.99617 195.91371,254.21891" class="stroke-order" fill="none" stroke="#2563eb" stroke-width="1.6" marker-end="url(#arrowhead)"/>
  </g>
</svg>