<svg xmlns="http://www.w3.org/2000/svg" viewBox="514.1 33.4 78.1 78.1" width="200" height="200">
  <defs>
    <marker id="arrowhead" markerWidth="4" markerHeight="4" refX="1.5" refY="1.5"
            orient="auto-start-reverse" markerUnits="strokeWidth">
      <path d="M 0,0 L 3,1.5 L 0,3 z" fill="#2563eb"/>
    </marker>
  </defs>
  <rect x="514.1" y="33.4" width="78.1" height="78.1" fill="#FAFAFA"/>
  <g transform="translate(6,0)">
    <path d="M 541.88984,74.67724 C 541.82733,73.36477 541.57733,72.0054 541.13984,70.59912 L 541.37422,70.271 C 547.15545,70.48977 552.34295,70.33352 556.93672,69.80224 C 556.28044,68.30228 555.65544,66.70853 555.06172,65.021 C 554.46795,63.30228 553.9992,62.27103 553.65547,61.92724 C 553.3117,61.52103 553.3742,61.23978 553.84297,61.0835 L 558.43672,60.28662 C 558.74919,60.31791 558.84294,60.52103 558.71797,60.896 L 558.57734,61.73974 C 559.38982,64.67728 560.23357,67.16165 561.10859,69.19287 C 564.92106,68.5054 568.49918,67.5679 571.84297,66.38037 L 573.53047,70.31787 C 570.34293,71.28665 566.81168,72.09915 562.93672,72.75537 C 563.71794,74.16164 564.63981,75.69289 565.70234,77.34912 C 566.79606,79.005392 569.10856,81.771012 572.63984,85.646002 L 568.93672,88.692872 C 566.93668,87.599132 564.95231,86.864762 562.98359,86.489742 C 561.04606,86.114762 558.95232,85.911632 556.70234,85.880372 C 554.45232,85.817882 552.7492,86.099132 551.59297,86.724122 C 550.4367,87.317882 549.6242,88.021012 549.15547,88.833502 C 548.6867,89.646002 548.48358,90.521002 548.54609,91.458502 C 548.60858,92.364752 549.09295,93.224132 549.99922,94.036622 C 550.90545,94.849122 552.34295,95.442872 554.31172,95.817872 C 556.31169,96.161622 558.37419,96.317872 560.49922,96.286622 C 562.62419,96.224122 565.09294,95.974122 567.90547,95.536622 L 567.99922,95.864742 C 567.74918,96.989752 567.46793,98.458492 567.15547,100.271 C 563.49919,100.42724 560.29607,100.41162 557.54609,100.22412 C 554.79607,100.06787 552.48357,99.614742 550.60859,98.864742 C 548.76483,98.114752 547.26483,97.036622 546.10859,95.630372 C 544.98358,94.224122 544.35858,92.849132 544.23359,91.505372 C 544.13983,90.161632 544.45233,88.849132 545.17109,87.567872 C 545.92108,86.286632 547.03045,85.192882 548.49922,84.286622 C 549.9992,83.349142 551.6242,82.786642 553.37422,82.599122 C 555.1242,82.411642 556.82732,82.380392 558.48359,82.505372 C 560.17107,82.630392 562.28044,82.927262 564.81172,83.396002 C 563.28044,81.396012 562.07731,79.630392 561.20234,78.099122 C 560.32732,76.56789 559.48357,75.00539 558.67109,73.41162 C 553.92107,74.03664 548.32733,74.45852 541.88984,74.67724" fill="#1a1a1a" fill-opacity="0.55"/><path d="M 538.80025,67.364368 C 540.2755,67.364368 552.29972,66.054537 552.29972,66.054537" class="stroke-order" fill="none" stroke="#2563eb" stroke-width="1.6" marker-end="url(#arrowhead)"/><text x="538.87872" y="64.570747" font-size="9" font-family="sans-serif" font-weight="700" fill="#dc2626">1</text><path d="M 559.84092,53.318994 L 564.65864,65.180859" class="stroke-order" fill="none" stroke="#2563eb" stroke-width="1.6" marker-end="url(#arrowhead)"/><text x="562.49384" y="54.901688" font-size="9" font-family="sans-serif" font-weight="700" fill="#dc2626">2</text><path d="M 551.27269,80.261173 C 547.43242,80.322916 540.69355,83.371411 539.70889,88.249532 C 538.73527,93.072937 542.15471,96.468151 548.59156,102.09672" class="stroke-order" fill="none" stroke="#2563eb" stroke-width="1.6" marker-end="url(#arrowhead)"/>
  </g>
</svg>