<svg xmlns="http://www.w3.org/2000/svg" viewBox="518.9 276.9 73.5 73.5" width="200" height="200">
  <defs>
    <marker id="arrowhead" markerWidth="4" markerHeight="4" refX="1.5" refY="1.5"
            orient="auto-start-reverse" markerUnits="strokeWidth">
      <path d="M 0,0 L 3,1.5 L 0,3 z" fill="#2563eb"/>
    </marker>
  </defs>
  <rect x="518.9" y="276.9" width="73.5" height="73.5" fill="#FAFAFA"/>
  <g transform="">
    <path d="M 583.09583,311.62661 L 583.47083,315.65787 L 583.23646,315.89224 C 579.64267,316.17351 576.06454,316.43914 572.50208,316.68911 C 572.4708,320.90788 572.17392,323.6735 571.61146,324.98599 C 571.08017,326.26725 570.12705,327.07975 568.75208,327.42349 C 567.4083,327.76725 564.92393,327.62663 561.29896,327.00161 C 561.61143,325.31413 561.78331,323.97038 561.81458,322.97037 L 562.09583,322.73599 C 563.68956,323.26726 564.87706,323.57975 565.65833,323.67349 C 566.4708,323.736 567.01768,323.6735 567.29896,323.48599 C 567.61143,323.29851 567.86143,322.72038 568.04896,321.75161 C 568.23643,320.75163 568.3458,319.14226 568.37708,316.92349 C 566.68955,317.04851 564.81456,317.17351 562.75208,317.29849 C 560.68956,317.42351 558.36144,317.57976 555.76771,317.76724 C 555.73644,318.64226 555.70519,320.11101 555.67396,322.17349 C 555.67394,324.236 555.72081,326.22038 555.81458,328.12661 C 555.93956,330.03287 556.25206,331.4235 556.75208,332.29849 C 557.28331,333.14225 558.23644,333.65787 559.61146,333.84537 C 560.98643,334.03287 562.42393,334.12662 563.92396,334.12661 C 565.45518,334.09537 567.43955,334.03287 569.87708,333.93911 C 572.3458,333.84537 574.9083,333.57974 577.56458,333.14224 L 577.98646,333.42349 C 577.51767,334.98599 577.15829,336.54849 576.90833,338.11099 C 575.59579,338.20474 574.42392,338.28287 573.39271,338.34537 C 572.36142,338.37662 570.6583,338.40787 568.28333,338.43911 C 565.93955,338.47037 563.43956,338.40787 560.78333,338.25161 C 558.12706,338.09537 556.33019,337.72037 555.39271,337.12661 C 554.48644,336.53287 553.64269,335.56412 552.86146,334.22037 C 552.11144,332.87662 551.67394,331.09537 551.54896,328.87661 C 551.42394,326.62663 551.37707,324.43913 551.40833,322.31411 C 551.43957,320.15788 551.45519,318.75163 551.45521,318.09537 C 548.36145,318.31414 545.15832,318.54851 541.84583,318.79849 C 541.72083,317.39226 541.53333,315.95476 541.28333,314.48599 L 541.28333,314.20474 C 544.81458,314.20476 548.23645,314.15789 551.54896,314.06411 C 551.54894,312.62664 551.58019,310.78289 551.64271,308.53287 C 551.70519,306.2829 551.56457,304.93915 551.22083,304.50161 C 551.25207,304.00165 551.47082,303.75165 551.87708,303.75161 L 556.61146,304.12661 C 556.98644,304.2829 557.01769,304.54852 556.70521,304.92349 L 556.23646,305.72037 C 556.08019,308.78289 555.95519,311.50164 555.86146,313.87661 C 558.23644,313.78289 560.43956,313.67351 562.47083,313.54849 C 564.53331,313.39227 566.51768,313.23602 568.42396,313.07974 C 568.42393,311.48602 568.4083,309.47039 568.37708,307.03287 C 568.3458,304.56415 568.14268,303.06415 567.76771,302.53287 C 567.70518,302.12665 567.92393,301.9079 568.42396,301.87661 L 572.54896,302.11099 C 572.95517,302.23603 573.0333,302.45478 572.78333,302.76724 L 572.36146,303.61099 C 572.42392,307.07977 572.45517,310.11102 572.45521,312.70474 C 575.95517,312.39227 579.50204,312.03289 583.09583,311.62661" fill="#1a1a1a" fill-opacity="0.55"/><path d="M 534.82256,310.32308 L 547.52177,309.07398" class="stroke-order" fill="none" stroke="#2563eb" stroke-width="1.6" marker-end="url(#arrowhead)"/><text x="533.80542" y="307.99805" font-size="9" font-family="sans-serif" font-weight="700" fill="#dc2626">1</text><path d="M 576.02538,299.1269 L 576.02538,309.28426" class="stroke-order" fill="none" stroke="#2563eb" stroke-width="1.6" marker-end="url(#arrowhead)"/><text x="577.29242" y="300.89316" font-size="9" font-family="sans-serif" font-weight="700" fill="#dc2626">2</text><path d="M 560.02538,299.1269 L 560.02538,309.28426" class="stroke-order" fill="none" stroke="#2563eb" stroke-width="1.6" marker-end="url(#arrowhead)"/><text x="553.92273" y="301.03595" font-size="9" font-family="sans-serif" font-weight="700" fill="#dc2626">3</text>
  </g>
</svg>