<svg xmlns="http://www.w3.org/2000/svg" viewBox="525.1 127.8 62.0 62.0" width="200" height="200">
  <defs>
    <marker id="arrowhead" markerWidth="4" markerHeight="4" refX="1.5" refY="1.5"
            orient="auto-start-reverse" markerUnits="strokeWidth">
      <path d="M 0,0 L 3,1.5 L 0,3 z" fill="#2563eb"/>
    </marker>
  </defs>
  <rect x="525.1" y="127.8" width="62.0" height="62.0" fill="#FAFAFA"/>
  <g transform="">
    <path d="M 549.47597,142.46231 C 549.50721,141.96234 549.72596,141.71234 550.13222,141.71231 L 555.4291,142.27481 C 555.80408,142.46234 555.83533,142.72797 555.52285,143.07168 L 554.81972,143.96231 C 554.41345,149.71233 554.14783,154.60295 554.02285,158.63418 C 553.92908,162.6342 553.92908,165.68107 554.02285,167.77481 C 554.11658,169.86856 554.47595,171.39981 555.10097,172.36855 C 555.72595,173.33731 556.36658,174.02481 557.02285,174.43105 C 557.67908,174.83731 558.60095,175.14981 559.78847,175.36855 C 561.0072,175.58731 562.46032,175.52481 564.14785,175.18105 C 565.83532,174.80606 567.61657,173.89981 569.4916,172.46231 C 571.36656,170.99356 573.21031,168.55607 575.02285,165.14981 C 576.74156,166.52482 578.28843,167.50919 579.66347,168.10293 C 577.88218,170.66544 576.00718,172.86856 574.03847,174.71231 C 572.10094,176.55606 569.74156,177.93106 566.96035,178.83731 C 564.21032,179.74355 561.6322,180.00918 559.22597,179.63418 C 556.85095,179.25918 555.03845,178.61855 553.78847,177.71231 C 552.53846,176.77481 551.53846,175.49356 550.78847,173.86855 C 550.03846,172.21231 549.60096,170.30606 549.47597,168.14981 C 549.35096,165.96232 549.36658,162.74357 549.52285,158.49355 C 549.67908,154.24358 549.78846,150.61858 549.85097,147.61855 C 549.94471,144.61859 549.81971,142.89984 549.47597,142.46231" fill="#1a1a1a" fill-opacity="0.55"/><path d="M 545.90793,142.74035 C 545.29993,148.68457 545.12709,159.52986 545.14499,165.68272" class="stroke-order" fill="none" stroke="#2563eb" stroke-width="1.6" marker-end="url(#arrowhead)"/><text x="538.66547" y="149.5851" font-size="9" font-family="sans-serif" font-weight="700" fill="#dc2626">1</text>
  </g>
</svg>