<svg xmlns="http://www.w3.org/2000/svg" viewBox="524.7 357.5 73.3 73.3" width="200" height="200">
  <defs>
    <marker id="arrowhead" markerWidth="4" markerHeight="4" refX="1.5" refY="1.5"
            orient="auto-start-reverse" markerUnits="strokeWidth">
      <path d="M 0,0 L 3,1.5 L 0,3 z" fill="#2563eb"/>
    </marker>
  </defs>
  <rect x="524.7" y="357.5" width="73.3" height="73.3" fill="#FAFAFA"/>
  <g transform="">
    <path d="M 579.11494,395.26552 C 579.64615,396.57804 580.1774,397.92179 580.70865,399.29677 L 580.42744,399.53115 C 577.4899,399.65616 574.58365,399.81241 571.70869,399.99989 C 570.80241,400.34366 569.64616,400.98429 568.23994,401.92177 C 566.83366,402.85929 565.30241,404.10929 563.64619,405.67177 C 562.02117,407.23428 561.05242,408.99991 560.73994,410.96865 C 560.45867,412.9374 560.80242,414.42177 561.77119,415.42177 C 562.77117,416.39052 564.03679,416.96865 565.56807,417.15615 C 567.13054,417.34365 569.70866,417.17177 573.30244,416.64052 C 573.58365,418.10927 573.97428,419.59364 574.47431,421.09365 L 574.23994,421.42177 C 571.05241,421.79677 568.44303,421.89052 566.41181,421.70302 C 564.41179,421.54677 562.56804,421.01552 560.88057,420.10927 C 559.22429,419.20302 557.98992,417.9999 557.17744,416.49989 C 556.36492,414.96865 556.06805,413.1874 556.28681,411.15615 C 556.50555,409.12491 557.42742,407.18741 559.05244,405.34365 C 560.70867,403.49991 562.53679,401.92179 564.53681,400.60927 C 563.44304,400.70304 561.06804,400.95304 557.41181,401.35927 C 553.75555,401.73429 549.02118,402.29679 543.20869,403.04677 C 542.95868,401.32804 542.61494,399.93741 542.17744,398.87489 L 542.36494,398.54677 C 545.80243,398.39054 548.70868,398.21867 551.08369,398.03115 C 557.83367,392.90617 562.63054,389.09368 565.47431,386.59365 C 561.84929,386.90618 557.45867,387.34368 552.30244,387.90615 C 552.08368,386.31243 551.67743,385.03118 551.08369,384.06239 L 551.36494,383.64052 C 555.33367,383.73431 558.63054,383.70306 561.25557,383.54677 C 563.91179,383.39056 566.41179,383.20306 568.75557,382.98427 L 569.08369,382.60927 C 569.20866,382.42181 569.36491,382.40618 569.55244,382.56239 C 570.64616,383.31243 571.88053,384.21868 573.25557,385.28115 C 573.69303,385.84368 573.56803,386.21868 572.88057,386.40615 L 571.66181,386.64052 C 566.91179,390.2968 562.14617,393.90617 557.36494,397.46865 C 558.61492,397.37492 561.05242,397.15617 564.67744,396.81239 C 568.30241,396.46867 573.1149,395.95304 579.11494,395.26552" fill="#1a1a1a" fill-opacity="0.55"/><path d="M 549.67512,379.79695 L 567.3401,380.09137" class="stroke-order" fill="none" stroke="#2563eb" stroke-width="1.6" marker-end="url(#arrowhead)"/><text x="552.10773" y="378.38531" font-size="9" font-family="sans-serif" font-weight="700" fill="#dc2626">1</text><path d="M 543.35952,394.46664 C 543.35952,394.46664 537.16606,399.25487 537.73856,402.79399 C 538.31106,406.33311 545.5855,407.38666 549.18253,408.32871" class="stroke-order" fill="none" stroke="#2563eb" stroke-width="1.6" marker-end="url(#arrowhead)"/><path d="M 579.41117,391.27919 C 579.41117,391.27919 585.11548,393.89213 585.29949,397.31472 C 585.4835,400.73731 581.21447,403.71827 578.67513,405.85279" class="stroke-order" fill="none" stroke="#2563eb" stroke-width="1.6" marker-end="url(#arrowhead)"/>
  </g>
</svg>