<svg xmlns="http://www.w3.org/2000/svg" viewBox="523.4 198.6 73.2 73.2" width="200" height="200">
  <defs>
    <marker id="arrowhead" markerWidth="4" markerHeight="4" refX="1.5" refY="1.5"
            orient="auto-start-reverse" markerUnits="strokeWidth">
      <path d="M 0,0 L 3,1.5 L 0,3 z" fill="#2563eb"/>
    </marker>
  </defs>
  <rect x="523.4" y="198.6" width="73.2" height="73.2" fill="#FAFAFA"/>
  <g transform="">
    <path d="M 563.80457,219.26396 C 563.24205,219.35774 562.99203,219.639 563.05457,220.07646 C 563.36705,220.54525 563.55453,221.139 563.64832,221.85771 C 563.77329,222.54525 563.92953,224.32649 564.11707,227.20146 C 557.36705,227.38899 550.14829,227.3265 542.42957,227.04521 L 542.42957,227.51396 C 542.74207,228.60773 542.92955,229.95149 543.02332,231.51396 C 550.74205,231.20149 557.80454,230.95149 564.21082,230.76396 C 564.17954,232.38899 564.11703,234.20149 564.02332,236.23271 C 562.80454,235.54524 561.33578,235.23273 559.58582,235.26396 C 557.86705,235.29523 556.42954,235.70148 555.30457,236.51396 C 554.2108,237.32648 553.39829,238.38897 552.86707,239.70146 C 552.36705,241.01397 552.27329,242.45148 552.58582,243.98271 C 552.92955,245.48272 553.67954,246.82648 554.80457,248.04521 C 555.92955,249.23272 557.08578,249.95146 558.27332,250.20146 C 559.4608,250.42021 560.52329,250.38897 561.49207,250.10771 C 562.46079,249.82647 563.21078,249.54522 563.74207,249.23271 C 563.61704,249.85772 563.33578,250.70147 562.86707,251.76396 C 562.42955,252.82647 561.55453,253.95146 560.27332,255.13896 C 558.99205,256.32646 557.02328,257.45146 554.33582,258.51396 L 554.33582,258.82646 C 555.49206,260.20145 556.42954,261.57645 557.17957,262.95146 C 560.0233,261.07645 562.08578,259.51395 563.33582,258.26396 C 564.5858,257.04521 565.61703,255.51397 566.42957,253.67021 C 567.27329,251.82647 567.80452,249.79521 568.02332,247.57646 C 568.24204,245.35772 568.30452,243.79522 568.21082,242.85771 C 568.14829,241.88898 567.99202,241.07647 567.74207,240.45146 C 567.92954,238.57647 568.05452,236.88898 568.11707,235.38896 C 568.21079,233.85773 568.24203,232.29524 568.24207,230.67021 C 573.36703,230.51399 578.46076,230.32648 583.49207,230.13896 L 582.83582,226.10771 C 578.17953,226.514 573.30452,226.8265 568.24207,227.04521 C 568.21079,225.29525 568.17952,223.32649 568.11707,221.13896 L 568.49207,220.20146 C 568.83579,219.76399 568.77327,219.48275 568.30457,219.35771 L 563.80457,219.26396 z M 559.67957,238.54521 C 560.10926,238.56865 560.55455,238.67022 561.02332,238.82646 C 561.99204,239.13898 562.64828,239.51398 562.96082,239.98271 C 563.2733,240.42023 563.49203,240.92023 563.61707,241.48271 C 563.36705,243.51398 562.99203,244.85772 562.52332,245.51396 C 562.05454,246.13897 561.42953,246.51397 560.61707,246.63896 C 559.8358,246.76397 558.99204,246.60773 558.11707,246.17021 C 557.24205,245.73273 556.61704,244.92022 556.24207,243.70146 C 555.8983,242.48273 555.99204,241.38897 556.52332,240.45146 C 557.05455,239.48272 557.71078,238.88898 558.46082,238.67021 C 558.85144,238.56085 559.24988,238.52177 559.67957,238.54521 z " fill="#1a1a1a" fill-opacity="0.55"/><path d="M 539.91098,224.09797 C 540.74551,224.09797 557.01884,224.3066 557.01884,224.3066" class="stroke-order" fill="none" stroke="#2563eb" stroke-width="1.6" marker-end="url(#arrowhead)"/><text x="542.50293" y="221.34898" font-size="9" font-family="sans-serif" font-weight="700" fill="#dc2626">1</text><path d="M 554.09137,252.08122 C 554.09137,252.08122 548.90228,249.72588 548.35025,246.04568 C 547.79822,242.36548 550.55838,239.38452 551.88325,237.36041" class="stroke-order" fill="none" stroke="#2563eb" stroke-width="1.6" marker-end="url(#arrowhead)"/><path d="M 571.76375,213.46651 L 572.19797,224.40609" class="stroke-order" fill="none" stroke="#2563eb" stroke-width="1.6" marker-end="url(#arrowhead)"/><text x="574.62927" y="219.47533" font-size="9" font-family="sans-serif" font-weight="700" fill="#dc2626">2</text>
  </g>
</svg>