<svg xmlns="http://www.w3.org/2000/svg" viewBox="454.4 34.8 75.5 75.5" width="200" height="200">
  <defs>
    <marker id="arrowhead" markerWidth="4" markerHeight="4" refX="1.5" refY="1.5"
            orient="auto-start-reverse" markerUnits="strokeWidth">
      <path d="M 0,0 L 3,1.5 L 0,3 z" fill="#2563eb"/>
    </marker>
  </defs>
  <rect x="454.4" y="34.8" width="75.5" height="75.5" fill="#FAFAFA"/>
  <g transform="">
    <path d="M 489.85998,58.914345 C 489.42246,59.008135 489.2037,59.226885 489.17248,59.570595 C 489.48497,60.133125 489.42245,61.351875 488.98498,63.195595 C 488.57872,65.008125 488.2662,66.383125 488.04748,67.320595 C 485.20372,67.508125 482.14121,67.570625 478.89123,67.508095 L 478.67248,67.820595 C 479.07873,69.289365 479.32871,70.726875 479.42248,72.101845 C 482.04747,71.883115 484.54746,71.633125 486.95373,71.383095 C 486.64121,72.508115 486.10995,74.414365 485.35998,77.070595 C 484.64122,79.695615 483.73496,82.539355 482.64123,85.601845 C 481.54747,88.633105 479.98496,91.976855 477.95373,95.664345 L 478.01623,96.289345 C 479.48498,96.976845 480.92246,97.758095 482.35998,98.664348 C 484.35997,93.883105 485.85995,89.914355 486.85998,86.726845 C 487.89121,83.508105 488.8287,80.476865 489.67248,77.633095 C 490.51621,74.789365 491.17244,72.508125 491.60998,70.820595 C 496.51621,70.195615 500.32868,69.633125 503.04748,69.133095 L 503.07873,68.851845 L 501.85998,64.914345 C 499.1412,65.726885 496.07869,66.351875 492.64123,66.789345 C 493.07871,65.039385 493.51619,63.226875 493.95373,61.320595 L 494.73498,60.414345 C 495.0162,60.070635 494.95369,59.851885 494.54748,59.726845 L 489.85998,58.914345 z M 511.26623,73.133095 C 509.72717,73.148725 508.17245,73.195605 506.64123,73.258095 C 503.60995,73.351865 501.10993,73.508125 499.10998,73.726845 L 499.48498,77.758095 C 501.3287,77.414355 503.67244,77.226865 506.54748,77.195595 C 509.45369,77.133105 512.42243,77.258115 515.45373,77.539345 C 515.54743,76.070615 515.70367,74.601875 515.89123,73.164345 C 514.34434,73.133115 512.80529,73.117465 511.26623,73.133095 z M 497.82873,85.508095 L 493.79748,85.633095 C 493.85996,87.414345 494.0787,88.976855 494.45373,90.320595 C 494.82871,91.664345 495.51619,92.883095 496.48498,93.945595 C 497.45371,94.976845 499.01619,95.726845 501.20373,96.195595 C 503.42245,96.633095 508.17243,96.758095 515.42248,96.601845 C 515.51619,95.101855 515.79742,93.695605 516.29748,92.383095 L 515.98498,91.976845 C 509.35995,92.445595 505.07868,92.508105 503.14123,92.195595 C 501.2037,91.883095 499.89119,91.383095 499.20373,90.664345 C 498.51621,89.945605 498.04744,88.226855 497.82873,85.508095 z " fill="#1a1a1a" fill-opacity="0.55"/><path d="M 473.82542,63.885949 C 475.30067,63.885949 484.29972,62.26317 484.29972,62.26317" class="stroke-order" fill="none" stroke="#2563eb" stroke-width="1.6" marker-end="url(#arrowhead)"/><path d="M 502.00277,53.116597 L 498.01958,61.820594" class="stroke-order" fill="none" stroke="#2563eb" stroke-width="1.6" marker-end="url(#arrowhead)"/><text x="503.06326" y="55.920715" font-size="9" font-family="sans-serif" font-weight="700" fill="#dc2626">2</text><text x="472.983" y="60.380104" font-size="9" font-family="sans-serif" font-weight="700" fill="#dc2626">1</text><path d="M 505.86453,69.664657 L 517.37151,69.959707" class="stroke-order" fill="none" stroke="#2563eb" stroke-width="1.6" marker-end="url(#arrowhead)"/><text x="510.68604" y="66.215767" font-size="9" font-family="sans-serif" font-weight="700" fill="#dc2626">3</text><path d="M 492.71795,92.819638 C 494.93083,101.0995 505.99524,99.790212 511.0111,99.75333" class="stroke-order" fill="none" stroke="#2563eb" stroke-width="1.6" marker-end="url(#arrowhead)"/><text x="487.3938" y="92.485596" font-size="9" font-family="sans-serif" font-weight="700" fill="#dc2626">4</text>
  </g>
</svg>