<svg xmlns="http://www.w3.org/2000/svg" viewBox="460.8 277.7 70.5 70.5" width="200" height="200">
  <defs>
    <marker id="arrowhead" markerWidth="4" markerHeight="4" refX="1.5" refY="1.5"
            orient="auto-start-reverse" markerUnits="strokeWidth">
      <path d="M 0,0 L 3,1.5 L 0,3 z" fill="#2563eb"/>
    </marker>
  </defs>
  <rect x="460.8" y="277.7" width="70.5" height="70.5" fill="#FAFAFA"/>
  <g transform="">
    <path d="M 513.60207,301.26141 C 513.94578,302.6677 514.43015,304.05832 515.05519,305.43329 L 514.58644,305.76141 C 512.49265,305.94895 510.3364,306.15207 508.11769,306.37079 C 505.83641,307.55832 503.57079,309.07394 501.32082,310.91767 C 499.10204,312.73019 497.30517,314.77706 495.93019,317.05829 C 494.55517,319.33956 493.93017,321.69893 494.05519,324.13641 C 494.21142,326.54268 495.08642,328.46455 496.68019,329.90204 C 498.27392,331.33955 499.94579,332.24579 501.69582,332.62079 C 503.44579,332.96454 506.16453,333.01142 509.85207,332.76141 L 509.99269,332.90204 C 509.6489,334.37079 509.32078,336.08954 509.00832,338.05829 C 507.16453,338.12079 505.13328,338.04266 502.91457,337.82391 C 500.72704,337.60516 498.69579,336.98016 496.82082,335.94891 C 494.94579,334.88642 493.33642,333.43329 491.99269,331.58954 C 490.68017,329.7458 489.8833,327.44892 489.60207,324.69891 C 489.35205,321.94893 489.9458,319.30831 491.38332,316.77704 C 492.85205,314.24581 494.36767,312.27706 495.93019,310.87079 C 497.49267,309.43332 498.88329,308.23019 500.10207,307.26141 C 498.97704,307.38644 496.50829,307.69894 492.69582,308.19891 C 488.8833,308.66769 483.99268,309.40207 478.02394,310.40204 C 477.71144,308.65207 477.24269,307.10519 476.61769,305.76141 L 476.80519,305.29267 C 479.05519,305.2927 481.50831,305.18332 484.16457,304.96454 C 486.8208,304.71457 491.11767,304.2302 497.05519,303.51141 C 502.99266,302.7927 508.50828,302.0427 513.60207,301.26141" fill="#1a1a1a" fill-opacity="0.55"/><path d="M 476.11617,302.65761 L 488.81538,301.40851" class="stroke-order" fill="none" stroke="#2563eb" stroke-width="1.6" marker-end="url(#arrowhead)"/><text x="475.30719" y="299.70804" font-size="9" font-family="sans-serif" font-weight="700" fill="#dc2626">1</text><path d="M 510.28432,298.39699 C 510.28432,298.39699 520.80971,297.80816 521.76656,300.89953 C 522.72341,303.9909 516.75408,308.40083 514.11173,310.76247" class="stroke-order" fill="none" stroke="#2563eb" stroke-width="1.6" marker-end="url(#arrowhead)"/>
  </g>
</svg>