<svg xmlns="http://www.w3.org/2000/svg" viewBox="464.3 118.2 70.3 70.3" width="200" height="200">
  <defs>
    <marker id="arrowhead" markerWidth="4" markerHeight="4" refX="1.5" refY="1.5"
            orient="auto-start-reverse" markerUnits="strokeWidth">
      <path d="M 0,0 L 3,1.5 L 0,3 z" fill="#2563eb"/>
    </marker>
  </defs>
  <rect x="464.3" y="118.2" width="70.3" height="70.3" fill="#FAFAFA"/>
  <g transform="">
    <path d="M 509.54811,149.92538 C 504.01683,150.95665 499.01683,151.65978 494.54811,152.03475 C 494.20434,154.03477 493.92309,155.7379 493.70436,157.14412 C 493.48559,158.51914 493.11059,160.56602 492.57936,163.28475 C 495.23559,161.56602 497.70434,160.42539 499.98561,159.86288 C 502.29808,159.30039 504.28245,159.08164 505.93873,159.20662 C 507.59495,159.30039 509.21995,159.78477 510.81373,160.65975 C 512.40745,161.50352 513.67307,162.76914 514.61061,164.45662 C 515.57932,166.11289 515.86057,168.03476 515.45436,170.22225 C 515.04807,172.37851 514.09494,174.15975 512.59498,175.566 C 511.1262,176.97225 509.39182,178.0035 507.39186,178.65975 C 505.39183,179.34725 503.14183,179.7535 500.64186,179.8785 C 498.17308,180.0035 495.46996,180.01912 492.53248,179.92538 C 492.53247,178.48787 492.28247,177.11288 491.78248,175.80038 L 491.87623,175.28475 C 494.25121,175.72225 496.46996,175.95663 498.53248,175.98788 C 500.62621,175.98788 502.50121,175.816 504.15748,175.47225 C 505.84495,175.1285 507.3137,174.53475 508.56373,173.691 C 509.8137,172.84725 510.59495,171.65976 510.90748,170.1285 C 511.2512,168.59726 511.14182,167.30039 510.57936,166.23788 C 510.01682,165.14414 509.3137,164.30039 508.46998,163.70662 C 507.65745,163.11289 506.57933,162.80039 505.23561,162.76912 C 503.89183,162.70664 502.37621,162.84726 500.68873,163.191 C 499.00121,163.53476 497.34496,164.19101 495.71998,165.15975 C 494.09496,166.12851 492.64184,167.26914 491.36061,168.58162 L 487.09498,166.84725 C 488.37622,162.44102 489.15747,159.31602 489.43873,157.47225 C 489.71997,155.62852 490.00122,153.90977 490.28248,152.316 C 486.81372,152.53477 484.01685,152.6754 481.89186,152.73788 C 481.70435,151.0504 481.43873,149.64415 481.09498,148.51912 L 481.37623,148.23788 C 484.53247,148.51915 487.70435,148.62853 490.89186,148.566 C 491.07934,147.37853 491.31372,145.84728 491.59498,143.97225 C 491.90747,142.06604 491.95434,140.80041 491.73561,140.17538 C 491.76684,139.48791 492.06372,139.28479 492.62623,139.566 L 497.07936,140.22225 C 497.45434,140.44104 497.46996,140.72229 497.12623,141.066 L 496.37623,141.86288 C 495.90746,144.39416 495.51684,146.55041 495.20436,148.33162 C 498.95433,147.95665 503.36058,147.11291 508.42311,145.80038 L 509.54811,149.92538" fill="#1a1a1a" fill-opacity="0.55"/><path d="M 477.02668,144.88811 L 488.53366,145.18316" class="stroke-order" fill="none" stroke="#2563eb" stroke-width="1.6" marker-end="url(#arrowhead)"/><text x="481.84818" y="141.43922" font-size="9" font-family="sans-serif" font-weight="700" fill="#dc2626">1</text><path d="M 501.58551,133.6487 L 499.06275,144.64765" class="stroke-order" fill="none" stroke="#2563eb" stroke-width="1.6" marker-end="url(#arrowhead)"/><text x="504.10641" y="138.74777" font-size="9" font-family="sans-serif" font-weight="700" fill="#dc2626">2</text><path d="M 506.76809,156.26722 C 506.76809,156.26722 517.19971,157.10175 520.12056,161.90029 C 523.04141,166.69884 519.0774,172.56662 517.19971,175.98298" class="stroke-order" fill="none" stroke="#2563eb" stroke-width="1.6" marker-end="url(#arrowhead)"/>
  </g>
</svg>