<svg xmlns="http://www.w3.org/2000/svg" viewBox="466.3 362.1 64.4 64.4" width="200" height="200">
  <defs>
    <marker id="arrowhead" markerWidth="4" markerHeight="4" refX="1.5" refY="1.5"
            orient="auto-start-reverse" markerUnits="strokeWidth">
      <path d="M 0,0 L 3,1.5 L 0,3 z" fill="#2563eb"/>
    </marker>
  </defs>
  <rect x="466.3" y="362.1" width="64.4" height="64.4" fill="#FAFAFA"/>
  <g transform="">
    <path d="M 507.29514,391.32191 L 507.62327,390.66567 C 507.87323,390.13444 508.17011,390.07194 508.51389,390.47817 L 511.65451,394.18129 C 511.74823,394.68131 511.5451,394.93131 511.04514,394.93129 C 510.45135,394.93131 508.90448,395.30631 506.40451,396.05629 C 503.93573,396.80631 500.99824,397.94694 497.59201,399.47817 C 494.21699,400.97818 491.88887,402.27506 490.60764,403.36879 C 489.35762,404.4313 488.4045,405.58755 487.74827,406.83754 C 487.12325,408.0563 486.967,409.3063 487.27951,410.58754 C 487.62325,411.83755 488.1545,412.69692 488.87327,413.16567 C 489.62325,413.60317 490.76387,413.96254 492.29514,414.24379 C 493.82637,414.49379 496.01387,414.58754 498.85764,414.52504 C 501.73261,414.46254 505.65448,414.16567 510.62327,413.63441 L 510.76389,413.91567 C 510.51385,415.13442 510.31073,416.74379 510.15451,418.74379 C 505.15448,418.74379 501.10761,418.74379 498.01389,418.74379 C 494.95137,418.74379 492.24825,418.50941 489.90451,418.04067 C 487.56075,417.57192 485.88888,416.74379 484.88889,415.55629 C 483.88888,414.36879 483.23263,412.94692 482.92014,411.29067 C 482.63888,409.60317 482.84201,407.96255 483.52951,406.36879 C 484.24825,404.7438 485.26388,403.29068 486.57639,402.00941 C 487.88888,400.69693 489.54512,399.49381 491.54514,398.40004 C 490.48262,394.61881 489.82637,391.10319 489.57639,387.85317 C 489.32637,384.6032 488.967,382.83758 488.49827,382.55629 C 488.49825,382.05633 488.76387,381.80633 489.29514,381.80629 L 493.74827,381.66567 C 494.15449,381.82195 494.23262,382.07195 493.98264,382.41567 L 493.60764,383.35317 C 493.79512,389.29069 494.40449,393.65006 495.43577,396.43129 C 498.59199,394.93131 502.54511,393.22819 507.29514,391.32191" fill="#1a1a1a" fill-opacity="0.55"/><path d="M 496.72636,376.14647 L 500.26549,390.09478" class="stroke-order" fill="none" stroke="#2563eb" stroke-width="1.6" marker-end="url(#arrowhead)"/><text x="499.99606" y="381.91833" font-size="9" font-family="sans-serif" font-weight="700" fill="#dc2626">1</text><path d="M 511.69543,398.63959 L 499.03553,403.64467" class="stroke-order" fill="none" stroke="#2563eb" stroke-width="1.6" marker-end="url(#arrowhead)"/><text x="508.38693" y="407.09094" font-size="9" font-family="sans-serif" font-weight="700" fill="#dc2626">2</text>
  </g>
</svg>