<svg xmlns="http://www.w3.org/2000/svg" viewBox="460.8 200.9 62.2 62.2" width="200" height="200">
  <defs>
    <marker id="arrowhead" markerWidth="4" markerHeight="4" refX="1.5" refY="1.5"
            orient="auto-start-reverse" markerUnits="strokeWidth">
      <path d="M 0,0 L 3,1.5 L 0,3 z" fill="#2563eb"/>
    </marker>
  </defs>
  <rect x="460.8" y="200.9" width="62.2" height="62.2" fill="#FAFAFA"/>
  <g transform="">
    <path d="M 475.05513,228.96952 C 482.83637,227.3758 489.05511,226.2508 493.71138,225.59452 C 498.39885,224.90705 502.21135,224.86018 505.14888,225.45389 C 508.08635,226.01642 510.33634,227.11017 511.89888,228.73515 C 513.46134,230.32892 514.49259,232.26642 514.99263,234.54765 C 515.49259,236.79766 515.35196,239.09454 514.57076,241.43827 C 513.78946,243.78203 512.49259,245.8289 510.68013,247.57889 C 508.89884,249.29765 506.52385,250.61015 503.55513,251.51639 C 500.58635,252.3914 495.75823,253.03202 489.07076,253.43827 C 488.82074,251.62577 488.46136,250.00078 487.99263,248.56327 L 488.22701,248.23515 C 494.38323,248.3914 498.6801,248.1414 501.11763,247.48515 C 503.58635,246.8289 505.52385,245.8914 506.93013,244.67265 C 508.36759,243.42266 509.38322,241.92266 509.97701,240.17265 C 510.57072,238.39141 510.69572,236.79766 510.35201,235.39139 C 510.00822,233.95392 509.35197,232.68829 508.38326,231.59452 C 507.44572,230.46954 505.9301,229.67267 503.83638,229.20389 C 501.7426,228.73517 498.75823,228.79767 494.88326,229.39139 C 491.03949,229.98517 484.96137,231.53204 476.64888,234.03202 C 476.24263,232.15704 475.6645,230.64142 474.91451,229.48515 L 475.05513,228.96952" fill="#1a1a1a" fill-opacity="0.55"/><path d="M 475.68186,225.95044 L 492.16382,223.02959" class="stroke-order" fill="none" stroke="#2563eb" stroke-width="1.6" marker-end="url(#arrowhead)"/><text x="474.34619" y="222.61136" font-size="9" font-family="sans-serif" font-weight="700" fill="#dc2626">1</text>
  </g>
</svg>