<svg xmlns="http://www.w3.org/2000/svg" viewBox="645.0 193.6 78.8 78.8" width="200" height="200">
  <defs>
    <marker id="arrowhead" markerWidth="4" markerHeight="4" refX="1.5" refY="1.5"
            orient="auto-start-reverse" markerUnits="strokeWidth">
      <path d="M 0,0 L 3,1.5 L 0,3 z" fill="#2563eb"/>
    </marker>
  </defs>
  <rect x="645.0" y="193.6" width="78.8" height="78.8" fill="#FAFAFA"/>
  <g transform="">
    <path d="M 682.72302,219.83007 L 681.41052,223.95507 C 686.473,225.3926 692.22298,226.5176 698.62927,227.29882 C 698.87924,225.67385 699.12922,224.36135 699.41052,223.36132 L 699.22302,222.98632 C 693.59799,222.64261 688.09798,221.5801 682.72302,219.83007 z M 690.72302,232.17382 C 689.31677,232.2285 687.92612,232.39258 686.56677,232.67382 C 683.87925,233.2051 680.28549,234.11134 675.75427,235.39257 L 675.59802,235.86132 C 676.47301,237.2051 677.19174,238.67384 677.72302,240.23632 C 681.75426,238.23634 684.87924,236.98634 687.12927,236.48632 C 689.41049,235.98634 691.62923,235.89259 693.75427,236.20507 C 695.91049,236.51759 697.37923,237.23634 698.19177,238.39257 C 699.00423,239.54883 699.50422,240.79884 699.66052,242.11132 C 699.84799,243.42383 699.59797,245.14258 698.94177,247.26757 C 698.31673,249.39258 697.31672,251.14258 695.91052,252.54882 C 694.53549,253.95508 692.69173,255.14258 690.37927,256.11132 C 688.098,257.08008 685.78549,257.73632 683.47302,258.04882 L 683.47302,258.51757 C 684.348,259.67382 685.03549,261.08006 685.53552,262.76757 C 688.84799,261.70506 691.53548,260.64257 693.59802,259.54882 C 695.69174,258.48632 697.72297,256.89257 699.66052,254.76757 C 701.59799,252.64258 702.87922,250.29882 703.50427,247.76757 C 704.16048,245.20508 704.34797,242.98634 704.09802,241.11132 C 703.84798,239.20509 703.00421,237.36134 701.53552,235.58007 C 700.09799,233.76759 697.91048,232.7051 695.00427,232.36132 C 693.55113,232.18946 692.12927,232.11913 690.72302,232.17382 z " fill="#1a1a1a" fill-opacity="0.55"/><path d="M 682.63443,216.88592 L 699.70549,220.42505" class="stroke-order" fill="none" stroke="#2563eb" stroke-width="1.6" marker-end="url(#arrowhead)"/><text x="683.76062" y="215.10347" font-size="9" font-family="sans-serif" font-weight="700" fill="#dc2626">1</text><path d="M 670.49446,232.9875 L 685.06733,229.03201" class="stroke-order" fill="none" stroke="#2563eb" stroke-width="1.6" marker-end="url(#arrowhead)"/><text x="670.37482" y="229.38266" font-size="9" font-family="sans-serif" font-weight="700" fill="#dc2626">2</text>
  </g>
</svg>