<svg xmlns="http://www.w3.org/2000/svg" viewBox="71.2 34.9 75.6 75.6" width="200" height="200">
  <defs>
    <marker id="arrowhead" markerWidth="4" markerHeight="4" refX="1.5" refY="1.5"
            orient="auto-start-reverse" markerUnits="strokeWidth">
      <path d="M 0,0 L 3,1.5 L 0,3 z" fill="#2563eb"/>
    </marker>
  </defs>
  <rect x="71.2" y="34.9" width="75.6" height="75.6" fill="#FAFAFA"/>
  <g transform="">
    <path d="M 115.65642,92.945173 C 118.28139,92.570173 120.37514,92.148303 121.93767,91.679543 C 123.50013,91.179553 124.90638,90.382683 126.15642,89.288923 C 127.43763,88.163933 128.31263,86.726433 128.78142,84.976423 C 129.28138,83.226433 129.40638,81.554563 129.15642,79.960803 C 128.93763,78.367063 128.34388,76.960813 127.37517,75.742043 C 126.43763,74.492073 125.25013,73.710823 123.81267,73.398303 C 122.40638,73.085823 120.84388,73.023323 119.12517,73.210803 C 117.43764,73.398323 115.48452,74.023323 113.26579,75.085803 C 111.04702,76.148313 108.85952,77.601443 106.70329,79.445173 C 106.73452,81.726433 106.76577,84.382683 106.79704,87.413923 C 106.85952,90.445183 107.14077,94.023303 107.64079,98.148302 L 107.50017,98.570172 C 106.0939,98.663922 104.48453,98.929542 102.67204,99.367042 C 102.57828,95.148303 102.51578,91.726423 102.48454,89.101423 C 102.48453,86.476433 102.48453,84.679563 102.48454,83.710803 C 100.42203,86.085803 98.015785,89.210803 95.265795,93.085803 L 94.843925,93.132673 C 93.812665,91.726423 92.656415,90.648303 91.375175,89.898303 C 95.968915,84.835813 99.672035,80.976443 102.48454,78.320173 C 102.48453,76.913943 102.48453,75.663943 102.48454,74.570173 C 102.48453,73.445193 102.48453,72.507693 102.48454,71.757673 C 99.734535,72.445193 97.140785,73.273323 94.703295,74.242043 C 94.547045,72.929573 94.109545,71.523323 93.390795,70.023303 L 93.484545,69.601423 C 96.672035,69.226453 99.687665,68.726453 102.53142,68.101423 C 102.56265,66.570203 102.62515,64.835833 102.71892,62.898303 C 102.81265,60.929583 102.73453,59.757713 102.48454,59.382673 C 102.32828,58.820213 102.48453,58.570213 102.95329,58.632673 L 107.59392,59.101423 C 107.9689,59.257713 107.9689,59.507713 107.59392,59.851423 L 107.07829,60.601423 C 106.95327,62.632703 106.85952,64.617083 106.79704,66.554543 L 106.89079,66.413923 C 107.04702,66.288953 107.20327,66.288953 107.35954,66.413923 C 108.57827,66.976453 109.70327,67.601453 110.73454,68.288923 C 111.20327,68.695203 111.10952,69.085823 110.45329,69.460803 L 108.76579,70.398303 C 108.01577,71.554573 107.31265,72.617073 106.65642,73.585803 L 106.70329,74.757673 C 108.54702,73.382693 110.5314,72.257693 112.65642,71.382673 C 114.81264,70.476453 116.93764,69.913953 119.03142,69.695173 C 121.12513,69.476453 123.20326,69.617073 125.26579,70.117043 C 127.32825,70.585823 129.14075,71.742073 130.70329,73.585803 C 132.297,75.429573 133.21887,77.367063 133.46892,79.398303 C 133.71887,81.398313 133.59387,83.476433 133.09392,85.632673 C 132.62512,87.757683 131.64075,89.570183 130.14079,91.070173 C 128.64075,92.570173 126.95325,93.773303 125.07829,94.679543 C 123.20326,95.554553 120.64076,96.367043 117.39079,97.117042 C 116.89076,95.617053 116.31264,94.382673 115.65642,93.413923 L 115.65642,92.945173" fill="#1a1a1a" fill-opacity="0.55"/><path d="M 110.49564,52.415465 L 110.71693,62.081076" class="stroke-order" fill="none" stroke="#2563eb" stroke-width="1.6" marker-end="url(#arrowhead)"/><path d="M 87.630076,67.451776 L 100.16973,65.09137" class="stroke-order" fill="none" stroke="#2563eb" stroke-width="1.6" marker-end="url(#arrowhead)"/><path d="M 90.755092,86.479682 C 90.755092,86.479682 85.095171,93.304212 87.02502,95.677405 C 88.95487,98.050599 95.095784,95.80649 99.728456,94.570965" class="stroke-order" fill="none" stroke="#2563eb" stroke-width="1.6" marker-end="url(#arrowhead)"/><path d="M 119.71685,65.681472 C 132.6622,62.435913 135.66803,73.05774 137.64118,78.073603" class="stroke-order" fill="none" stroke="#2563eb" stroke-width="1.6" marker-end="url(#arrowhead)"/><text x="112.88158" y="58.074268" font-size="9" font-family="sans-serif" font-weight="700" fill="#dc2626">1</text><text x="86.377449" y="64.12281" font-size="9" font-family="sans-serif" font-weight="700" fill="#dc2626">2</text>
  </g>
</svg>