<svg xmlns="http://www.w3.org/2000/svg" viewBox="72.7 275.5 77.8 77.8" width="200" height="200">
  <defs>
    <marker id="arrowhead" markerWidth="4" markerHeight="4" refX="1.5" refY="1.5"
            orient="auto-start-reverse" markerUnits="strokeWidth">
      <path d="M 0,0 L 3,1.5 L 0,3 z" fill="#2563eb"/>
    </marker>
  </defs>
  <rect x="72.7" y="275.5" width="77.8" height="77.8" fill="#FAFAFA"/>
  <g transform="">
    <path d="M 114.68607,299.90768 C 114.5767,299.90768 114.48293,299.93895 114.37357,300.03268 L 113.74857,300.75143 C 110.15479,301.25147 107.56105,301.53272 105.96732,301.62643 C 104.4048,301.72022 102.7173,301.75146 100.90482,301.68893 L 100.77982,302.06393 C 101.46731,303.37647 101.84231,304.53271 101.90482,305.53268 C 106.37355,304.78271 109.7798,304.22021 112.12357,303.84518 C 108.4673,307.7827 103.12355,312.37645 96.092322,317.62643 L 96.092322,318.00143 C 97.311062,318.93895 98.311072,319.9702 99.123572,321.12643 C 100.34231,319.7827 102.02981,318.1577 104.15482,316.25143 L 103.52982,316.90768 C 104.7798,315.9077 106.2798,315.0327 108.02982,314.28268 C 109.77979,313.50145 111.56105,313.06395 113.34232,312.97018 C 115.15479,312.8452 116.65479,313.00145 117.87357,313.43893 C 119.12353,313.87645 120.02979,314.5327 120.56107,315.40768 C 121.09229,316.25145 121.27979,317.31395 121.12357,318.56393 C 120.96729,319.7827 120.49853,320.78269 119.74857,321.56393 C 119.02978,322.3452 118.24854,322.93894 117.40482,323.34518 C 116.59229,323.72019 115.93604,323.97019 115.43607,324.09518 C 115.71729,323.56394 115.84229,322.90769 115.81107,322.15768 C 115.81104,321.37645 115.40479,320.5327 114.59232,319.62643 C 113.77979,318.7202 112.62354,318.18894 111.12357,318.00143 C 109.62354,317.7827 108.3423,317.87645 107.24857,318.31393 C 106.1548,318.75145 105.2798,319.59519 104.65482,320.81393 C 104.06105,322.00145 104.0298,323.12644 104.52982,324.22018 C 105.0298,325.31394 105.9048,326.15769 107.15482,326.72018 C 105.7798,327.65768 103.77982,329.00143 101.18607,330.75143 C 98.592312,332.50144 95.217312,334.43893 91.029822,336.59518 L 91.029822,336.97018 C 92.061072,338.18893 92.904812,339.37643 93.592322,340.53268 C 97.373562,337.81393 100.65481,335.50143 103.40482,333.59518 C 106.87355,332.47018 108.87355,332.34518 109.40482,333.18893 C 109.9673,334.03269 110.31105,334.87643 110.43607,335.75143 C 110.56105,336.62643 110.56105,337.72018 110.43607,339.03268 L 114.56107,339.03268 C 114.68604,337.78268 115.31104,336.65768 116.46732,335.65768 C 117.65479,334.62643 118.77978,333.84518 119.84232,333.28268 C 120.93603,332.68893 122.15479,332.28269 123.46732,332.09518 C 124.77978,331.87644 125.96728,332.00144 127.06107,332.47018 C 128.15477,332.93893 128.84228,333.53268 129.09232,334.25143 C 129.34228,334.93893 129.34227,335.37643 129.12357,335.53268 C 128.90477,335.68893 128.31102,335.90768 127.34232,336.18893 C 126.37353,336.43894 124.93603,336.59518 122.99857,336.68893 L 122.99857,337.15768 C 123.56104,338.00143 123.99853,339.15768 124.31107,340.62643 C 127.87353,339.75143 130.18602,339.12643 131.27982,338.75143 C 132.37352,338.40768 133.15477,337.90767 133.62357,337.22018 C 134.09227,336.53268 134.02977,335.43893 133.40482,333.93893 C 132.77978,332.40769 131.43602,331.09519 129.40482,330.03268 C 127.37353,328.93894 125.31103,328.56394 123.21732,328.90768 C 121.12353,329.25144 119.34229,329.81393 117.84232,330.56393 C 116.34229,331.28269 114.93604,332.22019 113.62357,333.40768 C 112.9048,331.03269 111.24855,329.90768 108.65482,330.00143 C 109.93605,329.12644 111.0298,328.31394 111.93607,327.59518 C 112.56105,327.59519 113.5923,327.56393 115.02982,327.47018 C 116.46729,327.34519 118.06104,326.78269 119.84232,325.81393 C 121.62353,324.84519 122.96729,323.75144 123.84232,322.50143 C 124.71728,321.25145 125.18603,319.93894 125.27982,318.56393 C 125.37353,317.18896 125.06103,315.75145 124.34232,314.28268 C 123.62353,312.81395 122.12354,311.68896 119.81107,310.90768 C 117.52979,310.09521 115.52979,309.81396 113.84232,310.06393 C 112.18604,310.31396 110.9048,310.62645 109.96732,310.97018 C 112.0298,309.00145 114.49854,306.62646 117.37357,303.87643 L 118.52982,303.50143 C 119.37353,303.18896 119.43604,302.78271 118.68607,302.28268 C 117.21729,301.40772 115.99854,300.65772 115.02982,300.03268 C 114.92043,299.93895 114.79544,299.90768 114.68607,299.90768 z M 109.40482,320.84518 C 110.43605,320.7202 111.18604,321.00144 111.68607,321.65768 C 112.21729,322.31394 111.81104,323.18894 110.46732,324.28268 C 109.93604,324.22019 109.34229,324.12644 108.68607,324.03268 C 108.06105,323.93894 107.7798,323.43894 107.81107,322.50143 C 107.87355,321.5327 108.4048,320.9702 109.40482,320.84518 z " fill="#1a1a1a" fill-opacity="0.55"/><path d="M 99.512691,298.9797 L 114.2335,297.50761" class="stroke-order" fill="none" stroke="#2563eb" stroke-width="1.6" marker-end="url(#arrowhead)"/><text x="98.875938" y="296.9838" font-size="9" font-family="sans-serif" font-weight="700" fill="#dc2626">1</text><path d="M 120.53838,308.79903 C 120.53838,308.79903 125.48274,309.47563 127.30435,312.44225 C 129.12596,315.40887 127.98911,319.34574 127.75121,321.54876" class="stroke-order" fill="none" stroke="#2563eb" stroke-width="1.6" marker-end="url(#arrowhead)"/><path d="M 91.416244,334.16244 C 91.416244,334.16244 84.770409,337.9083 87.294416,340.93401 C 89.818422,343.95972 99.130931,341.17654 102.86825,340.21646" class="stroke-order" fill="none" stroke="#2563eb" stroke-width="1.6" marker-end="url(#arrowhead)"/><path d="M 128.95431,327.31725 C 133.90419,327.18845 136.51713,331.56789 138.44924,333.86802" class="stroke-order" fill="none" stroke="#2563eb" stroke-width="1.6" marker-end="url(#arrowhead)"/>
  </g>
</svg>