<svg xmlns="http://www.w3.org/2000/svg" viewBox="76.8 118.7 72.2 72.2" width="200" height="200">
  <defs>
    <marker id="arrowhead" markerWidth="4" markerHeight="4" refX="1.5" refY="1.5"
            orient="auto-start-reverse" markerUnits="strokeWidth">
      <path d="M 0,0 L 3,1.5 L 0,3 z" fill="#2563eb"/>
    </marker>
  </defs>
  <rect x="76.8" y="118.7" width="72.2" height="72.2" fill="#FAFAFA"/>
  <g transform="">
    <path d="M 114.45561,143.03685 C 114.34624,143.03685 114.25248,143.06812 114.14311,143.16185 L 113.61186,143.97435 C 110.08059,144.78688 107.58059,145.31813 106.08061,145.59935 C 104.61185,145.84938 102.8931,146.00563 100.95561,146.03685 L 100.73686,146.6306 C 101.8306,147.84938 102.54934,149.03688 102.92436,150.1931 C 106.79934,149.06813 110.17434,148.16188 113.01811,147.47435 C 112.58059,149.91188 112.11184,152.19313 111.61186,154.3181 C 111.36184,154.38062 110.70558,154.56812 109.67436,154.84935 C 108.64309,155.09937 106.79935,155.94312 104.14311,157.41185 C 101.48685,158.88062 99.330595,160.84936 97.643108,163.28685 C 95.986848,165.72436 95.111855,168.03686 95.018108,170.2556 C 94.924358,172.47436 95.17435,174.16185 95.799358,175.3181 C 96.455598,176.4431 97.361845,177.3181 98.486858,177.9431 C 99.611848,178.53685 100.70559,178.81809 101.79936,178.7556 C 102.92434,178.66186 104.11185,178.16185 105.33061,177.28685 C 106.58059,176.41185 107.98684,174.47435 109.54936,171.4431 C 111.14309,168.38062 112.33059,165.66186 113.14311,163.28685 C 113.95559,160.91186 114.58059,158.88062 115.01811,157.22435 C 116.67434,157.06812 118.48684,157.03687 120.45561,157.1306 C 122.42433,157.22437 124.20558,157.69312 125.76811,158.53685 C 127.36182,159.34937 128.51807,160.56811 129.23686,162.16185 C 129.98682,163.75561 130.29933,165.31811 130.20561,166.8806 C 130.11183,168.44311 129.42433,170.09935 128.14311,171.8181 C 125.76808,169.38061 123.67433,168.00561 121.83061,167.6931 C 120.01808,167.34937 118.39308,167.53686 116.95561,168.2556 C 115.51809,168.97436 114.70559,170.41186 114.51811,172.59935 C 114.33059,174.78685 114.79934,176.53685 115.92436,177.84935 C 117.08058,179.1306 118.73683,179.78684 120.89311,179.78685 C 123.08058,179.81809 125.20557,179.16185 127.29936,177.84935 C 129.42432,176.5056 131.11182,174.8806 132.33061,172.9431 C 133.54932,171.00561 134.20557,169.0056 134.33061,166.9431 C 134.48682,164.84937 134.11182,162.81812 133.17436,160.8806 C 132.26807,158.94312 130.42432,157.28687 127.64311,155.8806 C 124.89308,154.44313 122.45557,153.72437 120.36186,153.72435 C 118.29933,153.72437 116.86183,153.72438 116.01811,153.7556 C 116.54933,151.63063 117.11183,149.28688 117.70561,146.72435 L 118.36186,146.41185 C 119.11183,146.06813 119.14308,145.66188 118.45561,145.22435 C 117.11183,144.50563 115.89308,143.81813 114.79936,143.16185 C 114.68998,143.06812 114.56499,143.03685 114.45561,143.03685 z M 110.58061,158.3181 C 110.29934,159.34937 109.73684,161.06811 108.92436,163.47435 C 108.11184,165.84936 107.0806,168.13061 105.83061,170.3181 C 104.5806,172.50561 103.6431,173.8181 102.98686,174.2556 C 102.3306,174.66186 101.6431,174.7556 100.95561,174.5681 C 100.26811,174.34935 99.736845,173.84935 99.330608,173.0681 C 98.955598,172.25561 98.799357,171.16186 98.893108,169.78685 C 99.018108,168.38061 99.768095,166.69311 101.11186,164.72435 C 102.48685,162.75562 104.1431,161.28687 106.08061,160.3181 C 108.04934,159.34937 109.54934,158.69312 110.58061,158.3181 z M 120.04936,170.59935 C 120.24126,170.59691 120.42436,170.59935 120.64311,170.6306 C 122.42433,170.88061 124.01808,172.16185 125.39311,174.4431 C 125.14308,174.63061 124.54933,175.0056 123.61186,175.59935 C 122.70558,176.16185 121.51808,176.3806 120.08061,176.22435 C 118.67434,176.0681 117.98683,175.03685 117.98686,173.1306 C 118.01418,171.46264 118.70609,170.61645 120.04936,170.59935 z " fill="#1a1a1a" fill-opacity="0.55"/><path d="M 99.517652,142.91475 L 115.58235,140.20253" class="stroke-order" fill="none" stroke="#2563eb" stroke-width="1.6" marker-end="url(#arrowhead)"/><text x="101.07877" y="139.44202" font-size="9" font-family="sans-serif" font-weight="700" fill="#dc2626">1</text><path d="M 104.83778,181.40742 C 88.068949,182.11156 92.580624,165.70784 93.571628,161.06576" class="stroke-order" fill="none" stroke="#2563eb" stroke-width="1.6" marker-end="url(#arrowhead)"/><path d="M 124.86649,152.9291 C 136.08047,153.81579 136.39343,160.07475 137.69738,164.82114" class="stroke-order" fill="none" stroke="#2563eb" stroke-width="1.6" marker-end="url(#arrowhead)"/>
  </g>
</svg>