<svg xmlns="http://www.w3.org/2000/svg" viewBox="74.5 357.0 71.5 71.5" width="200" height="200">
  <defs>
    <marker id="arrowhead" markerWidth="4" markerHeight="4" refX="1.5" refY="1.5"
            orient="auto-start-reverse" markerUnits="strokeWidth">
      <path d="M 0,0 L 3,1.5 L 0,3 z" fill="#2563eb"/>
    </marker>
  </defs>
  <rect x="74.5" y="357.0" width="71.5" height="71.5" fill="#FAFAFA"/>
  <g transform="">
    <path d="M 126.9629,394.40163 L 127.19727,393.79226 C 127.32223,393.19853 127.58786,393.10478 127.99415,393.511 L 131.93165,397.12038 C 131.9941,397.58915 131.72848,397.88603 131.13477,398.011 C 130.54098,397.88603 128.94723,398.26102 126.35352,399.136 C 123.75974,400.01102 120.90037,401.19852 117.7754,402.6985 C 117.80662,403.22977 117.83787,404.10477 117.86915,405.3235 C 117.93162,406.51102 117.97849,408.44851 118.00977,411.136 L 113.50977,411.136 C 113.7285,408.88601 113.83787,406.71414 113.8379,404.62038 C 111.65037,405.77664 110.05663,406.76102 109.05665,407.5735 C 108.08788,408.38601 107.291,409.29226 106.66602,410.29226 C 106.041,411.29226 105.88476,412.27664 106.19727,413.24538 C 106.50975,414.18288 107.00975,414.82351 107.69727,415.16726 C 108.38475,415.47976 109.52538,415.71413 111.11915,415.87038 C 112.74412,415.99538 114.61912,416.01101 116.74415,415.91726 C 118.90037,415.82351 122.40036,415.51101 127.24415,414.97976 L 127.57227,415.261 C 127.25973,416.44851 127.02536,417.9485 126.86915,419.761 C 121.43161,419.761 117.54099,419.761 115.19727,419.761 C 112.88475,419.79225 110.61913,419.62038 108.4004,419.24538 C 106.18163,418.90163 104.58788,418.30788 103.61915,417.46413 C 102.65038,416.58913 101.97851,415.44851 101.60352,414.04226 C 101.22851,412.60476 101.43163,411.16726 102.2129,409.72976 C 103.02538,408.29226 104.22851,406.94852 105.82227,405.6985 C 107.416,404.44852 110.041,402.82352 113.69727,400.8235 C 113.666,400.41727 113.58787,399.7454 113.4629,398.80788 C 113.36912,397.8704 112.40037,397.32353 110.55665,397.16726 C 108.71288,396.97978 105.97851,398.01102 102.35352,400.261 C 101.04101,401.76102 99.587887,403.37039 97.994147,405.08913 C 97.056637,403.90164 96.041007,402.82352 94.947267,401.85476 L 94.900397,401.43288 C 97.431637,399.6829 99.603507,397.79228 101.41602,395.761 C 103.22851,393.72978 104.65038,391.80791 105.68165,389.99538 C 102.74413,390.33916 99.634757,390.66728 96.353517,390.97976 C 96.228507,389.66728 95.978517,388.38603 95.603517,387.136 L 95.791017,386.85476 C 100.00976,386.82354 103.96288,386.62041 107.6504,386.24538 C 108.02538,385.43291 108.46288,384.38604 108.9629,383.10476 C 109.49413,381.79229 109.6035,380.85479 109.29102,380.29226 C 109.25975,379.94854 109.46288,379.72979 109.9004,379.636 L 114.91602,380.43288 C 115.291,380.55792 115.291,380.76104 114.91602,381.04226 L 114.07227,381.6985 C 113.416,383.16729 112.791,384.49541 112.19727,385.68288 C 115.38475,385.24541 118.33787,384.65166 121.05665,383.90163 L 121.94727,387.6985 C 118.91599,388.29228 115.02537,388.88603 110.2754,389.47976 C 109.08788,391.60478 107.7285,393.66728 106.19727,395.66726 C 108.4785,394.51103 110.666,394.08915 112.75977,394.40163 C 114.88475,394.71415 116.33787,396.27665 117.11915,399.08913 C 119.77537,397.7454 123.05661,396.1829 126.9629,394.40163" fill="#1a1a1a" fill-opacity="0.55"/><path d="M 92.84994,383.64108 L 106.1737,382.80835" class="stroke-order" fill="none" stroke="#2563eb" stroke-width="1.6" marker-end="url(#arrowhead)"/><text x="91.662743" y="381.18683" font-size="9" font-family="sans-serif" font-weight="700" fill="#dc2626">1</text><path d="M 119.70564,372.60734 L 116.3747,382.60016" class="stroke-order" fill="none" stroke="#2563eb" stroke-width="1.6" marker-end="url(#arrowhead)"/><text x="121.685" y="377.62546" font-size="9" font-family="sans-serif" font-weight="700" fill="#dc2626">2</text><path d="M 91.637056,397.97716 C 91.637056,397.97716 88.628853,407.49084 91.131392,409.47815 C 93.63393,411.46546 99.14837,407.59502 101.64721,405.9264" class="stroke-order" fill="none" stroke="#2563eb" stroke-width="1.6" marker-end="url(#arrowhead)"/><path d="M 133.00254,400.5533 L 121.07868,404.89593" class="stroke-order" fill="none" stroke="#2563eb" stroke-width="1.6" marker-end="url(#arrowhead)"/><text x="128.89821" y="409.12799" font-size="9" font-family="sans-serif" font-weight="700" fill="#dc2626">3</text>
  </g>
</svg>