<svg xmlns="http://www.w3.org/2000/svg" viewBox="199.0 34.7 72.7 72.7" width="200" height="200">
  <defs>
    <marker id="arrowhead" markerWidth="4" markerHeight="4" refX="1.5" refY="1.5"
            orient="auto-start-reverse" markerUnits="strokeWidth">
      <path d="M 0,0 L 3,1.5 L 0,3 z" fill="#2563eb"/>
    </marker>
  </defs>
  <rect x="199.0" y="34.7" width="72.7" height="72.7" fill="#FAFAFA"/>
  <g transform="translate(0,2)">
    <path d="M 233.40428,61.466116 C 234.24802,64.341136 235.09176,67.059886 235.93553,69.622356 C 238.77926,68.528636 241.52926,67.544266 244.18553,66.669236 C 244.24801,64.606766 244.27926,62.809896 244.27928,61.278616 C 244.27926,59.716146 244.23238,58.825526 244.13866,58.606736 C 243.95113,58.231776 244.04488,57.934896 244.41991,57.716116 L 249.06053,58.184856 C 249.498,58.247396 249.59175,58.497396 249.34178,58.934856 L 248.73241,59.778616 C 248.51363,62.028646 248.35738,63.997386 248.26366,65.684856 C 249.54488,65.434886 251.01362,65.325516 252.66991,65.356736 C 254.35737,65.356766 256.02924,65.825516 257.68553,66.762986 C 259.37299,67.700516 260.65424,68.903636 261.52928,70.372356 C 262.40424,71.809886 262.84174,73.325506 262.84178,74.919236 C 262.87299,76.481756 262.56049,78.013006 261.90428,79.512986 C 261.24799,80.981746 260.21674,82.169246 258.81053,83.075486 C 257.43549,83.981746 255.88862,84.544246 254.16991,84.762986 C 252.48237,84.981746 250.73237,84.778616 248.91991,84.153616 C 247.13863,83.528626 245.20113,82.231746 243.10741,80.262986 L 246.06053,77.122356 C 247.6855,78.809876 249.0605,79.856746 250.18553,80.262986 C 251.34175,80.669246 252.40425,80.856746 253.37303,80.825486 C 254.373,80.762996 255.21674,80.544246 255.90428,80.169236 C 256.62299,79.794246 257.24799,79.091126 257.77928,78.059856 C 258.34174,77.028626 258.57612,76.013006 258.48241,75.012986 C 258.41987,73.981756 258.13862,72.997386 257.63866,72.059856 C 257.13862,71.122386 256.34174,70.388006 255.24803,69.856736 C 254.15425,69.325506 252.8105,69.059886 251.21678,69.059856 C 249.65425,69.059886 247.71675,69.450506 245.40428,70.231736 C 243.12301,70.981756 240.38863,72.013006 237.20116,73.325486 C 238.73239,77.638006 240.13863,81.341126 241.41991,84.434856 C 242.70113,87.497366 244.32613,91.122366 246.29491,95.309856 L 246.29491,95.872356 C 244.54488,96.247356 242.88863,96.841111 241.32616,97.653621 C 239.70114,92.872366 238.27926,88.919236 237.06053,85.794236 C 235.87301,82.637996 234.59177,79.044246 233.21678,75.012986 C 230.18552,76.325506 226.9199,77.809876 223.41991,79.466116 C 222.7324,78.028626 221.82615,76.669256 220.70116,75.387986 L 220.93553,74.966116 C 224.87302,73.716136 228.52927,72.450506 231.90428,71.169236 C 231.27927,69.294256 230.63864,67.372386 229.98241,65.403616 C 229.3574,63.434896 228.74802,62.231766 228.15428,61.794236 C 227.81052,61.513016 227.84177,61.184896 228.24803,60.809856 L 233.26366,59.403616 C 233.76364,59.372396 233.91989,59.606766 233.73241,60.106736 L 233.40428,61.466116" fill="#1a1a1a" fill-opacity="0.55"/><path d="M 212.76897,73.653963 C 212.76897,73.653963 223.26148,70.409134 227.76737,69.292752" class="stroke-order" fill="none" stroke="#2563eb" stroke-width="1.6" marker-end="url(#arrowhead)"/><text x="213.79829" y="69.684494" font-size="9" font-family="sans-serif" font-weight="700" fill="#dc2626">1</text><path d="M 254.09769,51.274312 C 254.09769,51.274312 252.86437,59.620709 252.4674,62.364027" class="stroke-order" fill="none" stroke="#2563eb" stroke-width="1.6" marker-end="url(#arrowhead)"/><text x="256.3884" y="59.381039" font-size="9" font-family="sans-serif" font-weight="700" fill="#dc2626">2</text><path d="M 234.72963,51.637788 C 234.72963,51.637788 238.36465,62.86093 239.36917,65.751773" class="stroke-order" fill="none" stroke="#2563eb" stroke-width="1.6" marker-end="url(#arrowhead)"/><text x="228.19043" y="56.356766" font-size="9" font-family="sans-serif" font-weight="700" fill="#dc2626">3</text>
  </g>
</svg>