<svg xmlns="http://www.w3.org/2000/svg" viewBox="208.9 364.6 62.6 62.6" width="200" height="200">
  <defs>
    <marker id="arrowhead" markerWidth="4" markerHeight="4" refX="1.5" refY="1.5"
            orient="auto-start-reverse" markerUnits="strokeWidth">
      <path d="M 0,0 L 3,1.5 L 0,3 z" fill="#2563eb"/>
    </marker>
  </defs>
  <rect x="208.9" y="364.6" width="62.6" height="62.6" fill="#FAFAFA"/>
  <g transform="">
    <path d="M 238.40498,379.62564 C 237.93621,379.68818 237.77994,379.93818 237.90498,380.37564 C 238.24871,380.81318 238.4362,382.59443 238.49873,385.75064 C 238.56121,388.90691 238.65494,391.78191 238.77998,394.34439 C 238.9362,396.87566 239.06119,400.46941 239.12373,405.12564 C 237.74871,404.9694 235.84245,404.87566 233.43623,404.87564 C 231.06121,404.87565 229.09245,405.28191 227.49873,406.09439 C 225.93622,406.87565 224.84246,408.06315 224.24873,409.65689 C 223.65497,411.25065 223.49871,412.5944 223.74873,413.68814 C 223.99872,414.75064 224.52996,415.78189 225.37373,416.75064 C 226.21747,417.75064 227.52996,418.43814 229.31123,418.84439 C 231.12371,419.25064 232.59245,419.43814 233.71748,419.37564 C 234.84246,419.31314 236.06119,419.09439 237.34248,418.75064 C 238.65496,418.40688 239.77994,417.75064 240.74873,416.78189 C 241.7487,415.81315 242.37369,414.75065 242.62373,413.59439 C 242.90495,412.43815 243.09244,411.18815 243.18623,409.84439 C 247.8112,411.4069 251.84243,413.56314 255.24873,416.28189 C 256.49869,414.31314 257.52993,412.9069 258.37373,412.09439 L 258.37373,411.53189 C 253.96744,409.4069 250.59243,408.00065 248.21748,407.28189 C 245.84245,406.56315 244.18619,406.0944 243.27998,405.87564 C 243.21745,401.03191 243.15494,397.25066 243.06123,394.53189 C 248.6862,394.06316 253.24868,393.46942 256.77998,392.78189 L 255.52998,388.81314 C 251.8112,389.78192 247.59244,390.40692 242.90498,390.68814 C 242.84245,388.25067 242.77994,385.18818 242.71748,381.53189 L 243.34248,380.65689 C 243.6862,380.28193 243.62369,380.03193 243.18623,379.90689 L 238.40498,379.62564 z M 234.43623,408.25064 C 236.09246,408.25064 237.62369,408.4069 239.02998,408.71939 C 238.96746,410.2194 238.77994,411.4694 238.49873,412.43814 C 238.21746,413.40689 237.71745,414.12564 236.99873,414.59439 C 236.27996,415.06314 235.40494,415.37564 234.34248,415.53189 C 233.27997,415.68814 231.9362,415.56315 230.31123,415.18814 C 228.71747,414.81314 227.8737,413.8444 227.77998,412.28189 C 227.71747,410.68815 228.37371,409.62565 229.77998,409.06314 C 231.21746,408.50065 232.77995,408.2194 234.43623,408.25064 z " fill="#1a1a1a" fill-opacity="0.55"/><path d="M 246.21424,386.1097 L 259.538,384.23605" class="stroke-order" fill="none" stroke="#2563eb" stroke-width="1.6" marker-end="url(#arrowhead)"/><text x="246.30511" y="384.21036" font-size="9" font-family="sans-serif" font-weight="700" fill="#dc2626">1</text><path d="M 234.35533,378.32488 L 235.38578,392.45686" class="stroke-order" fill="none" stroke="#2563eb" stroke-width="1.6" marker-end="url(#arrowhead)"/><text x="227.52763" y="385.13309" font-size="9" font-family="sans-serif" font-weight="700" fill="#dc2626">2</text><path d="M 226.29571,419.65687 C 226.29571,419.65687 220.70077,418.61595 219.9461,414.76455 C 219.19143,410.91315 221.92908,406.80599 223.27704,404.25127" class="stroke-order" fill="none" stroke="#2563eb" stroke-width="1.6" marker-end="url(#arrowhead)"/><path d="M 252.60914,405.41116 L 261.29442,409.09137" class="stroke-order" fill="none" stroke="#2563eb" stroke-width="1.6" marker-end="url(#arrowhead)"/>
  </g>
</svg>