<svg xmlns="http://www.w3.org/2000/svg" viewBox="197.2 191.7 80.7 80.7" width="200" height="200">
  <defs>
    <marker id="arrowhead" markerWidth="4" markerHeight="4" refX="1.5" refY="1.5"
            orient="auto-start-reverse" markerUnits="strokeWidth">
      <path d="M 0,0 L 3,1.5 L 0,3 z" fill="#2563eb"/>
    </marker>
  </defs>
  <rect x="197.2" y="191.7" width="80.7" height="80.7" fill="#FAFAFA"/>
  <g transform="">
    <path d="M 244.25437,218.75916 C 243.99655,218.82949 243.88716,219.08732 243.91062,219.50916 C 244.2856,219.8842 244.53558,220.97795 244.69187,222.82166 C 244.84809,224.66545 244.94183,226.13419 244.97312,227.19666 C 242.34809,227.63419 239.56684,228.69669 236.62937,230.38416 C 233.69185,232.07168 230.72309,235.29043 227.72312,240.04041 C 227.72311,238.38418 227.7856,236.47793 227.91062,234.35291 C 228.03561,232.19668 228.34809,229.47794 228.81687,226.16541 L 229.47312,225.35291 C 229.84811,224.94669 229.7856,224.66545 229.31687,224.50916 L 225.06687,223.82166 C 224.50437,223.54044 224.19185,223.72795 224.16062,224.41541 C 224.37936,225.04044 224.37935,226.29045 224.12937,228.16541 C 223.87937,230.00918 223.69185,232.19668 223.59812,234.69666 C 223.53561,237.19668 223.5356,239.82168 223.56687,242.57166 C 223.59812,245.32167 224.2231,248.75917 225.44187,252.88416 L 230.03562,250.63416 C 229.53561,249.32167 229.0981,248.10292 228.75437,247.00916 C 228.97311,245.35293 230.1606,243.04043 232.31687,240.07166 C 234.4731,237.10293 236.69183,234.94669 238.94187,233.60291 C 241.2231,232.25918 243.28558,231.38419 245.12937,230.94666 C 245.12935,232.10293 245.09808,234.00919 245.06687,236.69666 C 245.03559,239.38418 244.44183,242.66543 243.28562,246.54041 C 241.84809,245.94667 240.41058,244.41542 238.97312,241.91541 L 235.87937,245.04041 C 237.56685,247.63416 239.56683,249.41542 241.84812,250.38416 C 240.62935,252.88417 238.94183,255.07167 236.78562,256.94666 L 236.78562,257.41541 C 238.00435,257.9154 239.25433,258.79041 240.53562,260.00916 C 242.9106,257.29041 244.72308,254.41542 246.00437,251.41541 C 247.44184,251.60291 249.31683,251.57167 251.62937,251.32166 C 253.94183,251.04042 256.12932,250.04042 258.19187,248.32166 C 260.25433,246.57167 261.62931,244.60292 262.31687,242.38416 C 263.03557,240.16543 263.16056,237.91543 262.66062,235.63416 C 262.19183,233.35293 260.81681,231.32169 258.53562,229.57166 C 256.25433,227.79044 253.12932,226.88419 249.16062,226.85291 C 249.09809,224.82169 248.97307,222.72795 248.78562,220.57166 L 249.34812,219.63416 C 249.59809,219.2592 249.50432,219.0092 249.06687,218.88416 L 244.56687,218.75916 C 244.44968,218.74354 244.34031,218.73572 244.25437,218.75916 z M 249.25437,230.50916 C 251.62934,230.57169 253.59807,231.13419 255.19187,232.16541 C 256.78558,233.19668 257.75432,234.50919 258.09812,236.13416 C 258.47308,237.75918 258.44182,239.47793 258.00437,241.25916 C 257.56683,243.00917 256.44182,244.50917 254.62937,245.75916 C 252.81683,246.97792 251.28557,247.57167 250.00437,247.57166 C 248.72309,247.54042 247.84807,247.50917 247.37937,247.44666 C 248.50434,242.94667 249.09807,239.32168 249.16062,236.60291 C 249.25434,233.88418 249.28557,231.85294 249.25437,230.50916 z " fill="#1a1a1a" fill-opacity="0.55"/><path d="M 220.99302,223.23858 L 220.10787,239.17132" class="stroke-order" fill="none" stroke="#2563eb" stroke-width="1.6" marker-end="url(#arrowhead)"/><text x="213.02585" y="229.22459" font-size="9" font-family="sans-serif" font-weight="700" fill="#dc2626">1</text><path d="M 257.66101,223.86411 C 257.66101,223.86411 263.81566,226.00259 266.0063,231.37488 C 268.19694,236.74716 266.90935,241.71113 266.42357,245.35325" class="stroke-order" fill="none" stroke="#2563eb" stroke-width="1.6" marker-end="url(#arrowhead)"/><path d="M 252.34216,212.61675 L 251.6783,223.3861" class="stroke-order" fill="none" stroke="#2563eb" stroke-width="1.6" marker-end="url(#arrowhead)"/><text x="245.51047" y="216.0612" font-size="9" font-family="sans-serif" font-weight="700" fill="#dc2626">2</text>
  </g>
</svg>